<svg width="400" height="400" fill="none" xmlns="http://www.w3.org/2000/svg"><path d="M70.377 240.698c-13.442 13.191-15.722 33.602-12.872 51.481.078.404.707.296.707-.089 0-4.068-.127-8.097-.118-12.116.079-.187.138-.365.217-.542 3.508-2.561 6.76-5.438 8.725-9.378 2.25-4.433 3.135-9.418 4.845-14.047.167-.444-.305-.316-.62-.079-8.175 6.038-10.808 12.55-13.127 21.238a71.96 71.96 0 011.425-13.535c1.768-8.245 5.257-16.431 11.172-22.549a.26.26 0 00-.354-.384z" fill="url(#paint0_linear)"/><path d="M72.932 242.236c2.31.079 3.763 3.783 5.562 4.867a1.747 1.747 0 001.367.368 1.735 1.735 0 001.188-.772c1.788-2.502-.669-5.586-2.948-7.31 1.65.68 3.016 1.872 4.795 2.217a1.682 1.682 0 002.162-1.3c.776-3.409-3.479-4.926-6.407-4.995 1.415-.985 5.483-3.674 3.321-4.994-2.161-1.32-6.957 2.512-8.51 3.773-2.289 1.861-5.01 4.639-5.119 7.545-.177 3.399 2.781 1.311 4.59.601z" fill="url(#paint1_linear)"/><path d="M72.234 242.808c2.948-1.349 8.638.591 9.12-.532.982-2.285-3.558-3.851-6.015-4.157 2.26-.61 6.584-1.586 6.456-3.763-.167-2.669-6.632-.374-9.914 2.138-4.118 3.172-4.098 6.236-3.41 6.846.933.838 3.272-.315 3.763-.532z" fill="url(#paint2_linear)"/><path d="M39.758 239.389c13.934 12.668 16.97 32.981 14.809 50.959 0 .403-.688.325-.698-.059-.157-4.069-.187-8.108-.354-12.117l-.226-.542c-3.596-2.413-6.937-5.181-9.08-9.063-2.417-4.334-3.488-9.289-5.374-13.85-.177-.434.295-.325.61-.108 8.4 5.733 11.26 12.136 13.933 20.736a72.69 72.69 0 00-1.966-13.476c-2.083-8.177-5.895-16.215-12.027-22.106-.196-.246.138-.601.373-.374z" fill="url(#paint3_linear)"/><path d="M37.292 241.024c-2.309.167-3.616 3.94-5.375 5.073a1.73 1.73 0 01-1.35.424 1.725 1.725 0 01-1.214-.729c-1.877-2.434.452-5.606 2.692-7.418-1.621.748-2.948 1.97-4.707 2.394a1.676 1.676 0 01-1.393-.116 1.662 1.662 0 01-.818-1.135c-.913-3.379 3.292-5.054 6.21-5.241-1.454-.926-5.62-3.458-3.507-4.857 2.112-1.398 7.045 2.246 8.647 3.448 2.358 1.773 5.188 4.443 5.394 7.349.266 3.428-2.77 1.448-4.579.808z" fill="url(#paint4_linear)"/><path d="M37.98 241.567c-2.997-1.232-8.608.926-9.129-.178-1.06-2.246 3.41-3.94 5.896-4.383-2.28-.522-6.633-1.34-6.583-3.517.058-2.67 6.613-.631 9.983 1.763 4.235 3.015 4.324 6.068 3.665 6.709-.943.876-3.33-.188-3.832-.394z" fill="url(#paint5_linear)"/><path d="M54.007 272.853a137.816 137.816 0 004.333 20.037.502.502 0 00.904.174.502.502 0 00.079-.371c-.914-6.167-2.585-12.235-3.498-18.402a92.277 92.277 0 01-1.072-18.904c.58-10.402 3.4-21.475 10.17-29.611.158-.197-.166-.463-.314-.286-13.56 15.85-11.398 35.276-11.388 37.02-1.966-6.561-3.93-14.087-11.163-20.766-.315-.286-.56-.148-.501.345 1.287 12.205 4.657 18.519 11.723 25.011.176 1.97.422 3.862.727 5.753z" fill="url(#paint6_linear)"/><path d="M65.071 227.598c2.437-1.084 5.807 2.029 8.215 2.236a1.96 1.96 0 002.184-.906 1.97 1.97 0 00.263-.798c.599-3.497-3.489-5.458-6.751-6.078 2.054-.128 4.068.413 6.082-.128a1.966 1.966 0 001.63-1.629 1.97 1.97 0 00-.038-.814c-.894-3.941-6.082-3.35-9.148-1.971.983-1.743 3.842-6.58.983-6.895-2.86-.316-5.955 6.117-6.928 8.215-1.444 3.084-2.879 7.349-1.523 10.413 1.494 3.654 3.508-.01 5.031-1.645z" fill="url(#paint7_linear)"/><path d="M64.629 228.524c2.397-2.887 9.266-3.744 9.197-5.152-.127-2.857-5.62-2.197-8.313-1.271 2.024-1.773 6.024-4.975 4.795-7.171-1.513-2.68-7.074 2.955-9.207 7.23-2.682 5.369-1.12 8.531-.108 8.817 1.395.404 3.243-1.971 3.636-2.453z" fill="url(#paint8_linear)"/><path d="M45.084 276.517l-5.974 45.807h36.357c-.746-4.059-7.517-45.856-7.517-45.856l-22.866.049z" fill="url(#paint9_linear)"/><path d="M11.299 322.287l47.175-.236 47.176-.089 94.362-.167 94.352.167 47.185.089 47.176.236-47.176.247-47.185.079-94.352.167-94.362-.167-47.176-.089-47.175-.237z" fill="#1C1C1E"/><path d="M124.743 182.266a9.14 9.14 0 00-.806-.817 10.369 10.369 0 00-.816-.808c-.253-.287-.522-.56-.806-.818a8.868 8.868 0 00-.815-.807 12.715 12.715 0 00-.806-.818 7.686 7.686 0 00-.806-.808c-.257-.287-.529-.56-.815-.817a7.783 7.783 0 00-.806-.808 10.369 10.369 0 00-.816-.808 11.702 11.702 0 00-2.879-2.315V91.234c0-.433-.206-.65-.206-1.083a2.325 2.325 0 00-.216-1.29c0-.218-.207-.65-.207-.868a10.12 10.12 0 00-.442-1.3 1.584 1.584 0 01-.422-.867 6.229 6.229 0 00-.865-1.074c-.226-.216-.432-.64-.648-.867l-.865-.866c0-.128-.167-.266-.354-.345l-.422-.434h-.05c0-.137-.157-.265-.343-.354l-.433-.424c0-.128-.167-.266-.354-.354l-.422-.424c0-.138-.167-.266-.354-.355l-.422-.433c0-.128-.167-.266-.354-.355l-.433-.423v-.05c0-.128-.167-.256-.353-.344l-.423-.434h-.049c0-.128-.157-.266-.344-.354l-.432-.424v-.05c0-.127-.167-.255-.354-.344l-.422-.433h-.05c0-.138-.157-.267-.344-.355l-.432-.424c0-.128-.167-.266-.354-.345l-.471-.472c0-.217-.423-.434-.649-.434a.192.192 0 00-.013-.082.186.186 0 00-.044-.07.206.206 0 00-.149-.064c-.433-.207-.659-.434-1.081-.65-.372-.27-.729-.56-1.071-.868-.216 0-.649-.206-.865-.206-.432-.217-1.08-.217-1.297-.444a2.06 2.06 0 01-1.08-.207h-3.656a1.344 1.344 0 01-.865.207c-.648.227-1.07.227-1.297.444-.422 0-.639.206-.865.65-.461.01-.909.158-1.287.423-.206.217-.648.444-.865.65a2.21 2.21 0 01-1.07.65c-.162.327-.382.621-.65.868-.215.216-.215.423-.422.423L5.452 175.49a11.555 11.555 0 001.07 15.889c.253.298.53.575.826.828.247.297.52.57.816.818.252.297.528.574.825.827.25.297.522.574.816.828.252.294.529.567.825.817.25.298.522.574.816.828.252.294.528.567.825.817.25.298.522.574.816.828.252.294.528.568.825.817a11.225 11.225 0 001.69 1.567 10.547 10.547 0 007.32 2.59h59.666v8.186a11.845 11.845 0 003.852 8.866c.255.276.52.542.786.788.25.281.516.547.796.798.255.276.52.542.796.788.25.281.516.547.796.798.255.276.52.542.796.798.247.283.513.55.796.798.245.276.51.542.786.798.25.281.516.547.796.798.245.266.51.532.786.788a11.874 11.874 0 0013.06 3.014 11.909 11.909 0 005.491-4.37 11.96 11.96 0 002.084-6.712v-16.175h2.162a11.836 11.836 0 008.51-3.409 11.89 11.89 0 003.546-8.471 11.843 11.843 0 00-3.684-8.758zm-42.175-46.299v34.912H54.504l28.064-34.912z" fill="url(#paint10_linear)"/><path opacity=".2" d="M124.743 182.266a9.14 9.14 0 00-.806-.817 10.369 10.369 0 00-.816-.808c-.253-.287-.522-.56-.806-.818a8.868 8.868 0 00-.815-.807 12.715 12.715 0 00-.806-.818 7.686 7.686 0 00-.806-.808c-.257-.287-.529-.56-.815-.817a7.783 7.783 0 00-.806-.808 10.369 10.369 0 00-.816-.808 11.702 11.702 0 00-2.879-2.315V91.234c0-.433-.206-.65-.206-1.083a2.325 2.325 0 00-.216-1.29c0-.218-.207-.65-.207-.868a10.12 10.12 0 00-.442-1.3 1.584 1.584 0 01-.422-.867 6.229 6.229 0 00-.865-1.074c-.226-.216-.432-.64-.648-.867l-.865-.866c0-.128-.167-.266-.354-.345l-.422-.434h-.05c0-.137-.157-.265-.343-.354l-.433-.424c0-.128-.167-.266-.354-.354l-.422-.424c0-.138-.167-.266-.354-.355l-.422-.433c0-.128-.167-.266-.354-.355l-.433-.423v-.05c0-.128-.167-.256-.353-.344l-.423-.434h-.049c0-.128-.157-.266-.344-.354l-.432-.424v-.05c0-.127-.167-.255-.354-.344l-.422-.433h-.05c0-.138-.157-.267-.344-.355l-.432-.424c0-.128-.167-.266-.354-.345l-.471-.472c0-.217-.423-.434-.649-.434a.192.192 0 00-.013-.082.186.186 0 00-.044-.07.206.206 0 00-.149-.064c-.433-.207-.659-.434-1.081-.65-.372-.27-.729-.56-1.071-.868-.216 0-.649-.206-.865-.206-.432-.217-1.08-.217-1.297-.444a2.06 2.06 0 01-1.08-.207h-3.656a1.344 1.344 0 01-.865.207c-.648.227-1.07.227-1.297.444-.422 0-.639.206-.865.65-.461.01-.909.158-1.287.423-.206.217-.648.444-.865.65a2.21 2.21 0 01-1.07.65c-.162.327-.382.621-.65.868-.215.216-.215.423-.422.423L5.452 175.49a11.555 11.555 0 001.07 15.889c.253.298.53.575.826.828.247.297.52.57.816.818.252.297.528.574.825.827.25.297.522.574.816.828.252.294.529.567.825.817.25.298.522.574.816.828.252.294.528.567.825.817.25.298.522.574.816.828.252.294.528.568.825.817a11.225 11.225 0 001.69 1.567 10.547 10.547 0 007.32 2.59h59.666v8.186a11.845 11.845 0 003.852 8.866c.255.276.52.542.786.788.25.281.516.547.796.798.255.276.52.542.796.788.25.281.516.547.796.798.255.276.52.542.796.798.247.283.513.55.796.798.245.276.51.542.786.798.25.281.516.547.796.798.245.266.51.532.786.788a11.874 11.874 0 0013.06 3.014 11.909 11.909 0 005.491-4.37 11.96 11.96 0 002.084-6.712v-16.175h2.162a11.836 11.836 0 008.51-3.409 11.89 11.89 0 003.546-8.471 11.843 11.843 0 00-3.684-8.758zm-42.175-46.299v34.912H54.504l28.064-34.912z" fill="url(#paint11_linear)"/><path d="M120.478 182.789a11.922 11.922 0 01-3.55 8.475 11.846 11.846 0 01-8.517 3.405h-2.152v16.422c0 3.151-1.248 6.172-3.471 8.4a11.834 11.834 0 01-8.38 3.48 11.836 11.836 0 01-8.379-3.48 11.894 11.894 0 01-3.47-8.4v-16.422h-67.87a10.504 10.504 0 01-7.272-2.591 11.543 11.543 0 01-4.52-7.873 11.584 11.584 0 012.555-8.715l79.69-99.406c.217 0 .217-.207.433-.423.268-.247.487-.54.648-.867a2.309 2.309 0 001.081-.65c.207-.217.64-.434.855-.65a2.315 2.315 0 011.297-.434c.216-.424.433-.64.865-.64.206-.217.639-.217 1.287-.434.305.033.611-.044.865-.217h3.665c.328.176.7.252 1.071.217.216.217.865.217 1.297.434.216 0 .649.216.865.216.423.424.855.64 1.071.857.432.217.649.434 1.081.65a.217.217 0 01.216.217c.216 0 .649.217.649.434l.855.867c.216.216.432.64.648.857.33.326.62.69.865 1.083.054.326.204.628.432.867.178.417.319.85.423 1.29 0 .217.216.65.216.868.195.403.27.855.216 1.3 0 .423.216.64.216 1.073v87.91h2.152a11.993 11.993 0 018.474 3.449 12.056 12.056 0 013.593 8.431zm-37.92-65.233l-42.872 53.353h42.872v-53.353z" fill="url(#paint12_linear)"/><path d="M246.519 103.972a61.293 61.293 0 00-8.431-10.245 4.263 4.263 0 00-.373-.365l-.108-.108a4.56 4.56 0 00-.305-.315c-.275-.296-.57-.572-.855-.857l-.078-.07-.295-.295a1.105 1.105 0 00-.108-.108 4.56 4.56 0 00-.305-.315c-.275-.296-.57-.572-.854-.857l-.079-.07-.295-.295-.108-.108a4.56 4.56 0 00-.305-.315c-.275-.296-.57-.572-.854-.858l-.079-.068-.295-.296s-.069-.079-.108-.108a3.125 3.125 0 00-.314-.316c-.266-.305-.56-.57-.845-.857l-.079-.069a2.763 2.763 0 00-.295-.295s-.069-.079-.108-.108c-8.657-8.945-19.937-14.865-32.594-14.865-17.029 0-31.021 10.156-40.081 23.967-9.482 13.791-14.425 31.769-14.641 51.628.216 19.702 5.159 37.798 14.641 51.629a64.26 64.26 0 008.342 10.136l.433.424v.049l.766.769c.128.147.266.275.393.404l.433.423.049.049.766.769.393.413.433.414a.116.116 0 01.049.049l.766.769.393.414.433.413a.103.103 0 01.03.025c.009.01.015.022.019.034l.766.769.403.404.423.413.059.059.766.769c8.51 8.521 19.495 14.244 32.122 14.244 16.587 0 30.805-10.373 39.865-23.987 9.257-13.791 14.435-31.966 14.435-51.618.03-19.909-5.129-37.838-14.386-51.668zm-28.034 81.634c-6.249 9.28-13.364 13.387-20.036 13.387a19.764 19.764 0 01-11.369-3.94 25.909 25.909 0 01-.894-1.241c-6.033-9.073-10.347-22.894-10.347-38.231 0-15.555 4.314-29.159 10.347-38.419 6.476-9.073 13.757-13.387 20.468-13.18a17.999 17.999 0 0110.809 3.546c.344.463.678.916.983 1.399 6.033 9.289 10.337 22.893 10.337 38.418.039 15.338-4.265 29.179-10.298 38.261z" fill="url(#paint13_linear)"/><path opacity=".2" d="M246.519 103.972a61.293 61.293 0 00-8.431-10.245 4.263 4.263 0 00-.373-.365l-.108-.108a4.56 4.56 0 00-.305-.315c-.275-.296-.57-.572-.855-.857l-.078-.07-.295-.295a1.105 1.105 0 00-.108-.108 4.56 4.56 0 00-.305-.315c-.275-.296-.57-.572-.854-.857l-.079-.07-.295-.295-.108-.108a4.56 4.56 0 00-.305-.315c-.275-.296-.57-.572-.854-.858l-.079-.068-.295-.296s-.069-.079-.108-.108a3.125 3.125 0 00-.314-.316c-.266-.305-.56-.57-.845-.857l-.079-.069a2.763 2.763 0 00-.295-.295s-.069-.079-.108-.108c-8.657-8.945-19.937-14.865-32.594-14.865-17.029 0-31.021 10.156-40.081 23.967-9.482 13.791-14.425 31.769-14.641 51.628.216 19.702 5.159 37.798 14.641 51.629a64.26 64.26 0 008.342 10.136l.433.424v.049l.766.769c.128.147.266.275.393.404l.433.423.049.049.766.769.393.413.433.414a.116.116 0 01.049.049l.766.769.393.414.433.413a.103.103 0 01.03.025c.009.01.015.022.019.034l.766.769.403.404.423.413.059.059.766.769c8.51 8.521 19.495 14.244 32.122 14.244 16.587 0 30.805-10.373 39.865-23.987 9.257-13.791 14.435-31.966 14.435-51.618.03-19.909-5.129-37.838-14.386-51.668zm-28.034 81.634c-6.249 9.28-13.364 13.387-20.036 13.387a19.764 19.764 0 01-11.369-3.94 25.909 25.909 0 01-.894-1.241c-6.033-9.073-10.347-22.894-10.347-38.231 0-15.555 4.314-29.159 10.347-38.419 6.476-9.073 13.757-13.387 20.468-13.18a17.999 17.999 0 0110.809 3.546c.344.463.678.916.983 1.399 6.033 9.289 10.337 22.893 10.337 38.418.039 15.338-4.265 29.179-10.298 38.261z" fill="url(#paint14_linear)"/><path d="M143.717 147.365c.216-19.869 5.179-37.798 14.651-51.618 9.05-13.792 23.052-23.978 40.081-23.978 16.587 0 30.806 10.157 39.856 23.978 9.266 13.791 14.435 31.749 14.435 51.618 0 19.702-5.169 37.808-14.435 51.629-9.05 13.604-23.269 23.977-39.856 23.977-17.029 0-31.031-10.373-40.081-23.977-9.453-13.821-14.435-31.966-14.651-51.629zm85.105 0c0-15.544-4.304-29.158-10.337-38.418-6.249-9.073-13.354-13.388-20.036-13.17-6.681-.218-14.012 4.097-20.468 13.17-6.033 9.289-10.347 22.903-10.347 38.418 0 15.338 4.314 29.169 10.347 38.232 6.456 9.289 13.757 13.397 20.468 13.397 6.712 0 13.757-4.108 20.036-13.397 6.033-9.063 10.337-22.914 10.337-38.232z" fill="url(#paint15_linear)"/><path d="M393.304 182.266a12.694 12.694 0 00-.806-.817c-.265-.286-.54-.552-.815-.808a16.008 16.008 0 00-.806-.818c-.265-.285-.54-.561-.816-.807a15.59 15.59 0 00-.805-.818 12.651 12.651 0 00-.816-.808 20.83 20.83 0 00-.806-.817 10.229 10.229 0 00-.805-.808 15.901 15.901 0 00-.816-.808 11.56 11.56 0 00-2.889-2.315V91.234c0-.433-.206-.65-.206-1.083a2.325 2.325 0 00-.216-1.29c0-.218-.207-.65-.207-.868a10.275 10.275 0 00-.442-1.3 1.672 1.672 0 01-.423-.867 5.74 5.74 0 00-.864-1.074c-.226-.216-.433-.64-.649-.867l-.864-.866c0-.128-.168-.266-.354-.345l-.423-.434h-.049c0-.137-.157-.265-.344-.354l-.432-.424c0-.128-.167-.266-.354-.354l-.422-.424c0-.138-.167-.266-.354-.355l-.423-.433c0-.128-.167-.266-.353-.355l-.433-.423v-.05c0-.128-.167-.256-.354-.344l-.422-.434h-.049c0-.128-.157-.266-.344-.354l-.433-.424v-.05c0-.127-.167-.255-.353-.344l-.423-.433h-.049c0-.138-.157-.266-.344-.355l-.432-.424c0-.128-.167-.266-.354-.345l-.472-.472c0-.217-.422-.434-.648-.434a.215.215 0 00-.017-.083.202.202 0 00-.046-.07.222.222 0 00-.153-.063c-.423-.207-.649-.434-1.071-.65-.372-.27-.73-.56-1.071-.868-.217 0-.649-.206-.865-.206-.433-.217-1.071-.217-1.297-.444a2.04 2.04 0 01-1.081-.207h-3.655a1.346 1.346 0 01-.865.207c-.649.227-1.071.227-1.297.444-.423 0-.639.206-.865.65-.461.012-.909.159-1.287.423-.207.217-.649.444-.855.65a2.31 2.31 0 01-1.081.65 3.124 3.124 0 01-.649.868c-.216.216-.216.423-.422.423l-80.074 99.11a11.558 11.558 0 001.071 15.889c.252.298.528.575.825.828.247.297.52.57.816.818.252.297.528.574.825.827.824.819 1.643 1.644 2.457 2.473a97.9 97.9 0 011.641 1.645c.252.294.528.568.825.817a11.249 11.249 0 001.69 1.567 10.548 10.548 0 007.321 2.59h59.665v8.187a11.836 11.836 0 003.852 8.865c.255.286.53.552.796.798.245.276.511.532.786.788.254.281.523.547.806.798.255.276.511.532.786.788.255.286.53.552.805.808.256.276.511.542.787.788.255.286.53.552.805.808.256.276.511.542.786.788.251.284.516.553.796.808a11.88 11.88 0 0018.556-1.363 11.948 11.948 0 002.079-6.715v-16.185h2.162a11.845 11.845 0 008.52-3.404 11.93 11.93 0 003.557-8.476 11.829 11.829 0 00-3.695-8.758zm-42.184-46.299v34.912h-28.064l28.064-34.912z" fill="url(#paint16_linear)"/><path opacity=".2" d="M393.304 182.266a12.694 12.694 0 00-.806-.817c-.265-.286-.54-.552-.815-.808a16.008 16.008 0 00-.806-.818c-.265-.285-.54-.561-.816-.807a15.59 15.59 0 00-.805-.818 12.651 12.651 0 00-.816-.808 20.83 20.83 0 00-.806-.817 10.229 10.229 0 00-.805-.808 15.901 15.901 0 00-.816-.808 11.56 11.56 0 00-2.889-2.315V91.234c0-.433-.206-.65-.206-1.083a2.325 2.325 0 00-.216-1.29c0-.218-.207-.65-.207-.868a10.275 10.275 0 00-.442-1.3 1.672 1.672 0 01-.423-.867 5.74 5.74 0 00-.864-1.074c-.226-.216-.433-.64-.649-.867l-.864-.866c0-.128-.168-.266-.354-.345l-.423-.434h-.049c0-.137-.157-.265-.344-.354l-.432-.424c0-.128-.167-.266-.354-.354l-.422-.424c0-.138-.167-.266-.354-.355l-.423-.433c0-.128-.167-.266-.353-.355l-.433-.423v-.05c0-.128-.167-.256-.354-.344l-.422-.434h-.049c0-.128-.157-.266-.344-.354l-.433-.424v-.05c0-.127-.167-.255-.353-.344l-.423-.433h-.049c0-.138-.157-.266-.344-.355l-.432-.424c0-.128-.167-.266-.354-.345l-.472-.472c0-.217-.422-.434-.648-.434a.215.215 0 00-.017-.083.202.202 0 00-.046-.07.222.222 0 00-.153-.063c-.423-.207-.649-.434-1.071-.65-.372-.27-.73-.56-1.071-.868-.217 0-.649-.206-.865-.206-.433-.217-1.071-.217-1.297-.444a2.04 2.04 0 01-1.081-.207h-3.655a1.346 1.346 0 01-.865.207c-.649.227-1.071.227-1.297.444-.423 0-.639.206-.865.65-.461.012-.909.159-1.287.423-.207.217-.649.444-.855.65a2.31 2.31 0 01-1.081.65 3.124 3.124 0 01-.649.868c-.216.216-.216.423-.422.423l-80.074 99.11a11.558 11.558 0 001.071 15.889c.252.298.528.575.825.828.247.297.52.57.816.818.252.297.528.574.825.827.824.819 1.643 1.644 2.457 2.473a97.9 97.9 0 011.641 1.645c.252.294.528.568.825.817a11.249 11.249 0 001.69 1.567 10.548 10.548 0 007.321 2.59h59.665v8.187a11.836 11.836 0 003.852 8.865c.255.286.53.552.796.798.245.276.511.532.786.788.254.281.523.547.806.798.255.276.511.532.786.788.255.286.53.552.805.808.256.276.511.542.787.788.255.286.53.552.805.808.256.276.511.542.786.788.251.284.516.553.796.808a11.88 11.88 0 0018.556-1.363 11.948 11.948 0 002.079-6.715v-16.185h2.162a11.845 11.845 0 008.52-3.404 11.93 11.93 0 003.557-8.476 11.829 11.829 0 00-3.695-8.758zm-42.184-46.299v34.912h-28.064l28.064-34.912z" fill="url(#paint17_linear)"/><path d="M389.03 182.789a11.922 11.922 0 01-3.55 8.475 11.846 11.846 0 01-8.517 3.405h-2.152v16.422c0 3.151-1.248 6.172-3.471 8.4a11.834 11.834 0 01-8.379 3.48 11.836 11.836 0 01-8.38-3.48 11.895 11.895 0 01-3.471-8.4v-16.422h-67.87a10.504 10.504 0 01-7.32-2.591 11.54 11.54 0 01-4.54-7.891 11.575 11.575 0 012.574-8.737l79.74-99.366c.217 0 .217-.207.433-.423.267-.247.487-.54.648-.867a2.306 2.306 0 001.081-.65c.216-.217.649-.434.865-.65a2.258 2.258 0 011.287-.434c.216-.424.433-.64.855-.64.216-.217.649-.217 1.297-.434.305.033.611-.044.865-.217h3.665c.328.176.701.252 1.071.217.216.217.865.217 1.297.434.216 0 .649.216.865.216.432.424.855.64 1.071.857.432.217.649.434 1.081.65a.217.217 0 01.216.217c.216 0 .639.217.639.434l.864.867c.217.216.433.64.649.857.33.326.62.69.865 1.083.054.326.204.628.432.867.177.418.321.85.432 1.29 0 .217.207.65.207.868.194.403.269.855.216 1.3 0 .423.216.64.216 1.073v87.91h2.152a11.993 11.993 0 018.474 3.449 12.056 12.056 0 013.593 8.431zm-37.92-65.233l-42.872 53.353h42.872v-53.353z" fill="url(#paint18_linear)"/><path d="M229.756 194.944a.985.985 0 00.639 1.074c1.031.158 2.289.325 3.684.522 4.157-9.043 8.402-16.165 7.203-13.348a51.184 51.184 0 00-3.567 13.851c1.621.216 5.405.679 7.291.906 4.343-16.136 9.129-27.996 8.569-24.273-2.28 15.023-1.877 19.929-1.356 25.179 17.618 2.148 40.759 4.689 57.532 6.137 2.742-8.866 5.307-18.559 5.542-17.85 1.838 5.271 1.799 12.718 1.337 18.431 5.345.424 9.63.651 12.253.651 0 0 1.965-7.507 2.319-9.989a55.572 55.572 0 00-.177-19.17c-1.208-6.462-3.783-12.274-6.19-18.214a.839.839 0 00-.03-.109 55.267 55.267 0 01-3.419-12.106.236.236 0 010-.099 54.621 54.621 0 01-.58-9.151c.216-11.211-4.795-21.288-14.317-24.933-16.262-16.658-38.597-9.014-44.906 5.073-2.466 6.315-4.913 14.56-7.045 20.914.006.01.009.022.009.034a64.837 64.837 0 01-2.869 7.344c-5.846 11.348-17.107 17.2-21.922 49.126z" fill="#1C1C1E"/><path d="M310.41 115.764c6.102 4.049 9.58 9.575 9.826 17.791.157 4.787 0 9.447 1.346 14.047 1.346 4.748 3.783 8.748 6.309 12.737 3.999 6.344 6.632 12.57 6.623 20.608-.01 8.039-1.219 17.732-4.452 25.11 0 .049-.078 0-.059 0 2.752-7.536 3.754-18.155 3.194-26.292-.619-8.944-4.785-14.835-8.971-21.898a37.948 37.948 0 01-5.415-18.54c-.118-4.058.315-8.245-.864-12.146-1.396-4.649-4.737-7.792-8.078-10.599-.442-.404.079-1.123.541-.818zM239.671 157.571c5.09-5.999 10.288-11.052 13.648-18.716 3.056-6.985 5.11-14.442 8.205-21.406 0-.119.207-.059.157.069-4.913 12.412-6.799 25.159-15.388 35.276-4.677 5.496-9.305 10.57-12.666 17.318a66.944 66.944 0 00-6.347 22.657c0 .275-.364.236-.364 0a54.862 54.862 0 0112.755-35.198z" fill="#1C1C1E"/><path d="M190.186 310.446s47.431 12.806 55.272 11.427c7.842-1.379 34.314-37.098 40.19-50.052 5.876-12.954 15.633-77.399 13.757-84.491-1.877-7.093-11.694-7.192-19.977 11.092-8.284 18.283-27.868 58.475-31.356 61.784-3.488 3.31-61.709 46.812-57.886 50.24z" fill="#F7F7FC"/><path d="M241.341 317.637c-7.271-3.813-16.125-13.063-22.158-14.028a6.99 6.99 0 00-4.363.554 7.015 7.015 0 00-3.174 3.051s-2.771-6.176-8.392-6.147c-2.879 0-5.394 4.65-5.394 4.65s-2.447-4.856-7.429-4.521c-3.979.265-5.896 4.876-5.896 4.876s-4.5-3.566-8.47-1.97c-8.038 3.181-9.374 37.433 3.007 43.225 5.768 2.699 5.64-5.684 5.64-5.684s3.086 12.018 10.121 12.471c7.036.454 6.22-10.422 6.22-10.422s3.096 11.614 10.436 11.348c7.645-.266 4.972-11.013 4.972-11.013s4.854 7.822 10.426 6.324c9.207-2.462-.688-21.002 1.395-28.459h11.565l1.494-4.255z" fill="#F7F7FC"/><path d="M230.847 310.349c7.202 3.015 15.417-8.383 22.826-5.733 9.61 3.438.727 15.328-13.835 17.259h-11.566l2.575-11.526z" fill="#F7F7FC"/><path d="M184.113 306.753a.088.088 0 00-.026-.063.088.088 0 00-.125 0 .088.088 0 00-.026.063c-3.174 11.161-3.262 24.4.717 35.374.128.355.777.306.708-.118-1.946-12.136-2.712-23.031-1.248-35.256zM197.791 305.521c0-.138-.206-.167-.246 0-3.213 11.526-2.947 26.43 3.174 38.547.207.413.816.571.609.078-3.429-8.353-4.913-27.602-3.537-38.625zM217.168 344.748c-5.374-11.821-6.426-24.203-5.679-37.069 0-.167-.226-.167-.275 0-2.074 6.197-1.69 14.442-.855 20.835a34.235 34.235 0 006.357 16.412c.177.206.57.078.452-.178z" fill="#1C1C1E"/><path d="M254.243 303.707c-4.717-1.576-9.561 2.207-13.531 4.325a23.615 23.615 0 01-3.999 1.901c-3.145.985-5.473.355-6.879-.522-2.201-1.409-9.069-8.285-14.031-5.999a10.575 10.575 0 00-4.245 3.615c-1.514-2.758-3.449-5.763-6.8-6.314a5.296 5.296 0 00-4.206 1.093 8.642 8.642 0 00-1.651 1.685 7.812 7.812 0 00-1.139 1.881.397.397 0 010-.069l-.109-.207-.206-.423a4.415 4.415 0 00-1.169-1.468.981.981 0 00-.718-.296.079.079 0 00-.078.079.079.079 0 00.078.079c.231.11.417.294.531.522.157.237.305.483.472.709.167.227.324.463.491.69l.246.364.108.188c.047.06.1.116.157.167a.17.17 0 00.052.044.152.152 0 00.132 0 .17.17 0 00.052-.044 9.896 9.896 0 001.366-1.497 11.758 11.758 0 011.641-1.576 5.088 5.088 0 014.038-.986c3.007.592 4.913 3.271 6.515 5.665h.049c-.049.079.059.147.118.088 1.651-1.448 3.223-3.073 5.503-3.408 2.456-.364 4.785.818 6.819 2.059 1.019.6 2.003 1.258 2.948 1.97.835.65 1.631 1.379 2.526 1.97 3.822 2.414 8.008.542 9.05.099a52.525 52.525 0 005.964-3.172 16.796 16.796 0 016.387-2.591 6.263 6.263 0 015.68 2.128c.717.926 1.631 2.659-.246 6.61 0 0 0 .078.059.049.983-1.025 4.107-7.369-1.975-9.408z" fill="#1C1C1E"/><path d="M295.68 247.183l-44.758-7.171s21.382-42.447 34.225-54.761c12.675-12.156 18.846.295 16.979 19.071-2.063 20.815-6.446 42.861-6.446 42.861z" fill="url(#paint19_linear)"/><path d="M294.226 238.831c-1.258-.296-2.545-.483-3.803-.769-1.257-.286-2.466-.463-3.704-.65a396.81 396.81 0 00-7.586-1.093c-4.992-.69-9.984-1.449-14.995-1.971-2.85-.315-5.679-.748-8.539-.985-.088 0-.098.138 0 .158 4.962 1.162 10.013 1.97 15.044 2.847 5.031.877 9.984 1.586 14.995 2.128 1.405.157 2.82.335 4.225.403 1.405.069 2.899.207 4.343.227a.147.147 0 00.158-.138.15.15 0 00-.138-.157z" fill="#1C1C1E"/><path d="M270.761 322.266h118.534s-49.269-122.584-74.316-140.493c-7.517-5.379-19.495-5.98-27.572 4.817-6.623 8.866-25.008 44.083-25.844 56.751-.835 12.668 9.08 25.189 9.08 25.189l.118 53.736z" fill="url(#paint20_linear)"/><path d="M305.772 180.885c-.364 1.842-8.657 13.969-16.99 13.86-2.712-.049-3.144-14.904-3.144-14.904l-.285-1.084-3.931-15.249 17.619-12.185 2.555-1.616s.796 4.246 1.749 9.536c0 .246.088.492.128.758.039.266.127.572.167.857.157.788.304 1.596.442 2.404.108.611.206 1.202.295 1.852.088.65.186 1.28.294 1.97.68 4.57 1.048 9.181 1.101 13.801z" fill="#F7F7FC"/><path d="M303.345 159.243a31.658 31.658 0 01-6.853 11.743 31.542 31.542 0 01-11.139 7.771l-3.931-15.249 17.619-12.185 2.555-1.616s.796 4.246 1.749 9.536z" fill="#1C1C1E"/><path d="M259.824 140.862c-.727 27.642 15.722 31.198 21.618 31.346 5.395.138 23.789-.079 27.366-27.494 3.577-27.415-9.02-36.448-21.342-37.433-12.323-.986-26.915 5.94-27.642 33.581z" fill="#F7F7FC"/><path d="M264.01 132.5c.649-.108 1.219-.305 1.848-.473a3.14 3.14 0 001.788-.847.987.987 0 00-.049-1.202 2.45 2.45 0 00-2.427-.463 3.556 3.556 0 00-2.182 1.36 1.058 1.058 0 00.434 1.537c.184.086.388.116.588.088zM282.444 136.538a17.174 17.174 0 01-1.886-.315 3.085 3.085 0 01-1.848-.68.986.986 0 01-.059-1.202 2.447 2.447 0 012.378-.68 3.552 3.552 0 012.29 1.173 1.042 1.042 0 01-.875 1.704zM268.078 141.494c0-.069-.137.098-.137.177.186 1.872.088 4.049-1.563 4.788-.059 0 0 .118 0 .108 2.064-.433 2.172-3.33 1.7-5.073z" fill="#1C1C1E"/><path d="M266.27 139.641c-3.026 0-2.859 6.048-.049 6.078 2.81.029 2.575-6.049.049-6.078z" fill="#1C1C1E"/><path d="M265.022 140.086c-.471.335-.923.926-1.503.985-.58.059-1.169-.581-1.612-1.202 0-.059-.088 0-.088.069 0 1.162.423 2.364 1.533 2.551 1.11.187 1.739-.837 1.965-1.97.069-.246-.108-.571-.295-.433zM280.41 157.581c-.461.424-.933.985-1.621 1.054a4.952 4.952 0 01-1.965-.551.068.068 0 00-.099.056.07.07 0 00.01.042 2.523 2.523 0 002.359 1.103 1.964 1.964 0 001.533-1.615c-.04-.109-.148-.148-.217-.089zM271.016 150.024s-.216 2.818-.147 4.138a27.133 27.133 0 017.664.67c.59.157.551-.325-.117-.68a11.22 11.22 0 00-6.476-1.202c-.118-.364.423-4.334.216-4.334a11.478 11.478 0 00-2.948.847c.295-5.911 1.533-11.664 1.74-17.525a.18.18 0 00-.142-.186.176.176 0 00-.123.021.175.175 0 00-.079.096c-1.73 5.98-2.221 12.737-2.683 18.806-.059.748 2.584-.394 3.095-.651zM284.134 141.59a5.983 5.983 0 00-3.468-.275 4.904 4.904 0 00-1.73.768 4.474 4.474 0 00-1.287 1.517l-.58 1.074 1.189-.128c.836-.089 1.68-.089 2.516 0a5.13 5.13 0 012.437.867 3.764 3.764 0 00-2.221-1.803 7.015 7.015 0 00-2.869-.325l.609.985a4.383 4.383 0 012.221-1.862 13.21 13.21 0 013.183-.818z" fill="#1C1C1E"/><path d="M280.725 146.488a9.898 9.898 0 01-2.545-.985c-.187-.118-.904-.66-.865-.818a5.59 5.59 0 01.472-1.32 3.626 3.626 0 00-.737 1.281 1.821 1.821 0 00.923 1.231c.845.45 1.796.661 2.752.611zM274.2 153.963s1.71 2.463 3.675 2.759c2.26.354 2.525-1.685 0-2.847-1.277-.601-3.675.088-3.675.088z" fill="#1C1C1E"/><path d="M277.865 156.771a4.576 4.576 0 01-2.27-1.211c.472-.7 1.553-1.478 3.98-.168.354.828-.275 1.557-1.71 1.379z" fill="url(#paint21_linear)"/><path d="M308.641 145.374c-4.54.571-6.053-8.955-6.053-8.955s-9.256.473-12.961-12.727a20.63 20.63 0 004.638 10.836s-16.419-.985-23.956-14.314c0 0 3.085 6.847 5.778 9.201 0 0-6.947-1.576-10.554-6.994 0 0-2.476 8.048-4.569 10.343 0 0-.717-28.676 25.902-26.922 0 0 16.626.295 23.22 13.161 6.593 12.865-1.445 26.371-1.445 26.371z" fill="#1C1C1E"/><path d="M304.396 146.715s5.493-8.974 9.522-7.063c4.029 1.911.255 14.678-4.216 16.658a4.65 4.65 0 01-5.265-.631 4.677 4.677 0 01-1.122-1.497l1.081-7.467z" fill="#F7F7FC"/><path d="M312.749 143.287c.068 0 .088.089 0 .118-3.135 1.498-4.638 4.581-5.641 7.753.885-1.251 2.142-1.97 3.803-.985.088.049 0 .187-.079.177a2.843 2.843 0 00-3.085 1.192 13.172 13.172 0 00-1.356 2.64c-.138.296-.658.178-.57-.157a.176.176 0 010-.079c-.275-4.069 2.555-9.979 6.928-10.659z" fill="#1C1C1E"/><path d="M307.118 154.871a1.285 1.285 0 00.861 1.147 1.277 1.277 0 001.385-.359 1.29 1.29 0 00.198-1.421 1.288 1.288 0 00-1.235-.726 1.288 1.288 0 00-.487.124 1.292 1.292 0 00-.654.737c-.056.16-.078.329-.068.498zM310.204 152.734a.829.829 0 00.548.739.824.824 0 001.02-1.138.824.824 0 00-.792-.467.807.807 0 00-.569.27.82.82 0 00-.207.596z" fill="#fff"/><path d="M220.786 206.493l-14.271 3.324 10.265 44.292 14.271-3.324-10.265-44.292z" fill="url(#paint22_linear)"/><path d="M186 88.93a61.873 61.873 0 00-31.13 17.996 62.128 62.128 0 00-15.914 32.298 62.21 62.21 0 004.663 35.72 62.022 62.022 0 0023.669 27.105 61.796 61.796 0 0034.7 9.358 61.812 61.812 0 0034.04-11.542 62.047 62.047 0 0021.91-28.554 62.204 62.204 0 002.397-35.943 62.142 62.142 0 00-9.946-22.082 61.98 61.98 0 00-17.622-16.58 61.811 61.811 0 00-22.612-8.553A61.752 61.752 0 00186 88.93zm25.076 108.233a48.787 48.787 0 01-28.329-1.878 48.905 48.905 0 01-22.512-17.342 49.092 49.092 0 01-9.107-26.958 49.108 49.108 0 017.371-27.486 48.925 48.925 0 0121.361-18.747 48.78 48.78 0 0128.152-3.688 48.854 48.854 0 0125.45 12.614 49.055 49.055 0 0114.168 24.665 49.12 49.12 0 01-6.131 36.996 48.902 48.902 0 01-30.423 21.824z" fill="url(#paint23_linear)"/><path d="M225.656 238.253l-9.572 2.229c-3.314.772-5.377 4.091-4.606 7.414l12.242 52.822c.77 3.323 4.081 5.391 7.395 4.619l9.571-2.23c3.315-.772 5.377-4.091 4.607-7.414l-12.242-52.822c-.77-3.323-4.081-5.39-7.395-4.618z" fill="#1C1C1E"/><g opacity=".3"><path opacity=".3" d="M247.63 138.321a49.123 49.123 0 01-1.889 28.387 48.994 48.994 0 01-17.301 22.552 48.81 48.81 0 01-26.884 9.117 48.805 48.805 0 01-27.405-7.392 48.97 48.97 0 01-18.69-21.409 49.114 49.114 0 01-3.678-28.211 49.059 49.059 0 0112.575-25.505 48.856 48.856 0 0124.59-14.204 48.748 48.748 0 0119.069-.612 48.796 48.796 0 0117.85 6.754 48.922 48.922 0 0113.911 13.09 49.073 49.073 0 017.852 17.433z" fill="#fff"/><path opacity=".3" d="M248.829 152.133a49.088 49.088 0 01-16.062 33.655 48.844 48.844 0 01-35.035 12.585l51.097-46.24z" fill="url(#paint24_linear)"/><path opacity=".3" d="M226.336 108.107l-69.992 63.332a48.847 48.847 0 01-3.931-10.945 48.223 48.223 0 01-1.218-13.269l51.676-46.762a48.737 48.737 0 0123.465 7.644z" fill="url(#paint25_linear)"/><path opacity=".3" d="M246.284 133.623l-66.671 60.317a48.728 48.728 0 01-8.284-4.857l70.995-64.228a47.504 47.504 0 013.96 8.768z" fill="url(#paint26_linear)"/><path opacity=".3" d="M231.711 112.108l-71.987 65.115c-.334-.493-.668-.985-.983-1.488l71.575-64.75c.491.355.953.719 1.395 1.123z" fill="url(#paint27_linear)"/><path opacity=".3" d="M186.57 102.276l-31.936 28.883a44.832 44.832 0 011.818-4.009l25.971-23.504a54.999 54.999 0 014.147-1.37z" fill="url(#paint28_linear)"/></g><path d="M165.306 157.886a1.296 1.296 0 010-.197c-.177-.985.127.936 0 .296-.128-.641-.197-1.518-.256-2.276a47.732 47.732 0 010-8.038c0-.385.069-.759.098-1.133 0-.118-.108.886 0 .088l.089-.689c.118-.887.265-1.773.442-2.65a43.997 43.997 0 011.503-5.704c.148-.443.315-.886.472-1.33.206-.6-.275.66.049-.128l.324-.778c.423-.985.885-1.97 1.376-2.955.491-.985 1.13-2.039 1.749-3.014.295-.454.59-.897.894-1.34.521-.759-.245.305.158-.227l.579-.768a45.123 45.123 0 015.975-6.206s.452-.365.118-.089.176-.148.235-.197l.983-.778a31.17 31.17 0 012.014-1.419 50.897 50.897 0 014.462-2.669 3.706 3.706 0 00.169-6.152 3.682 3.682 0 00-4.1-.113c-9.708 5.191-17.687 13.387-21.696 23.721a51.014 51.014 0 00-3.39 21.859c.098 1.654.308 3.299.628 4.925.28.938.919 1.726 1.777 2.193a3.685 3.685 0 002.803.299 3.805 3.805 0 002.154-1.805 3.822 3.822 0 00.332-2.795l.059.069zM168.568 168.367a3.634 3.634 0 01-1.189 3.847 3.613 3.613 0 01-5.476-1.124 3.634 3.634 0 01.414-4.005 3.614 3.614 0 015.595.027c.299.371.522.798.656 1.255z" fill="#fff"/><path d="M324.933 199.428c8.844 32.055 13.089 64.238 8.195 80.836-3.125 10.58-10.661 17.732-15.457 20.096-11.211 5.556-48.404-2.325-72.635-7.211-5.955-1.202 8.087-49.303 14.071-46.752 8.844 3.753 35.915 8.816 36.662 9.063 1.601.551 4.913-34.232 7.252-54.623 3.232-28.41 16.812-19.919 21.912-1.409z" fill="#F7F7FC"/><path d="M198.469 237.234c-2.633 4.305.786 8.245.786 8.245a10.749 10.749 0 00-5.031 5.31c-1.582 4.137 4.196 8.442 4.196 8.442a13.214 13.214 0 00-4.412 6.443c-1.12 4.117 4.097 9.289 4.097 9.289a11.665 11.665 0 00-.324 8.117c2.604 7.004 13.757 9.3 20.832 10.836 7.075 1.537 28.575-.788 32.721-.808l10.17-45.442s-29.783-15.909-38.322-16.52c-7.262-.492-21.755 1.261-24.713 6.088z" fill="#F7F7FC"/><path d="M199.727 244.819c7.861-1.29 15.584-.206 23.396.434a.139.139 0 01.138.138.138.138 0 01-.041.097.135.135 0 01-.097.041c-7.772-.729-15.584.088-23.357-.325a.2.2 0 01-.176-.176.195.195 0 01.137-.209zM198.705 258.67a20.23 20.23 0 015.385.345c1.893.25 3.783.532 5.67.847 3.779.657 7.54 1.383 11.28 2.177.167 0 .157.296 0 .266a278.661 278.661 0 00-11.33-1.645 366.227 366.227 0 00-5.699-.65 24.27 24.27 0 01-5.336-.818.276.276 0 01.03-.522zM198.263 274.983c1.533-.266 3.321.285 4.834.571 1.72.325 3.43.63 5.149.936 3.439.611 6.879 1.211 10.337 1.704.167 0 .148.296 0 .266-3.517-.473-7.035-.906-10.543-1.409a460.53 460.53 0 01-5.169-.778c-1.464-.226-3.311-.345-4.618-1.113a.098.098 0 01-.051-.092.095.095 0 01.018-.051.102.102 0 01.043-.034z" fill="#1C1C1E"/><path d="M208.177 232.525c-3.567.463-7.654 1.251-9.963 4.295a6.473 6.473 0 00-1.465 4.62 6.225 6.225 0 002.202 3.99 7.953 7.953 0 00-3.656 2.464 7.993 7.993 0 00-1.788 4.037 5.446 5.446 0 001.405 4.108c.491.581 1.051 1.093 1.592 1.625.54.532 1.14.985 1.7 1.448a15.01 15.01 0 00-1.7 1.557c-.59.568-1.12 1.195-1.582 1.872a8.369 8.369 0 00-1.553 4.58 8.234 8.234 0 001.631 4.522 9.367 9.367 0 003.273 3.29c.016.008.036.01.054.005a.084.084 0 00.045-.031.083.083 0 00.013-.053.076.076 0 00-.024-.049 13.553 13.553 0 01-2.663-3.359 8.65 8.65 0 01-1.346-4.473 8.974 8.974 0 011.474-4.206c.416-.681.869-1.338 1.356-1.97.485-.517.938-1.063 1.356-1.635 0 0-1.169-1.242-1.582-1.773a23.276 23.276 0 01-1.189-1.685 5.448 5.448 0 01-.983-3.812 7.033 7.033 0 011.651-3.389c.825-.985 1.897-1.763 2.761-2.729a.436.436 0 00.049-.344c-1.965-3.074-1.719-5.99.384-8.265a13.331 13.331 0 013.704-2.69 32.987 32.987 0 014.913-1.783c.069-.01.04-.177-.069-.167zM273.326 298.714c-2.093-.65-4.304-.985-6.446-1.458a337.923 337.923 0 00-6.466-1.349 559.081 559.081 0 00-6.613-1.281c-2.201-.414-4.255-.877-6.397-1.133a26.226 26.226 0 00-6.21.138c-2.077.237-4.16.404-6.25.503-4.21.203-8.429.111-12.627-.276a85.246 85.246 0 01-14.061-2.512c-.098 0-.128.118 0 .147a76.244 76.244 0 0024.792 3.941 63.03 63.03 0 006.249-.335 55.419 55.419 0 016.25-.532c2.211.146 4.407.476 6.564.985 2.171.404 4.333.818 6.505 1.202 2.456.433 4.913.877 7.379 1.261 2.467.384 4.913.936 7.331 1.113.176-.039.186-.365 0-.414zM303.846 257.45c-3.144-1.074-6.466-1.744-9.699-2.522a786.691 786.691 0 00-9.757-2.266c-6.21-1.409-12.499-2.601-18.67-4.324-1.621-.454-3.223-.986-4.805-1.517a21.95 21.95 0 01-2.349-.986c-.776-.384-1.67-.62-2.436-.985-.089-.059-.158.079-.069.138.619.384 1.189.847 1.827 1.222.639.374 1.415.748 2.143 1.083a40.219 40.219 0 004.078 1.606c2.888.985 5.895 1.665 8.843 2.354a1616.637 1616.637 0 0019.486 4.364c1.827.394 3.665.788 5.502 1.153 1.838.364 3.842.818 5.788 1.034a.185.185 0 00.227-.121.188.188 0 00-.109-.233z" fill="#1C1C1E"/><path d="M293.617 245.528l44.945 6.127s-8.215-46.841-16.95-62.356c-8.618-15.308-18.13-5.191-21.755 13.328-4.069 20.53-6.24 42.901-6.24 42.901z" fill="url(#paint29_linear)"/><path d="M335.192 244.868c-1.258-.296-2.545-.483-3.803-.759s-2.466-.463-3.705-.66c-2.525-.394-5.06-.749-7.595-1.093-4.992-.69-9.974-1.448-14.985-1.971-2.85-.315-5.69-.738-8.539-.985a.079.079 0 00-.079.079.079.079 0 00.079.079c4.962 1.162 10.022 2.029 15.053 2.847 5.032.818 9.984 1.586 14.995 2.138 1.406.147 2.811.334 4.226.403s2.898.197 4.343.227c.04.001.08-.014.109-.041a.154.154 0 00.007-.216.15.15 0 00-.106-.048z" fill="#1C1C1E"/><path d="M359.816 74.92a30.097 30.097 0 01-6.07 15.227 29.995 29.995 0 01-13.138 9.77 29.919 29.919 0 01-16.297 1.403 29.958 29.958 0 01-14.608-7.378l-15.015 2.216 7.517-13.013a30.158 30.158 0 011.758-26.34 30.056 30.056 0 019.192-9.93 29.935 29.935 0 0126.069-3.72 29.999 29.999 0 0111.592 6.964 30.095 30.095 0 017.368 11.355 30.16 30.16 0 011.652 13.446h-.02z" fill="url(#paint30_linear)"/><path d="M315.303 85.847a2.97 2.97 0 01.814-2.18 2.946 2.946 0 012.134-.913c.819 0 1.603.326 2.182.906a3.096 3.096 0 01-2.182 5.28 2.94 2.94 0 01-2.764-1.92 2.97 2.97 0 01-.184-1.173zm1.248-7.132l-.697-23.947h4.775l-.737 23.918-3.341.03z" fill="url(#paint31_linear)"/><path d="M326.771 85.847a2.95 2.95 0 012.947-3.093 3.08 3.08 0 012.182.906 3.096 3.096 0 01-2.182 5.28 2.936 2.936 0 01-2.134-.913 2.955 2.955 0 01-.813-2.18zm1.247-7.132l-.697-23.947h4.775l-.697 23.947h-3.381z" fill="url(#paint32_linear)"/><path d="M338.199 85.847a2.95 2.95 0 012.947-3.093 3.08 3.08 0 012.182.906 3.096 3.096 0 01-2.182 5.28 2.936 2.936 0 01-2.134-.913 2.955 2.955 0 01-.813-2.18zm1.247-7.132l-.697-23.947h4.775l-.697 23.947h-3.381z" fill="url(#paint33_linear)"/><defs><linearGradient id="paint0_linear" x1="64.169" y1="240.629" x2="64.169" y2="292.435" gradientUnits="userSpaceOnUse"><stop stop-color="#00E4E4"/><stop offset="1" stop-color="#00B373"/></linearGradient><linearGradient id="paint1_linear" x1="76.743" y1="230.044" x2="76.743" y2="247.493" gradientUnits="userSpaceOnUse"><stop stop-color="#FC0"/><stop offset="1" stop-color="#FFF5CC"/></linearGradient><linearGradient id="paint2_linear" x1="74.962" y1="233.163" x2="74.962" y2="243.641" gradientUnits="userSpaceOnUse"><stop stop-color="#FC0"/><stop offset="1" stop-color="#FFF5CC"/></linearGradient><linearGradient id="paint3_linear" x1="46.997" y1="239.316" x2="46.997" y2="290.616" gradientUnits="userSpaceOnUse"><stop stop-color="#00E4E4"/><stop offset="1" stop-color="#00B373"/></linearGradient><linearGradient id="paint4_linear" x1="33.444" y1="229.104" x2="33.444" y2="246.533" gradientUnits="userSpaceOnUse"><stop stop-color="#FC0"/><stop offset="1" stop-color="#FFF5CC"/></linearGradient><linearGradient id="paint5_linear" x1="35.139" y1="232.228" x2="35.139" y2="242.302" gradientUnits="userSpaceOnUse"><stop stop-color="#FC0"/><stop offset="1" stop-color="#FFF5CC"/></linearGradient><linearGradient id="paint6_linear" x1="53.257" y1="225.432" x2="53.257" y2="293.284" gradientUnits="userSpaceOnUse"><stop stop-color="#00E4E4"/><stop offset="1" stop-color="#00B373"/></linearGradient><linearGradient id="paint7_linear" x1="68.108" y1="210.604" x2="68.108" y2="230.81" gradientUnits="userSpaceOnUse"><stop stop-color="#FC0"/><stop offset="1" stop-color="#FFF5CC"/></linearGradient><linearGradient id="paint8_linear" x1="66.719" y1="214.234" x2="66.719" y2="231.023" gradientUnits="userSpaceOnUse"><stop stop-color="#FC0"/><stop offset="1" stop-color="#FFF5CC"/></linearGradient><linearGradient id="paint9_linear" x1="57.289" y1="276.468" x2="57.289" y2="322.324" gradientUnits="userSpaceOnUse"><stop stop-color="#B5DBFF"/><stop offset="1" stop-color="#76E2F8"/></linearGradient><linearGradient id="paint10_linear" x1="65.608" y1="70.078" x2="65.608" y2="230.976" gradientUnits="userSpaceOnUse"><stop stop-color="#4560E6"/><stop offset="1" stop-color="#262680"/></linearGradient><linearGradient id="paint11_linear" x1="65.608" y1="72.064" x2="65.608" y2="230.976" gradientUnits="userSpaceOnUse"><stop stop-opacity="0"/><stop offset="1"/></linearGradient><linearGradient id="paint12_linear" x1="61.647" y1="69.879" x2="61.647" y2="222.971" gradientUnits="userSpaceOnUse"><stop stop-color="#4560E6"/><stop offset="1" stop-color="#262680"/></linearGradient><linearGradient id="paint13_linear" x1="202.316" y1="69.816" x2="202.316" y2="231.245" gradientUnits="userSpaceOnUse"><stop stop-color="#4560E6"/><stop offset="1" stop-color="#262680"/></linearGradient><linearGradient id="paint14_linear" x1="202.316" y1="71.809" x2="202.316" y2="231.245" gradientUnits="userSpaceOnUse"><stop stop-opacity="0"/><stop offset="1"/></linearGradient><linearGradient id="paint15_linear" x1="198.228" y1="69.879" x2="198.228" y2="222.971" gradientUnits="userSpaceOnUse"><stop stop-color="#4560E6"/><stop offset="1" stop-color="#262680"/></linearGradient><linearGradient id="paint16_linear" x1="334.159" y1="70.078" x2="334.159" y2="230.996" gradientUnits="userSpaceOnUse"><stop stop-color="#4560E6"/><stop offset="1" stop-color="#262680"/></linearGradient><linearGradient id="paint17_linear" x1="334.159" y1="72.064" x2="334.159" y2="230.996" gradientUnits="userSpaceOnUse"><stop stop-opacity="0"/><stop offset="1"/></linearGradient><linearGradient id="paint18_linear" x1="330.165" y1="69.879" x2="330.165" y2="222.971" gradientUnits="userSpaceOnUse"><stop stop-color="#4560E6"/><stop offset="1" stop-color="#262680"/></linearGradient><linearGradient id="paint19_linear" x1="276.688" y1="180.425" x2="276.688" y2="247.183" gradientUnits="userSpaceOnUse"><stop stop-color="#00E4E4"/><stop offset="1" stop-color="#00B373"/></linearGradient><linearGradient id="paint20_linear" x1="325.404" y1="178.011" x2="325.404" y2="322.266" gradientUnits="userSpaceOnUse"><stop stop-color="#00E4E4"/><stop offset="1" stop-color="#00B373"/></linearGradient><linearGradient id="paint21_linear" x1="277.633" y1="154.684" x2="277.633" y2="156.798" gradientUnits="userSpaceOnUse"><stop stop-color="#FC0"/><stop offset="1" stop-color="#FFF5CC"/></linearGradient><linearGradient id="paint22_linear" x1="213.65" y1="208.155" x2="223.964" y2="252.436" gradientUnits="userSpaceOnUse"><stop stop-color="#FC0"/><stop offset="1" stop-color="#FFF5CC"/></linearGradient><linearGradient id="paint23_linear" x1="200.028" y1="87.316" x2="200.028" y2="211.438" gradientUnits="userSpaceOnUse"><stop stop-color="#FC0"/><stop offset="1" stop-color="#FFF5CC"/></linearGradient><linearGradient id="paint24_linear" x1="223.28" y1="152.133" x2="223.28" y2="198.425" gradientUnits="userSpaceOnUse"><stop stop-color="#EDF5FF"/><stop offset="1" stop-color="#D8ECFF"/></linearGradient><linearGradient id="paint25_linear" x1="188.739" y1="100.463" x2="188.739" y2="171.439" gradientUnits="userSpaceOnUse"><stop stop-color="#EDF5FF"/><stop offset="1" stop-color="#D8ECFF"/></linearGradient><linearGradient id="paint26_linear" x1="208.806" y1="124.855" x2="208.806" y2="193.94" gradientUnits="userSpaceOnUse"><stop stop-color="#EDF5FF"/><stop offset="1" stop-color="#D8ECFF"/></linearGradient><linearGradient id="paint27_linear" x1="195.226" y1="110.985" x2="195.226" y2="177.223" gradientUnits="userSpaceOnUse"><stop stop-color="#EDF5FF"/><stop offset="1" stop-color="#D8ECFF"/></linearGradient><linearGradient id="paint28_linear" x1="170.602" y1="102.276" x2="170.602" y2="131.159" gradientUnits="userSpaceOnUse"><stop stop-color="#EDF5FF"/><stop offset="1" stop-color="#D8ECFF"/></linearGradient><linearGradient id="paint29_linear" x1="316.09" y1="181.833" x2="316.09" y2="251.655" gradientUnits="userSpaceOnUse"><stop stop-color="#00E4E4"/><stop offset="1" stop-color="#00B373"/></linearGradient><linearGradient id="paint30_linear" x1="327.344" y1="41.695" x2="327.344" y2="101.864" gradientUnits="userSpaceOnUse"><stop stop-color="#FC0"/><stop offset="1" stop-color="#FFF5CC"/></linearGradient><linearGradient id="paint31_linear" x1="329.766" y1="54.34" x2="329.766" y2="88.94" gradientUnits="userSpaceOnUse"><stop stop-color="#4560E6"/><stop offset="1" stop-color="#262680"/></linearGradient><linearGradient id="paint32_linear" x1="329.766" y1="54.34" x2="329.766" y2="88.94" gradientUnits="userSpaceOnUse"><stop stop-color="#4560E6"/><stop offset="1" stop-color="#262680"/></linearGradient><linearGradient id="paint33_linear" x1="329.766" y1="54.34" x2="329.766" y2="88.94" gradientUnits="userSpaceOnUse"><stop stop-color="#4560E6"/><stop offset="1" stop-color="#262680"/></linearGradient></defs></svg>