<svg width="160" height="48" fill="none" xmlns="http://www.w3.org/2000/svg"><path d="M0 4a4 4 0 014-4h152a4 4 0 014 4v40a4 4 0 01-4 4H4a4 4 0 01-4-4V4z" fill="#fff"/><path d="M63.2 36.8h-2.426l-1.33-4.23h-4.617L53.56 36.8h-2.362l4.576-14.4H58.6L63.2 36.8zm-4.156-6.004l-1.201-3.76c-.127-.384-.366-1.289-.717-2.713h-.043c-.14.613-.365 1.517-.675 2.713l-1.18 3.76h3.816zM74.4 31.526c0 1.714-.459 3.07-1.375 4.065-.82.886-1.84 1.328-3.056 1.328-1.314 0-2.257-.476-2.831-1.43h-.042V40.8h-2.215V29.927c0-1.078-.028-2.185-.082-3.32h1.948l.124 1.599h.041c.739-1.204 1.86-1.806 3.364-1.806 1.176 0 2.158.47 2.943 1.41.788.942 1.18 2.18 1.18 3.716zm-2.257.081c0-.981-.218-1.79-.657-2.427-.479-.664-1.122-.996-1.928-.996-.546 0-1.043.185-1.486.55a2.554 2.554 0 00-.872 1.442 2.962 2.962 0 00-.103.683v1.682c0 .733.223 1.352.667 1.858.445.505 1.022.757 1.733.757.834 0 1.483-.326 1.948-.975.465-.65.698-1.508.698-2.574zM86.4 31.526c0 1.714-.459 3.07-1.376 4.065-.82.886-1.84 1.328-3.056 1.328-1.313 0-2.257-.476-2.83-1.43h-.042V40.8h-2.215V29.927c0-1.078-.028-2.185-.082-3.32h1.948l.124 1.599h.041c.738-1.204 1.86-1.806 3.365-1.806 1.175 0 2.156.47 2.944 1.41.784.942 1.178 2.18 1.178 3.716zm-2.257.081c0-.981-.22-1.79-.658-2.427-.479-.664-1.12-.996-1.927-.996-.548 0-1.044.185-1.488.55a2.552 2.552 0 00-.87 1.442 3.024 3.024 0 00-.104.683v1.682c0 .733.223 1.352.665 1.858.445.504 1.023.757 1.735.757.835 0 1.484-.326 1.948-.975.466-.65.699-1.508.699-2.574zM100 32.67c0 1.19-.42 2.158-1.26 2.906-.925.817-2.211 1.224-3.864 1.224-1.527 0-2.75-.29-3.677-.871l.527-1.868a6.295 6.295 0 003.285.894c.856 0 1.522-.192 2-.572.477-.38.715-.892.715-1.528 0-.568-.197-1.046-.59-1.434-.39-.388-1.044-.748-1.957-1.082-2.483-.913-3.724-2.251-3.724-4.01 0-1.15.435-2.093 1.306-2.827.867-.735 2.025-1.102 3.472-1.102 1.291 0 2.364.222 3.22.665l-.569 1.826c-.8-.428-1.703-.643-2.715-.643-.799 0-1.424.195-1.871.581a1.65 1.65 0 00-.568 1.267 1.7 1.7 0 00.65 1.37c.38.332 1.067.691 2.065 1.08 1.22.484 2.116 1.05 2.693 1.7.575.647.861 1.458.861 2.425zM107.199 28.194h-2.573v4.895c0 1.245.453 1.867 1.362 1.867a4.32 4.32 0 001.037-.105l.065 1.701c-.46.165-1.066.248-1.816.248-.922 0-1.643-.27-2.163-.809-.518-.54-.779-1.445-.779-2.718v-5.082h-1.533v-1.68h1.533v-1.847l2.294-.664v2.51h2.573v1.683zM118.399 31.507c0 1.533-.431 2.791-1.291 3.775-.902 1.013-2.099 1.518-3.591 1.518-1.438 0-2.583-.485-3.437-1.455-.854-.97-1.281-2.196-1.281-3.672 0-1.545.439-2.811 1.321-3.795.879-.985 2.066-1.478 3.558-1.478 1.438 0 2.596.486 3.469 1.457.835.943 1.252 2.16 1.252 3.65zm-2.259.072c0-.92-.193-1.708-.584-2.366-.457-.796-1.11-1.193-1.955-1.193-.876 0-1.54.398-1.997 1.193-.391.659-.584 1.46-.584 2.408 0 .92.193 1.708.584 2.365.471.796 1.129 1.192 1.977 1.192.832 0 1.484-.405 1.955-1.213.402-.67.604-1.467.604-2.386zM126.399 28.6a4.14 4.14 0 00-.733-.062c-.818 0-1.451.3-1.896.903-.387.53-.581 1.202-.581 2.012V36.8h-2.324l.021-6.981a53.8 53.8 0 00-.087-3.208h2.026l.085 1.95h.064c.246-.67.633-1.21 1.163-1.615a2.863 2.863 0 011.681-.546c.215 0 .409.015.581.042V28.6zM135.999 31.147c0 .398-.026.733-.08 1.007h-6.6c.026.987.344 1.742.957 2.262.557.466 1.276.699 2.159.699.977 0 1.869-.157 2.671-.473l.344 1.541c-.937.412-2.043.617-3.319.617-1.536 0-2.741-.456-3.618-1.367-.875-.91-1.314-2.134-1.314-3.669 0-1.506.408-2.76 1.224-3.761.854-1.069 2.009-1.603 3.462-1.603 1.427 0 2.508.535 3.241 1.603.581.848.873 1.898.873 3.144zm-2.098-.576c.015-.658-.129-1.226-.427-1.706-.381-.618-.966-.926-1.753-.926-.719 0-1.304.301-1.751.905-.366.48-.584 1.056-.651 1.726h4.582v.001z" fill="#48484A"/><g opacity=".8" fill="#8E8E93"><path d="M53.703 16v-4.627h1.701v-.823H51v.823h1.701V16h1.002zM59.454 16h1.056l-1.988-5.45h-1.13L55.403 16h1.034l.477-1.409h2.062L59.454 16zm-1.522-4.487h.027l.78 2.326h-1.592l.785-2.326zm-.66-2.251c.112-.046.275-.068.403-.068.214 0 .362.11.362.268 0 .162-.148.32-.365.389l.295.362c.407-.147.687-.457.687-.8 0-.427-.342-.692-.858-.692-.19 0-.389.034-.524.095v.446zM62.592 16v-5.45H61.59V16h1.002zM72.094 10.55h-1.158l-1.716 4.113h-.031l-1.717-4.113h-1.16V16h.904v-3.868h.027l1.62 3.823h.683l1.62-3.823h.027V16h.9v-5.45zM74.563 16v-5.45h-1.002V16h1.002zM78.341 8.982c.455 0 .785-.355.785-.925h-.536c-.012.283-.097.43-.28.43-.271 0-.38-.487-.94-.487-.47 0-.792.336-.792.914h.536c.016-.283.093-.427.284-.427.318 0 .396.495.944.495zm-.897.223l-1.021.891h.831l.563-.494h.047l.563.494h.831l-1.021-.891h-.793zm2.21 5.972H77.03V13.62h2.481v-.774H77.03v-1.473h2.625v-.823h-3.627V16h3.627v-.823zM81.968 16v-3.822h.035L84.788 16h.862v-5.45h-.963v3.818h-.035l-2.78-3.818h-.87V16h.966zM89.373 10.55V16h1.002v-1.802h1.216c1.134 0 1.926-.736 1.926-1.824s-.773-1.824-1.883-1.824h-2.26zm1.002.797h.995c.718 0 1.13.373 1.13 1.027 0 .66-.416 1.039-1.134 1.039h-.99v-2.066zM99.455 16v-5.45h-.998v2.266H95.73V10.55h-1.002V16h1.002v-2.364h2.727V16h.998zM101.924 16v-5.45h-1.002V16h1.002zm-.124-5.862l1.083-1.156h-.955l-.897 1.156h.769zM108.04 16v-4.627h1.701v-.823h-4.404v.823h1.701V16h1.002zM111.9 11.339h1.134c.637 0 1.025.355 1.025.93 0 .588-.365.932-1.002.932H111.9V11.34zm0 2.61h1.11L114.109 16h1.146l-1.223-2.198c.668-.234 1.056-.835 1.056-1.556 0-1.043-.726-1.696-1.938-1.696h-2.252V16h1.002v-2.051zM117.81 8.99l-1.091 1.17h.788l.676-.747h.015l.676.748h.788l-1.091-1.171h-.761zm2.194 6.187h-2.625V13.62h2.482v-.774h-2.482v-1.473h2.625v-.823h-3.627V16h3.627v-.823zM122.318 16v-3.822h.035L125.138 16H126v-5.45h-.963v3.818h-.035l-2.781-3.818h-.87V16h.967z"/></g><path d="M33.375 23.827c-.03-3.285 2.797-4.883 2.926-4.957-1.601-2.246-4.083-2.552-4.956-2.577-2.085-.21-4.107 1.2-5.169 1.2-1.083 0-2.719-1.18-4.481-1.145-2.269.034-4.39 1.297-5.554 3.257-2.402 3.999-.61 9.874 1.69 13.106 1.151 1.582 2.496 3.35 4.257 3.287 1.722-.068 2.366-1.055 4.444-1.055 2.06 0 2.664 1.055 4.46 1.016 1.848-.029 3.012-1.59 4.122-3.187 1.33-1.814 1.865-3.6 1.886-3.693-.044-.014-3.59-1.315-3.625-5.252zM29.983 14.167c.927-1.114 1.56-2.63 1.384-4.167-1.34.057-3.017.892-3.983 1.981-.854.96-1.617 2.534-1.42 4.014 1.506.108 3.053-.731 4.02-1.828z" fill="#1C1C1E"/></svg>