<svg width="1920" height="1080" fill="none" xmlns="http://www.w3.org/2000/svg"><path fill="#F0F7FF" d="M0 0h1920v1080H0z"/><g clip-path="url(#clip0)"><path d="M-238.166 722.841v119.955h8.574v200.764h291.77v-88.99h11.885V834.615h14.029v-79.369h27.083v-43.472h3.702v43.472h8.378v-34.814h3.897v34.814h42.671v47.08h7.793v32.289h21.628V954.57h8.573v88.99h71.671l-17.124-354.811 155.875 29.943v324.868H726V1080H-929v-36.44h405.469V776.415h-2.143v-3.067h15.003v-18.76h-1.949v-2.886h13.64V741.24h-2.144v-2.345h6.819v-10.101h6.625v-20.023h2.144v20.023h2.727v-36.077h2.144v36.077h6.429v10.101h5.845v2.345h-1.168v10.462h13.834v2.886h-1.949v18.76h15.003v3.067h-2.143v267.145h65.582V842.796h11.885V722.841h14.029v-79.369h27.083V600h3.702v43.472h8.378v-34.814h3.897v34.814h42.671v47.08h7.794v32.289h21.627z" fill="url(#paint0_linear)"/><path d="M-755.784 787.779h3.702v241.711h126.453V787.779h3.507v-6.855h-7.793v-8.838h-62.156v-13.529h-23.875l-3.597-8.658h-5.846v-15.694h-1.149c1.353-.009 2.318-.908 2.318-2.164 0-1.263-1.169-2.165-2.338-2.165-1.364 0-2.338.902-2.338 2.165 0 1.256.964 2.155 2.318 2.164h-1.344v15.694h-10.911v22.187h-9.158v8.838h-7.793v6.855z" fill="url(#paint1_linear)"/><path d="M-15.346 769.388v-59.555h-23.386v-22.645H-51.4v-18.9h-4.482v-32.631h-1.17v32.631h-4.287v18.9h-12.668v22.645h-23.386v59.555h-4.872v108.055h-36.054v95.216h-120.246V788.467h9.55v-2.853h-9.55v-5.171h-12.082v-8.559h-100.172v8.559h-12.278v5.171h-9.744v2.853h9.744v114.652h-16.37v-21.397h-100.952v26.211h-22.022v48.857h-35.664V796.847h-11.889v-10.876h-9.549v-28.708h-1.949v28.708h-4.482v-36.018h-1.949v36.018h-5.457v10.876h-2.923V956.79h-73.667v-93.612h3.507v-6.419h-22.997v-17.296h-10.913v17.296h-9.744v-17.296h-9.939v17.296h-19.294v-17.296h-59.051v17.296h-13.642v6.419h7.796v35.305h-21.828v79.703h-29.817V956.79h-33.325v46.54h-40.342v19.79H-989V1080H749v-56.88h-53.009v-32.452h-49.805L627.391 863h-2.924v-15.335h-9.939V863h-2.338v-5.706h-7.016V863h-14.227v-13.374h-4.093v-9.271h-28.259v9.271h-3.897V863H550.8v76.672h-25.14V745.316h-8.185v-42.793h-2.728v42.793h-6.237v-59.198h-2.729v59.198h-5.262v-32.095h-2.728v32.095h-48.722v138.011h-54.178v89.332H128.09v-45.825h-13.251v-87.193h5.067v-1.961H6.092v1.961h5.067v44.042H.05l-10.719 50.236V769.388h-4.677z" fill="url(#paint2_linear)"/><path d="M496.108 788.929c-.929 0-1.858-.884-1.858-2.122 0-1.237.929-2.121 1.858-2.121s1.859.884 1.859 2.121c0 1.238-.93 2.122-1.859 2.122z" fill="url(#paint3_linear)"/><path d="M676.367 973.076v-61.948h3.716v-5.941h-12.079v-23.761h-1.858v23.761h-8.363v-19.518h-1.858v19.518H605.75v5.941h2.787v125.592h-57.608v-56.007h-32.521V841.542h2.788v-6.789h-6.504v-8.486h-8.363v-3.394h.929v-18.67h-9.291v-15.274h-1.859v15.274h-5.527l-2.978 8.486h-20.299v13.578h-52.033v8.486h-6.504v6.789h3.716v90.801h-44.6v88.557l-48.316-19.45v-86.079H327v-6.789h-13.008V891.61h-59.467v16.972h-19.513V891.61h-10.22v16.972H215.5V891.61h-11.15v16.972h-23.229v6.789h4.646v118.809h-23.23v-.85h-2.787v-33.948h2.787v-2.545h-2.787v-34.793h2.787v-2.546h-2.787v-33.944h2.787v-2.546h-2.787v-33.944h2.787v-2.546h-2.787v-34.793h2.787v-2.546h-2.787v-34.792h6.504v-2.546h2.788v-7.638h-64.113v-8.486h1.858v-2.545H71.479v2.545h1.859v8.486H56.613v7.638h3.716v2.546h7.434v34.792h-4.646v2.546h4.646v34.793h-4.646v2.546h4.646v33.944h-4.646v2.546h4.646v33.944h-4.646v2.546h4.646v34.793h-4.646v2.545h4.646v33.948h-4.646v2.54h4.646v28.01h-23.23V956.104h-89.2v78.076h-13.937V791.474h-11.15v5.29l-19.513 4.394v-3.743h-11.15v6.254l-19.512 4.395v-3.861h-11.15v6.372l-19.513 4.395v-3.129h-11.15v5.64l-19.512 4.394v-3.245h-11.15v239.31h-14.867V930.645h-55.75v78.075h-57.608v-67.043h-6.504v-21.215h3.716v-2.546H-342v-6.788h-1.858v6.788h-5.575v-35.641h-1.859v35.641h-7.433v2.546h4.646v21.215h-38.096v50.917h-36.804l-19.607 65.346h-38.364V845.741h-51.389v-7.471h2.931v-2.668h-38.884v2.668h3.127v164.51h-23.568v-54.314h7.433v-5.091h-60.396v-33.096h-11.15v-6.789h-26.016v6.789h-21.371v117.951h-69.688v-87.401h-57.608v69.581h-50.175v44.13h-36.238v-56.006h-47.387v47.526H-1011V1080H773v-32.25h-59.224l-12.078-74.674h-25.331z" fill="url(#paint4_linear)"/><path d="M1920.83 722.841v119.955h8.58v200.764h291.77v-88.99h11.88V834.615h14.03v-79.369h27.08v-43.472h3.71v43.472h8.38v-34.814h3.89v34.814h42.67v47.08h7.8v32.289h21.62V954.57h8.58v88.99h71.67l-17.13-354.811 155.88 29.943v324.868H2885V1080H1230v-36.44h405.47V776.415h-2.14v-3.067h15v-18.76h-1.95v-2.886h13.64V741.24h-2.14v-2.345h6.82v-10.101h6.62v-20.023h2.14v20.023h2.73v-36.077h2.14v36.077h6.43v10.101h5.85v2.345h-1.17v10.462h13.83v2.886h-1.94v18.76h15v3.067h-2.14v267.145h65.58V842.796h11.88V722.841h14.03v-79.369h27.09V600h3.7v43.472h8.38v-34.814h3.89v34.814h42.67v47.08h7.8v32.289h21.62z" fill="url(#paint5_linear)"/><path d="M1403.22 787.779h3.7v241.711h126.45V787.779h3.51v-6.855h-7.8v-8.838h-62.15v-13.529h-23.88l-3.59-8.658h-5.85v-15.694h-1.15c1.36-.009 2.32-.908 2.32-2.164 0-1.263-1.17-2.165-2.34-2.165-1.36 0-2.34.902-2.34 2.165 0 1.256.97 2.155 2.32 2.164h-1.34v15.694h-10.91v22.187h-9.16v8.838h-7.79v6.855z" fill="url(#paint6_linear)"/><path d="M2143.65 769.388v-59.555h-23.38v-22.645h-12.67v-18.9h-4.48v-32.631h-1.17v32.631h-4.29v18.9h-12.67v22.645h-23.38v59.555h-4.88v108.055h-36.05v95.216h-120.24V788.467h9.55v-2.853h-9.55v-5.171h-12.09v-8.559h-100.17v8.559h-12.28v5.171h-9.74v2.853h9.74v114.652h-16.37v-21.397h-100.95v26.211h-22.02v48.857h-35.66V796.847h-11.89v-10.876h-9.55v-28.708h-1.95v28.708h-4.48v-36.018h-1.95v36.018h-5.46v10.876h-2.92V956.79h-73.67v-93.612h3.51v-6.419h-23v-17.296h-10.91v17.296h-9.75v-17.296h-9.94v17.296h-19.29v-17.296h-59.05v17.296h-13.64v6.419h7.79v35.305h-21.82v79.703h-29.82V956.79h-33.33v46.54h-40.34v19.79H1170V1080h1738v-56.88h-53.01v-32.452h-49.8L2786.39 863h-2.92v-15.335h-9.94V863h-2.34v-5.706h-7.02V863h-14.22v-13.374h-4.1v-9.271h-28.25v9.271h-3.9V863h-3.9v76.672h-25.14V745.316h-8.18v-42.793h-2.73v42.793h-6.24v-59.198h-2.73v59.198h-5.26v-32.095h-2.73v32.095h-48.72v138.011h-54.18v89.332h-266.8v-45.825h-13.25v-87.193h5.07v-1.961h-113.82v1.961h5.07v44.042h-11.11l-10.72 50.236V769.388h-4.68z" fill="url(#paint7_linear)"/><path d="M2655.11 788.929c-.93 0-1.86-.884-1.86-2.122 0-1.237.93-2.121 1.86-2.121s1.86.884 1.86 2.121c0 1.238-.93 2.122-1.86 2.122z" fill="url(#paint8_linear)"/><path d="M2835.37 973.076v-61.948h3.71v-5.941H2827v-23.761h-1.85v23.761h-8.37v-19.518h-1.85v19.518h-50.18v5.941h2.79v125.592h-57.61v-56.007h-32.52V841.542h2.79v-6.789h-6.51v-8.486h-8.36v-3.394h.93v-18.67h-9.29v-15.274h-1.86v15.274h-5.53l-2.98 8.486h-20.3v13.578h-52.03v8.486h-6.5v6.789h3.71v90.801h-44.6v88.557l-48.31-19.45v-86.079h7.43v-6.789h-13.01V891.61h-59.46v16.972h-19.52V891.61h-10.22v16.972h-9.29V891.61h-11.15v16.972h-23.23v6.789h4.65v118.809h-23.23v-.85h-2.79v-33.948h2.79v-2.545h-2.79v-34.793h2.79v-2.546h-2.79v-33.944h2.79v-2.546h-2.79v-33.944h2.79v-2.546h-2.79v-34.793h2.79v-2.546h-2.79v-34.792h6.5v-2.546h2.79v-7.638h-64.11v-8.486h1.86v-2.545h-35.31v2.545h1.86v8.486h-16.73v7.638h3.72v2.546h7.43v34.792h-4.64v2.546h4.64v34.793h-4.64v2.546h4.64v33.944h-4.64v2.546h4.64v33.944h-4.64v2.546h4.64v34.793h-4.64v2.545h4.64v33.948h-4.64v2.54h4.64v28.01h-23.23V956.104h-89.2v78.076h-13.93V791.474h-11.15v5.29l-19.52 4.394v-3.743h-11.15v6.254l-19.51 4.395v-3.861h-11.15v6.372l-19.51 4.395v-3.129h-11.15v5.64l-19.51 4.394v-3.245h-11.15v239.31h-14.87V930.645h-55.75v78.075h-57.61v-67.043h-6.5v-21.215h3.71v-2.546H1817v-6.788h-1.86v6.788h-5.57v-35.641h-1.86v35.641h-7.43v2.546h4.64v21.215h-38.09v50.917h-36.81l-19.61 65.346h-38.36V845.741h-51.39v-7.471h2.93v-2.668h-38.88v2.668h3.12v164.51h-23.56v-54.314h7.43v-5.091h-60.4v-33.096h-11.15v-6.789h-26.01v6.789h-21.37v117.951h-69.69v-87.401h-57.61v69.581h-50.17v44.13h-36.24v-56.006h-47.39v47.526H1148V1080h1784v-32.25h-59.22l-12.08-74.674h-25.33z" fill="url(#paint9_linear)"/></g><defs><linearGradient id="paint0_linear" x1="-101.5" y1="600" x2="-101.5" y2="1080" gradientUnits="userSpaceOnUse"><stop stop-color="#E3F1FF"/><stop offset="1" stop-color="#F0F7FF"/></linearGradient><linearGradient id="paint1_linear" x1="-101.5" y1="600" x2="-101.5" y2="1080" gradientUnits="userSpaceOnUse"><stop stop-color="#E3F1FF"/><stop offset="1" stop-color="#F0F7FF"/></linearGradient><linearGradient id="paint2_linear" x1="-120" y1="635.657" x2="-120" y2="1080" gradientUnits="userSpaceOnUse"><stop stop-color="#D9ECFF"/><stop offset="1" stop-color="#F0F7FF"/></linearGradient><linearGradient id="paint3_linear" x1="-119" y1="784.686" x2="-119" y2="1080" gradientUnits="userSpaceOnUse"><stop stop-color="#D4E9FF"/><stop offset="1" stop-color="#F0F7FF"/></linearGradient><linearGradient id="paint4_linear" x1="-119" y1="784.686" x2="-119" y2="1080" gradientUnits="userSpaceOnUse"><stop stop-color="#D4E9FF"/><stop offset="1" stop-color="#F0F7FF"/></linearGradient><linearGradient id="paint5_linear" x1="2057.5" y1="600" x2="2057.5" y2="1080" gradientUnits="userSpaceOnUse"><stop stop-color="#E3F1FF"/><stop offset="1" stop-color="#F0F7FF"/></linearGradient><linearGradient id="paint6_linear" x1="2057.5" y1="600" x2="2057.5" y2="1080" gradientUnits="userSpaceOnUse"><stop stop-color="#E3F1FF"/><stop offset="1" stop-color="#F0F7FF"/></linearGradient><linearGradient id="paint7_linear" x1="2039" y1="635.657" x2="2039" y2="1080" gradientUnits="userSpaceOnUse"><stop stop-color="#D9ECFF"/><stop offset="1" stop-color="#F0F7FF"/></linearGradient><linearGradient id="paint8_linear" x1="2040" y1="784.686" x2="2040" y2="1080" gradientUnits="userSpaceOnUse"><stop stop-color="#D4E9FF"/><stop offset="1" stop-color="#F0F7FF"/></linearGradient><linearGradient id="paint9_linear" x1="2040" y1="784.686" x2="2040" y2="1080" gradientUnits="userSpaceOnUse"><stop stop-color="#D4E9FF"/><stop offset="1" stop-color="#F0F7FF"/></linearGradient><clipPath id="clip0"><path fill="#fff" transform="translate(0 600)" d="M0 0h1920v480H0z"/></clipPath></defs></svg>