<svg width="25" height="24" viewBox="0 0 25 24" fill="none" xmlns="http://www.w3.org/2000/svg">
<path d="M4.94522 4.00322L5.92074 3.35257C6.83483 2.74294 8.06809 2.94085 8.80248 3.81507L10.2641 5.55475C10.901 6.31292 11.0009 7.39296 10.5112 8.22493L9.14821 10.5402C9.58407 11.5617 10.2599 12.4959 11.1756 13.3428C12.0914 14.1897 13.1054 14.8184 14.2179 15.2288L16.2701 13.8228C17.048 13.2899 18.086 13.3411 18.8459 13.9501L20.616 15.3688C21.4994 16.0766 21.7581 17.332 21.2216 18.3056L20.6465 19.3489C20.0742 20.3874 18.9985 21.0163 17.8227 20.9997C15.0468 20.9605 12.0134 19.3317 8.72236 16.113C5.42662 12.8897 3.6882 9.84775 3.50704 6.98713C3.43082 5.78337 3.97792 4.64828 4.94522 4.00322Z" fill="#2AAC7E"/>
</svg>
