<svg width="81" height="80" fill="none" xmlns="http://www.w3.org/2000/svg"><g clip-path="url(#clip0)"><path d="M.5 38l39 25c.44.325.48 0 1 0s.56.325 1 0l39-25-38-30c-.89-.665-3.11-.665-4 0L.5 38z" fill="url(#paint0_linear)"/><rect x="8.5" width="64" height="68" rx="4" fill="url(#paint1_linear)"/><path d="M40.5 63.5L.5 38v37c0 2.76 2.24 5 5 5h70c2.76 0 5-2.24 5-5V38l-40 25.5z" fill="url(#paint2_linear)"/><path d="M75.5 80h-70c-2.805 0-5-2.229-5-5.077 0-.807.38-1.569 1.02-2.046l37.5-23.384c.44-.33.96-.493 1.48-.493s1.04.163 1.48.492l37.5 23.385a2.555 2.555 0 011.02 2.046c0 2.848-2.195 5.077-5 5.077z" fill="url(#paint3_linear)"/><rect x="16.5" y="10" width="48" height="4" rx="2" fill="#fff"/><rect x="16.5" y="18" width="48" height="4" rx="2" fill="#fff"/><rect x="16.5" y="26" width="25" height="4" rx="2" fill="#fff"/><rect x="2.5" y="6" width="19" height="19" rx="9.5" fill="#FF3B30"/><path d="M11.678 20H13.5v-9h-1.839L8.5 12.684v1.372l3.136-1.671h.042V20z" fill="#fff"/><path d="M79.214 6.133c.203.757-.072 1.593-.47 2.274l-1.107 1.908-1.477 2.545L62.5 36.394l-5.103-2.93L71.057 9.93l1.478-2.545 1.107-1.908c.297-.508.712-1.147 1.242-1.407s.926-.48 1.51-.405c.586.075 1.471.714 1.914 1.099.443.385.755.803.906 1.369z" fill="url(#paint4_linear)"/><path d="M57.462 33.329l-.946 6.564a.521.521 0 00.838.484l5.212-4.102-5.104-2.946z" fill="url(#paint5_linear)"/><path d="M70.637 10.372l1.284-2.214 5.177 2.975-1.284 2.213-5.177-2.974z" fill="url(#paint6_linear)"/><path fill-rule="evenodd" clip-rule="evenodd" d="M29.177 40.705c-1.754 2.194-3.449 5.045-4.527 7.61a1.118 1.118 0 11-2.062-.87c1.159-2.756 2.96-5.785 4.842-8.14.94-1.177 1.927-2.218 2.892-2.977.927-.729 2-1.328 3.085-1.328.738 0 1.468.282 1.87 1.012.335.61.308 1.313.222 1.857-.176 1.125-.771 2.52-1.36 3.77-.27.57-.53 1.098-.775 1.589.176-.19.361-.39.56-.6 1.302-1.371 3.144-3.148 5.635-3.148.244 0 .558.047.855.24.316.205.5.502.585.793.142.486.017.972-.065 1.243-.177.578-.54 1.289-.84 1.877l-.055.105c-.114.224-.217.428-.308.614 5.217-.82 10.429-1.896 14.177-3.647a1.12 1.12 0 01.946 2.03c-4.36 2.037-10.383 3.174-15.968 4.012-.4.06-1.175.045-1.59-.688a1.553 1.553 0 01-.192-.792 2.43 2.43 0 01.084-.574c.154-.592.534-1.337.838-1.932l.02-.042c.148-.288.282-.551.397-.788-.982.37-1.907 1.197-2.897 2.24-.162.171-.329.35-.498.533-.472.51-.964 1.039-1.428 1.455-.61.547-1.444 1.16-2.45 1.16-.211 0-.486-.048-.746-.229a1.279 1.279 0 01-.482-.651c-.122-.37-.06-.727-.023-.903.086-.409.29-.904.503-1.374.224-.495.542-1.134.872-1.799.281-.566.572-1.15.822-1.681.599-1.271 1.053-2.396 1.173-3.161.019-.118.026-.209.028-.276-.327.035-.867.258-1.614.845-.783.616-1.649 1.516-2.526 2.614zm9.65.257v0zm-6.724 5.068l.003-.02a.105.105 0 01-.003.02z" fill="url(#paint7_linear)"/></g><defs><linearGradient id="paint0_linear" x1="40.5" y1="7.501" x2="40.5" y2="63.145" gradientUnits="userSpaceOnUse"><stop stop-color="#B5DBFF"/><stop offset="1" stop-color="#76E2F8"/></linearGradient><linearGradient id="paint1_linear" x1="40.5" y1="0" x2="40.5" y2="68" gradientUnits="userSpaceOnUse"><stop stop-color="#EDF5FF"/><stop offset="1" stop-color="#D8ECFF"/></linearGradient><linearGradient id="paint2_linear" x1="40.5" y1="37.475" x2="40.5" y2="80" gradientUnits="userSpaceOnUse"><stop stop-color="#4560E6"/><stop offset="1" stop-color="#262680"/></linearGradient><linearGradient id="paint3_linear" x1="40.5" y1="48.612" x2="40.5" y2="80" gradientUnits="userSpaceOnUse"><stop stop-color="#4560E6"/><stop offset="1" stop-color="#262680"/></linearGradient><linearGradient id="paint4_linear" x1="64.781" y1="6.643" x2="72.066" y2="33.831" gradientUnits="userSpaceOnUse"><stop stop-color="#B5DBFF"/><stop offset="1" stop-color="#76E2F8"/></linearGradient><linearGradient id="paint5_linear" x1="58.192" y1="33.133" x2="59.958" y2="39.724" gradientUnits="userSpaceOnUse"><stop stop-color="#00E4E4"/><stop offset="1" stop-color="#00B373"/></linearGradient><linearGradient id="paint6_linear" x1="71.279" y1="9.265" x2="76.443" y2="12.261" gradientUnits="userSpaceOnUse"><stop stop-color="#EDF5FF"/><stop offset="1" stop-color="#D8ECFF"/></linearGradient><linearGradient id="paint7_linear" x1="39" y1="35" x2="39" y2="49" gradientUnits="userSpaceOnUse"><stop stop-color="#00E4E4"/><stop offset="1" stop-color="#00B373"/></linearGradient><clipPath id="clip0"><path fill="#fff" transform="translate(.5)" d="M0 0h80v80H0z"/></clipPath></defs></svg>