<svg width="160" height="48" fill="none" xmlns="http://www.w3.org/2000/svg"><path d="M0 4a4 4 0 014-4h152a4 4 0 014 4v40a4 4 0 01-4 4H4a4 4 0 01-4-4V4z" fill="#fff"/><path d="M80.08 26.448c-2.52 0-4.58 1.89-4.58 4.496 0 2.585 2.06 4.494 4.58 4.494 2.527 0 4.586-1.909 4.586-4.494 0-2.607-2.06-4.496-4.585-4.496zm0 7.22c-1.383 0-2.573-1.124-2.573-2.724 0-1.621 1.19-2.726 2.573-2.726 1.384 0 2.58 1.105 2.58 2.726 0 1.6-1.196 2.724-2.58 2.724zm-9.993-7.22c-2.526 0-4.58 1.89-4.58 4.496 0 2.585 2.054 4.494 4.58 4.494 2.525 0 4.58-1.909 4.58-4.494 0-2.607-2.055-4.496-4.58-4.496zm0 7.22c-1.385 0-2.579-1.124-2.579-2.724 0-1.621 1.194-2.726 2.579-2.726 1.383 0 2.573 1.105 2.573 2.726 0 1.6-1.19 2.724-2.573 2.724zm-11.892-5.842v1.91h4.633c-.136 1.068-.498 1.852-1.054 2.4-.676.66-1.729 1.393-3.579 1.393a5.047 5.047 0 01-5.083-5.073 5.047 5.047 0 015.083-5.072c1.541 0 2.663.593 3.49 1.361l1.368-1.346c-1.158-1.088-2.698-1.924-4.858-1.924-3.91 0-7.195 3.132-7.195 6.981 0 3.85 3.286 6.982 7.195 6.982 2.113 0 3.7-.682 4.948-1.96 1.278-1.26 1.677-3.03 1.677-4.459 0-.444-.038-.852-.105-1.193h-6.52zm48.628 1.481c-.377-1.005-1.54-2.859-3.91-2.859-2.348 0-4.302 1.822-4.302 4.496 0 2.518 1.934 4.494 4.528 4.494a4.539 4.539 0 003.804-1.992l-1.556-1.021c-.519.747-1.226 1.243-2.248 1.243-1.016 0-1.744-.459-2.211-1.362l6.105-2.488-.21-.511zm-6.225 1.497c-.053-1.733 1.367-2.621 2.384-2.621.797 0 1.473.392 1.698.954l-4.082 1.667zm-4.963 4.36h2.007v-13.21h-2.007v13.21zm-3.287-7.714h-.067c-.45-.526-1.31-1.002-2.4-1.002-2.286 0-4.376 1.976-4.376 4.51 0 2.52 2.09 4.48 4.376 4.48 1.09 0 1.95-.48 2.4-1.021h.067v.644c0 1.72-.932 2.642-2.436 2.642-1.226 0-1.987-.871-2.301-1.605l-1.746.718c.504 1.191 1.836 2.658 4.047 2.658 2.353 0 4.338-1.364 4.338-4.68v-8.072h-1.902v.728zm-2.295 6.218c-1.383 0-2.541-1.14-2.541-2.71 0-1.584 1.157-2.74 2.54-2.74 1.364 0 2.438 1.156 2.438 2.74 0 1.57-1.074 2.71-2.437 2.71zm26.166-11.714h-4.8v13.21h2.002V30.16h2.798c2.223 0 4.403-1.584 4.403-4.103 0-2.518-2.185-4.102-4.403-4.102zm.053 6.367h-2.851v-4.53h2.851a2.31 2.31 0 012.347 2.265c0 1.022-.853 2.265-2.347 2.265zm12.373-1.898c-1.446 0-2.95.629-3.569 2.023l1.777.733c.382-.733 1.085-.971 1.828-.971 1.039 0 2.092.614 2.108 1.699v.138c-.362-.206-1.138-.51-2.092-.51-1.913 0-3.862 1.036-3.862 2.972 0 1.77 1.567 2.91 3.329 2.91 1.346 0 2.09-.599 2.557-1.295h.068v1.021h1.933v-5.067c0-2.342-1.776-3.653-4.077-3.653zm-.241 7.24c-.655 0-1.567-.32-1.567-1.12 0-1.022 1.137-1.414 2.122-1.414.882 0 1.295.191 1.83.444-.157 1.223-1.226 2.09-2.385 2.09zm11.362-6.95l-2.301 5.726h-.069l-2.378-5.727h-2.159l3.574 8.003-2.039 4.453h2.091l5.508-12.456h-2.227zm-18.044 8.451h2.008v-13.21h-2.008v13.21z" fill="#48484A"/><path d="M16.502 10.417c-.318.323-.502.826-.502 1.476v23.215c0 .651.184 1.154.502 1.476l.079.071 13.416-13.003v-.307L16.58 10.34l-.079.076z" fill="url(#paint0_linear)"/><path d="M34.463 27.988l-4.467-4.336v-.308l4.473-4.336.1.056 5.296 2.922c1.512.83 1.512 2.194 0 3.029l-5.296 2.917-.106.056z" fill="url(#paint1_linear)"/><path d="M34.57 27.932l-4.573-4.434-13.495 13.086c.502.512 1.32.573 2.252.062l15.815-8.714z" fill="url(#paint2_linear)"/><path d="M34.57 19.064L18.753 10.35c-.931-.506-1.75-.445-2.252.067l13.495 13.081 4.572-4.434z" fill="url(#paint3_linear)"/><g opacity=".8" fill="#8E8E93"><path d="M53.703 16v-4.627h1.701v-.823H51v.823h1.701V16h1.002zM59.454 16h1.056l-1.988-5.45h-1.13L55.403 16h1.034l.477-1.409h2.062L59.454 16zm-1.522-4.487h.027l.78 2.326h-1.592l.785-2.326zm-.66-2.251c.112-.046.275-.068.403-.068.214 0 .362.11.362.268 0 .162-.148.32-.365.389l.295.362c.407-.147.687-.457.687-.8 0-.427-.342-.692-.858-.692-.19 0-.389.034-.524.095v.446zM62.592 16v-5.45H61.59V16h1.002zM72.094 10.55h-1.158l-1.716 4.113h-.031l-1.717-4.113h-1.16V16h.904v-3.868h.027l1.62 3.823h.683l1.62-3.823h.027V16h.9v-5.45zM74.563 16v-5.45h-1.002V16h1.002zM78.341 8.982c.455 0 .785-.355.785-.925h-.536c-.012.283-.097.43-.28.43-.271 0-.38-.487-.94-.487-.47 0-.792.336-.792.914h.536c.016-.283.093-.427.284-.427.318 0 .396.495.944.495zm-.897.223l-1.021.891h.831l.563-.494h.047l.563.494h.831l-1.021-.891h-.793zm2.21 5.972H77.03V13.62h2.481v-.774H77.03v-1.473h2.625v-.823h-3.627V16h3.627v-.823zM81.968 16v-3.822h.035L84.788 16h.862v-5.45h-.963v3.818h-.035l-2.78-3.818h-.87V16h.966zM89.373 10.55V16h1.002v-1.802h1.216c1.134 0 1.926-.736 1.926-1.824s-.773-1.824-1.883-1.824h-2.26zm1.002.797h.995c.718 0 1.13.373 1.13 1.027 0 .66-.416 1.039-1.134 1.039h-.99v-2.066zM99.455 16v-5.45h-.998v2.266H95.73V10.55h-1.002V16h1.002v-2.364h2.727V16h.998zM101.924 16v-5.45h-1.002V16h1.002zm-.124-5.862l1.083-1.156h-.955l-.897 1.156h.769zM108.04 16v-4.627h1.701v-.823h-4.404v.823h1.701V16h1.002zM111.9 11.339h1.134c.637 0 1.025.355 1.025.93 0 .588-.365.932-1.002.932H111.9V11.34zm0 2.61h1.11L114.109 16h1.146l-1.223-2.198c.668-.234 1.056-.835 1.056-1.556 0-1.043-.726-1.696-1.938-1.696h-2.252V16h1.002v-2.051zM117.81 8.99l-1.091 1.17h.788l.676-.747h.015l.676.748h.788l-1.091-1.171h-.761zm2.194 6.187h-2.625V13.62h2.482v-.774h-2.482v-1.473h2.625v-.823h-3.627V16h3.627v-.823zM122.318 16v-3.822h.035L125.138 16H126v-5.45h-.963v3.818h-.035l-2.781-3.818h-.87V16h.967z"/></g><defs><linearGradient id="paint0_linear" x1="28.806" y1="35.35" x2="11.197" y2="17.19" gradientUnits="userSpaceOnUse"><stop stop-color="#00A0FF"/><stop offset=".007" stop-color="#00A1FF"/><stop offset=".26" stop-color="#00BEFF"/><stop offset=".512" stop-color="#00D2FF"/><stop offset=".76" stop-color="#00DFFF"/><stop offset="1" stop-color="#00E3FF"/></linearGradient><linearGradient id="paint1_linear" x1="41.834" y1="23.497" x2="15.638" y2="23.497" gradientUnits="userSpaceOnUse"><stop stop-color="#FFE000"/><stop offset=".409" stop-color="#FFBD00"/><stop offset=".775" stop-color="orange"/><stop offset="1" stop-color="#FF9C00"/></linearGradient><linearGradient id="paint2_linear" x1="32.083" y1="21.087" x2="8.204" y2="-3.539" gradientUnits="userSpaceOnUse"><stop stop-color="#FF3A44"/><stop offset="1" stop-color="#C31162"/></linearGradient><linearGradient id="paint3_linear" x1="13.105" y1="44.308" x2="23.768" y2="33.311" gradientUnits="userSpaceOnUse"><stop stop-color="#32A071"/><stop offset=".069" stop-color="#2DA771"/><stop offset=".476" stop-color="#15CF74"/><stop offset=".801" stop-color="#06E775"/><stop offset="1" stop-color="#00F076"/></linearGradient></defs></svg>