<svg width="24" height="24" fill="none" xmlns="http://www.w3.org/2000/svg"><path d="M17.87 14.115c0-5.04-2.348-7.269-2.348-7.269-1.152 2.772-3.62 3.214-5.837 3.611-2.304.413-4.337.777-4.337 3.658h-.783v.808c0 .76.282 1.15.516 1.361a1.456 1.456 0 00.451.276l.01.003.005.002.407.105.136.419.001.005a2.2 2.2 0 00.059.157 7.947 7.947 0 001.169 2c.877 1.088 2.24 2.134 4.29 2.134h4.4C14.897 22.31 13.442 23 11.61 23c-2.646 0-4.414-1.378-5.493-2.714a9.568 9.568 0 01-1.372-2.316 3.02 3.02 0 01-.694-.47C3.5 17.004 3 16.182 3 14.923v-4.038C3 5.23 7.696 2 11.609 2c3.13 0 3.913 1.615 3.913 1.615 3.13 0 4.695 4.039 4.695 7.27v1.83c.468.28.783.802.783 1.4v.808c0 .617-.335 1.154-.828 1.426-.288 1.937-1.91 3.42-3.868 3.42h-3.913a.76.76 0 01-.175-.02c-.07.013-.142.02-.216.02h-.783c-.648 0-1.174-.542-1.174-1.211 0-.67.526-1.212 1.174-1.212H12c.51 0 .946.337 1.107.808h3.197c1.023 0 1.892-.674 2.215-1.616h-.65v-2.423z" fill="#fff"/></svg>