<svg width="48" height="48" fill="none" xmlns="http://www.w3.org/2000/svg"><path d="M24 2.353a24.736 24.736 0 0114.274 2.355A23.885 23.885 0 0023.999 0 23.88 23.88 0 009.725 4.708a24.736 24.736 0 0114.274-2.355z" fill="#12253C"/><path d="M38.595 4.872c-.107-.054-.212-.11-.32-.164.086.063.166.127.252.19.022-.01.044-.017.068-.026z" fill="#E7E643"/><path d="M24 2.352a24.708 24.708 0 0110.797 4.144 46.642 46.642 0 013.727-1.598 23.005 23.005 0 00-.252-.19A24.736 24.736 0 0024 2.352z" fill="#214389"/><path d="M42.67 15.314a48.804 48.804 0 013.004-1.63 24.088 24.088 0 00-7.148-8.787 47.142 47.142 0 00-3.727 1.599 24.95 24.95 0 017.87 8.818z" fill="#1D61AE"/><path d="M45.562 26.54a49.024 49.024 0 012.436-2.393l.002-.144c0-3.693-.837-7.19-2.326-10.316a50.128 50.128 0 00-3.004 1.63 24.671 24.671 0 012.892 11.224z" fill="#0087B1"/><path d="M41.857 40.032a23.914 23.914 0 006.14-15.887 50.088 50.088 0 00-2.435 2.394c.003.141.01.283.01.427 0 4.795-1.362 9.271-3.715 13.066z" fill="#00AEA2"/><path d="M9.726 4.708c-.107.054-.212.11-.32.164.022.01.047.017.069.026.083-.063.166-.127.251-.19z" fill="#E7E643"/><path d="M13.202 6.496a24.678 24.678 0 0110.797-4.144A24.736 24.736 0 009.724 4.707c-.085.064-.166.127-.251.19a46.812 46.812 0 013.729 1.6z" fill="#214389"/><path d="M34.797 6.497A24.678 24.678 0 0024 2.353a24.708 24.708 0 00-10.797 4.144A47.13 47.13 0 0124 13.723a47.26 47.26 0 0110.797-7.226z" fill="#1D61AE"/><path d="M32.327 23.463a49.021 49.021 0 0110.343-8.146 24.957 24.957 0 00-7.873-8.818A47.075 47.075 0 0024 13.725a47.315 47.315 0 018.327 9.738z" fill="#0087B1"/><path d="M45.561 26.54a24.68 24.68 0 00-2.892-11.224 49.178 49.178 0 00-10.343 8.147 46.843 46.843 0 015.833 13.11 48.929 48.929 0 017.402-10.033z" fill="#00AEA2"/><path d="M39.351 42.447a24.158 24.158 0 002.507-2.416 24.715 24.715 0 003.714-13.064c0-.144-.007-.285-.01-.427a48.992 48.992 0 00-7.402 10.033c.518 1.91.915 3.873 1.191 5.874z" fill="#58BD83"/><path d="M13.201 6.496a46.613 46.613 0 00-3.727-1.599 24.088 24.088 0 00-7.148 8.786 50.127 50.127 0 013.004 1.63 24.95 24.95 0 017.871-8.817z" fill="#1D61AE"/><path d="M5.328 15.315a49.177 49.177 0 0110.343 8.146 47.321 47.321 0 018.327-9.738 47.182 47.182 0 00-10.797-7.226 24.981 24.981 0 00-7.873 8.818z" fill="#0087B1"/><path d="M.002 24.144a50.042 50.042 0 012.436 2.394A24.68 24.68 0 015.33 15.314a48.81 48.81 0 00-3.004-1.63A23.895 23.895 0 000 24l.002.144z" fill="#0087B1"/><path d="M15.67 23.463a49.045 49.045 0 00-10.342-8.149 24.719 24.719 0 00-2.892 11.224 48.994 48.994 0 017.402 10.033 46.927 46.927 0 015.832-13.108z" fill="#00AEA2"/><path d="M19.553 47.583c1.442.27 2.926.417 4.446.417 1.52 0 3.005-.149 4.447-.417a48.462 48.462 0 00-4.447-12.537 48.497 48.497 0 00-4.446 12.537z" fill="#ADC680"/><path d="M2.438 26.54a49.007 49.007 0 00-2.436-2.393A23.912 23.912 0 006.14 40.034 24.715 24.715 0 012.425 26.97c0-.146.01-.288.013-.43z" fill="#00AEA2"/><path d="M8.649 42.447a47.15 47.15 0 011.19-5.874A48.997 48.997 0 002.438 26.54c-.002.142-.01.283-.01.427 0 4.793 1.363 9.27 3.715 13.064a24.174 24.174 0 002.507 2.416z" fill="#58BD83"/><path d="M32.326 23.463a47.315 47.315 0 00-8.327-9.737 47.242 47.242 0 00-8.327 9.737 48.994 48.994 0 018.327 11.583 49.011 49.011 0 018.327-11.583z" fill="#00AEA2"/><path d="M28.447 47.583a23.862 23.862 0 005.784-1.87c1-3.202 2.325-6.26 3.929-9.14a46.84 46.84 0 00-5.833-13.11A48.99 48.99 0 0024 35.046a48.585 48.585 0 014.447 12.537z" fill="#58BD83"/><path d="M38.16 36.573a48.477 48.477 0 00-3.93 9.14 24.078 24.078 0 005.12-3.265 47.06 47.06 0 00-1.19-5.875z" fill="#ADC680"/><path d="M13.77 45.713a23.828 23.828 0 005.783 1.87A48.463 48.463 0 0124 35.046a49.058 49.058 0 00-8.327-11.583 46.841 46.841 0 00-5.833 13.11 48.801 48.801 0 013.93 9.14z" fill="#58BD83"/><path d="M8.648 42.448a23.975 23.975 0 005.12 3.265 48.66 48.66 0 00-3.929-9.142 46.315 46.315 0 00-1.19 5.877z" fill="#ADC680"/><path d="M45.674 13.684a24.088 24.088 0 00-7.148-8.786c.022-.01.046-.017.068-.027-.107-.053-.212-.11-.32-.163A23.885 23.885 0 0024 0 23.88 23.88 0 009.725 4.708c-.107.053-.212.11-.32.163.023.01.047.017.07.027a24.087 24.087 0 00-7.15 8.786A23.895 23.895 0 000 24c0 .049.002.095.005.144a23.911 23.911 0 006.138 15.888 23.972 23.972 0 007.627 5.681 23.828 23.828 0 005.783 1.87c1.443.27 2.927.417 4.447.417s3.004-.149 4.447-.417a23.862 23.862 0 0010.904-5.135 24.137 24.137 0 002.506-2.416 23.913 23.913 0 006.14-15.888c0-.049.003-.095.003-.144 0-3.692-.837-7.19-2.326-10.316z" fill="url(#paint0_linear)"/><path d="M45.674 13.684a24.088 24.088 0 00-7.148-8.786c.022-.01.046-.017.068-.027-.107-.053-.212-.11-.32-.163A23.885 23.885 0 0024 0 23.88 23.88 0 009.725 4.708c-.107.053-.212.11-.32.163.023.01.047.017.07.027a24.087 24.087 0 00-7.15 8.786A23.895 23.895 0 000 24c0 .049.002.095.005.144a23.911 23.911 0 006.138 15.888 23.972 23.972 0 007.627 5.681 23.828 23.828 0 005.783 1.87c1.443.27 2.927.417 4.447.417s3.004-.149 4.447-.417a23.862 23.862 0 0010.904-5.135 24.137 24.137 0 002.506-2.416 23.913 23.913 0 006.14-15.888c0-.049.003-.095.003-.144 0-3.692-.837-7.19-2.326-10.316z" fill="url(#paint1_linear)"/><path d="M32.778 12.74c-3.427 3.917-6.726 9.735-8.83 13.79-2.104-4.055-5.403-9.873-8.83-13.79a.916.916 0 00-1.484.124c-3.436 5.533-6.428 14.802-7.111 17.91-.09.413-.012.843.222 1.187a54.369 54.369 0 012.328 3.783.528.528 0 00.974-.112c1.279-4.254 3.363-9.194 5.589-12.36 1.881 1.472 5.103 6.58 6.953 9.658l1.08 1.842a.37.37 0 00.645-.01l.998-1.832c1.848-3.078 5.072-8.186 6.953-9.657 2.226 3.165 4.31 8.105 5.59 12.359.138.46.739.53.973.112a53.444 53.444 0 012.328-3.783c.235-.344.315-.776.222-1.186-.683-3.11-3.675-12.378-7.114-17.911a.92.92 0 00-1.486-.125z" fill="url(#paint2_radial)"/><path opacity=".57" d="M41.154 31.96a54.363 54.363 0 00-2.328 3.783.528.528 0 01-.974-.112c-1.279-4.254-3.363-9.193-5.589-12.358-1.879 1.471-5.103 6.58-6.953 9.657l-.998 1.832a.37.37 0 01-.644.01l-1.081-1.842c-1.848-3.078-5.072-8.186-6.953-9.657-2.226 3.165-4.31 8.104-5.59 12.358a.528.528 0 01-.973.112 53.431 53.431 0 00-2.328-3.782 1.518 1.518 0 01-.252-.693c-.039.358.05.72.252 1.017a54.347 54.347 0 012.328 3.783.528.528 0 00.974-.112c1.269-4.222 3.331-9.116 5.537-12.283a.086.086 0 01.125-.02c1.889 1.543 5.057 6.56 6.88 9.599l1.005 1.713a.456.456 0 00.793-.012l.928-1.701c1.825-3.039 4.99-8.056 6.88-9.601a.086.086 0 01.124.02c2.206 3.167 4.266 8.063 5.538 12.282.139.462.739.53.973.113a53.446 53.446 0 012.328-3.783 1.53 1.53 0 00.252-1.018 1.58 1.58 0 01-.254.696z" fill="#CFDD2C"/><path opacity=".47" d="M6.524 31.226c.683-3.109 3.675-12.378 7.114-17.91a.918.918 0 011.484-.125c3.426 3.917 6.726 9.735 8.83 13.791 2.103-4.056 5.403-9.874 8.83-13.791a.915.915 0 011.483.124c3.439 5.533 6.431 14.802 7.114 17.911.008.037.013.074.018.108a1.596 1.596 0 00-.018-.56c-.683-3.108-3.675-12.377-7.114-17.91a.918.918 0 00-1.483-.125c-3.427 3.918-6.727 9.736-8.83 13.792-2.104-4.056-5.404-9.874-8.83-13.791a.915.915 0 00-1.484.124c-3.439 5.533-6.43 14.802-7.114 17.91a1.488 1.488 0 00-.017.56.548.548 0 01.017-.108z" fill="#152E68"/><path d="M22.586 32.93c.48.8.866 1.46 1.113 1.884a.289.289 0 00.5 0c.247-.425.632-1.086 1.113-1.884l.86-1.577a.32.32 0 00.009-.29c-.232-.5-1.04-2.233-2.23-4.53a111.686 111.686 0 00-2.231 4.53.32.32 0 00.01.29l.856 1.577z" fill="url(#paint3_radial)"/><defs><radialGradient id="paint2_radial" cx="0" cy="0" r="1" gradientUnits="userSpaceOnUse" gradientTransform="matrix(16.1351 0 0 16.7605 26.806 18.753)"><stop stop-color="#00AEA2"/><stop offset=".559" stop-color="#1C60AC"/><stop offset="1" stop-color="#214289"/></radialGradient><radialGradient id="paint3_radial" cx="0" cy="0" r="1" gradientUnits="userSpaceOnUse" gradientTransform="matrix(16.065 0 0 16.6877 28.327 24.802)"><stop stop-color="#00AEA2"/><stop offset=".559" stop-color="#1C60AC"/><stop offset="1" stop-color="#214289"/></radialGradient><linearGradient id="paint0_linear" x1="48.996" y1="39.769" x2="32.093" y2="29.106" gradientUnits="userSpaceOnUse"><stop stop-color="#00AEEF"/><stop offset="1" stop-color="#00AEEF" stop-opacity="0"/></linearGradient><linearGradient id="paint1_linear" x1="3.414" y1="39.754" x2="7.738" y2="36.436" gradientUnits="userSpaceOnUse"><stop stop-color="#00B4B0"/><stop offset=".439" stop-color="#4DBFA2" stop-opacity=".561"/><stop offset="1" stop-color="#9CD08C" stop-opacity="0"/></linearGradient></defs></svg>