<svg width="136" height="32" fill="none" xmlns="http://www.w3.org/2000/svg"><path d="M16 1.568a16.49 16.49 0 019.516 1.57A15.924 15.924 0 0016 0a15.92 15.92 0 00-9.516 3.139A16.491 16.491 0 0116 1.569z" fill="#12253C"/><path d="M25.73 3.248l-.214-.11.168.128c.015-.007.03-.012.046-.018z" fill="#E7E643"/><path d="M16 1.568a16.472 16.472 0 017.198 2.763c.809-.392 1.64-.744 2.485-1.066l-.168-.127A16.491 16.491 0 0016 1.568z" fill="#214389"/><path d="M28.447 10.21a32.542 32.542 0 012.003-1.087 16.059 16.059 0 00-4.766-5.857c-.846.322-1.676.675-2.485 1.065a16.634 16.634 0 015.248 5.879z" fill="#1D61AE"/><path d="M30.375 17.694a32.681 32.681 0 011.623-1.597l.002-.096c0-2.461-.558-4.793-1.55-6.877-.682.34-1.35.703-2.003 1.087a16.448 16.448 0 011.928 7.482z" fill="#0087B1"/><path d="M27.905 26.688a15.942 15.942 0 004.093-10.592 33.389 33.389 0 00-1.623 1.596c.001.094.006.189.006.285 0 3.197-.908 6.18-2.476 8.71z" fill="#00AEA2"/><path d="M6.484 3.139c-.072.035-.142.073-.214.109.015.006.031.011.046.018.055-.043.11-.085.168-.127z" fill="#E7E643"/><path d="M8.8 4.331a16.452 16.452 0 017.198-2.763 16.49 16.49 0 00-9.516 1.57c-.057.043-.11.085-.168.127.848.322 1.678.675 2.487 1.066z" fill="#214389"/><path d="M23.198 4.331A16.451 16.451 0 0016 1.568a16.472 16.472 0 00-7.198 2.763A31.42 31.42 0 0116 9.149a31.51 31.51 0 017.198-4.818z" fill="#1D61AE"/><path d="M21.552 15.642a32.68 32.68 0 016.895-5.43 16.638 16.638 0 00-5.249-5.879A31.386 31.386 0 0016 9.151c2.131 1.897 4 4.082 5.552 6.491z" fill="#0087B1"/><path d="M30.375 17.694a16.454 16.454 0 00-1.928-7.483 32.788 32.788 0 00-6.896 5.43 31.225 31.225 0 013.889 8.741 32.62 32.62 0 014.935-6.688z" fill="#00AEA2"/><path d="M26.234 28.298a16.121 16.121 0 001.67-1.61 16.477 16.477 0 002.477-8.71c0-.096-.005-.19-.006-.285a32.66 32.66 0 00-4.935 6.689c.345 1.274.61 2.582.794 3.916z" fill="#58BD83"/><path d="M8.8 4.331a31.086 31.086 0 00-2.484-1.065A16.059 16.059 0 001.55 9.123c.682.34 1.35.703 2.003 1.087A16.634 16.634 0 018.8 4.33z" fill="#1D61AE"/><path d="M3.552 10.21a32.788 32.788 0 016.895 5.43 31.546 31.546 0 015.551-6.491A31.456 31.456 0 008.801 4.33a16.654 16.654 0 00-5.25 5.878z" fill="#0087B1"/><path d="M.002 16.096c.56.511 1.098 1.048 1.623 1.596.046-2.7.736-5.245 1.928-7.482a32.518 32.518 0 00-2.002-1.087A15.93 15.93 0 000 16l.002.096z" fill="#0087B1"/><path d="M10.447 15.643a32.697 32.697 0 00-6.895-5.433 16.479 16.479 0 00-1.928 7.483 32.661 32.661 0 014.934 6.688 31.287 31.287 0 013.889-8.739z" fill="#00AEA2"/><path d="M13.036 31.722c.961.18 1.95.278 2.964.278s2.003-.099 2.965-.278A32.311 32.311 0 0016 23.364a32.33 32.33 0 00-2.964 8.358z" fill="#ADC680"/><path d="M1.625 17.694a32.582 32.582 0 00-1.623-1.596 15.941 15.941 0 004.092 10.591 16.477 16.477 0 01-2.477-8.709c0-.098.007-.192.008-.286z" fill="#00AEA2"/><path d="M5.766 28.298c.184-1.334.45-2.64.794-3.916a32.661 32.661 0 00-4.935-6.689c-.001.095-.006.19-.006.285 0 3.195.908 6.18 2.476 8.71a16.113 16.113 0 001.671 1.61z" fill="#58BD83"/><path d="M21.551 15.642A31.547 31.547 0 0016 9.15a31.495 31.495 0 00-5.551 6.492A32.66 32.66 0 0116 23.364a32.671 32.671 0 015.551-7.722z" fill="#00AEA2"/><path d="M18.964 31.722a15.91 15.91 0 003.856-1.246 32.376 32.376 0 012.62-6.093 31.225 31.225 0 00-3.889-8.74A32.662 32.662 0 0016 23.364a32.385 32.385 0 012.964 8.358z" fill="#58BD83"/><path d="M25.44 24.383a32.312 32.312 0 00-2.62 6.093 16.053 16.053 0 003.414-2.177 31.388 31.388 0 00-.794-3.916z" fill="#ADC680"/><path d="M9.18 30.476c1.21.571 2.502.992 3.856 1.246A32.304 32.304 0 0116 23.364a32.704 32.704 0 00-5.551-7.721 31.227 31.227 0 00-3.889 8.74 32.532 32.532 0 012.62 6.093z" fill="#58BD83"/><path d="M5.766 28.299a15.984 15.984 0 003.414 2.177 32.44 32.44 0 00-2.62-6.095 30.873 30.873 0 00-.794 3.918z" fill="#ADC680"/><path d="M30.45 9.123a16.059 16.059 0 00-4.766-5.858l.046-.017-.214-.11A15.924 15.924 0 0016 0a15.92 15.92 0 00-9.516 3.139c-.072.035-.142.073-.214.109.015.006.031.01.046.017a16.059 16.059 0 00-4.765 5.858A15.93 15.93 0 000 16l.003.096a15.94 15.94 0 004.092 10.592 15.984 15.984 0 005.084 3.788c1.211.57 2.503.992 3.857 1.246.961.18 1.95.278 2.964.278s2.003-.1 2.964-.278a15.91 15.91 0 007.27-3.423 16.112 16.112 0 001.67-1.611 15.942 15.942 0 004.094-10.592L32 16c0-2.462-.558-4.793-1.55-6.877z" fill="url(#paint0_linear)"/><path d="M30.45 9.123a16.059 16.059 0 00-4.766-5.858l.046-.017-.214-.11A15.924 15.924 0 0016 0a15.92 15.92 0 00-9.516 3.139c-.072.035-.142.073-.214.109.015.006.031.01.046.017a16.059 16.059 0 00-4.765 5.858A15.93 15.93 0 000 16l.003.096a15.94 15.94 0 004.092 10.592 15.984 15.984 0 005.084 3.788c1.211.57 2.503.992 3.857 1.246.961.18 1.95.278 2.964.278s2.003-.1 2.964-.278a15.91 15.91 0 007.27-3.423 16.112 16.112 0 001.67-1.611 15.942 15.942 0 004.094-10.592L32 16c0-2.462-.558-4.793-1.55-6.877z" fill="url(#paint1_linear)"/><path d="M21.852 8.493c-2.284 2.612-4.484 6.49-5.886 9.194-1.403-2.704-3.602-6.582-5.887-9.194a.61.61 0 00-.989.083c-2.29 3.689-4.285 9.868-4.741 11.94-.06.276-.008.562.148.792.527.776 1.079 1.679 1.552 2.521a.352.352 0 00.65-.074c.852-2.836 2.241-6.13 3.725-8.24 1.255.982 3.402 4.387 4.636 6.438l.72 1.229a.247.247 0 00.43-.007l.665-1.222c1.232-2.051 3.381-5.456 4.636-6.438 1.483 2.11 2.873 5.404 3.726 8.24a.352.352 0 00.649.075 35.637 35.637 0 011.552-2.522c.156-.23.21-.518.148-.791-.456-2.073-2.45-8.252-4.743-11.94a.613.613 0 00-.99-.084z" fill="url(#paint2_radial)"/><path opacity=".57" d="M27.436 21.308a36.236 36.236 0 00-1.552 2.522.352.352 0 01-.65-.075c-.852-2.836-2.241-6.13-3.725-8.24-1.253.982-3.402 4.387-4.635 6.439l-.666 1.222a.247.247 0 01-.43.006l-.72-1.228c-1.232-2.052-3.381-5.457-4.636-6.438-1.483 2.11-2.873 5.403-3.725 8.239a.352.352 0 01-.65.075 35.627 35.627 0 00-1.552-2.522 1.013 1.013 0 01-.167-.462c-.026.239.032.48.167.678a36.216 36.216 0 011.553 2.522.352.352 0 00.649-.075c.846-2.814 2.22-6.077 3.691-8.188a.057.057 0 01.083-.014c1.26 1.029 3.371 4.374 4.587 6.4l.67 1.142a.304.304 0 00.529-.009l.618-1.133c1.217-2.026 3.328-5.371 4.587-6.401a.057.057 0 01.083.013c1.47 2.112 2.844 5.376 3.691 8.189a.352.352 0 00.65.074 35.6 35.6 0 011.552-2.521 1.02 1.02 0 00.167-.679c-.02.166-.076.325-.169.464z" fill="#CFDD2C"/><path opacity=".47" d="M4.349 20.818c.456-2.073 2.45-8.252 4.743-11.94a.612.612 0 01.989-.084c2.284 2.612 4.484 6.49 5.886 9.194 1.403-2.704 3.603-6.582 5.887-9.194a.61.61 0 01.99.083c2.292 3.689 4.286 9.868 4.742 11.94.005.025.008.05.011.073a1.065 1.065 0 00-.011-.373c-.456-2.073-2.45-8.252-4.743-11.94a.612.612 0 00-.99-.084c-2.283 2.612-4.483 6.49-5.886 9.194-1.402-2.704-3.602-6.582-5.886-9.194a.61.61 0 00-.99.083C6.8 12.265 4.806 18.444 4.35 20.516a.992.992 0 00-.011.374.364.364 0 01.011-.072z" fill="#152E68"/><path d="M15.058 21.954c.32.534.578.973.742 1.256a.192.192 0 00.333 0c.165-.283.422-.724.742-1.256l.573-1.051a.214.214 0 00.007-.194 76.942 76.942 0 00-1.487-3.02 74.39 74.39 0 00-1.488 3.02.214.214 0 00.007.194l.571 1.05z" fill="url(#paint3_radial)"/><path d="M72.607 6c-2.755 0-5.112.976-7.068 2.932-1.956 1.956-2.932 4.31-2.932 7.068 0 2.759.976 5.112 2.932 7.068C67.495 25.024 69.849 26 72.607 26c2.755 0 5.112-.976 7.068-2.932 1.956-1.956 2.932-4.31 2.932-7.068s-.976-5.112-2.932-7.068C77.719 6.976 75.362 6 72.607 6zm5.17 15.17c-1.432 1.432-3.157 2.147-5.17 2.147-2.018 0-3.742-.715-5.17-2.147-1.432-1.432-2.148-3.153-2.148-5.17s.716-3.742 2.148-5.17c1.431-1.432 3.152-2.147 5.17-2.147 2.017 0 3.742.715 5.17 2.147 1.431 1.432 2.147 3.156 2.147 5.17s-.716 3.738-2.147 5.17zM58.818 6.336a1.372 1.372 0 00-.52-.108c-.312 0-.605.133-.88.397l-7.599 7.6-7.585-7.6c-.264-.264-.556-.397-.878-.397A1.38 1.38 0 0040 7.613v16.98c0 .366.127.677.383.933.257.257.568.384.933.384.358 0 .662-.127.918-.384.257-.256.383-.567.383-.932V10.729l6.063 6.063a1.617 1.617 0 002.289 0l6.063-6.063v13.868c0 .365.126.676.383.933s.568.383.933.383c.365 0 .676-.126.933-.383.256-.257.383-.568.383-.933V7.623a1.37 1.37 0 00-.846-1.287zM122.711 15.143c.243.242.561.362.879.362.318 0 .636-.12.875-.362l.145-.144a1.27 1.27 0 00.325-.507c.145-.47.022-.943-.304-1.269l-6.757-6.753c-.47-.47-1.287-.47-1.753 0l-.167.163a1.24 1.24 0 000 1.753l6.757 6.757zM124.465 16.871a1.239 1.239 0 00-1.753 0l-6.739 6.74a1.223 1.223 0 00-.322.51c-.141.47-.018.94.307 1.26l.166.163c.243.243.561.362.879.362.318 0 .636-.12.878-.361l6.758-6.758a1.24 1.24 0 000-1.753l-.174-.163zM119.816 16.22v-.44c0-.59-.478-1.067-1.067-1.067h-13.655c-.589 0-1.066.477-1.066 1.066v.442c0 .589.477 1.066 1.066 1.066h13.655a1.064 1.064 0 001.067-1.066z" fill="#1A2C58"/><path d="M86.887 6.227c-.173 0-.358.04-.55.123-.538.22-.81.622-.81 1.208v17.035c0 .365.127.676.384.933s.568.383.933.383c.358 0 .661-.126.918-.383s.383-.568.383-.933V10.728l10.083 10.094v-3.716L87.762 6.625c-.264-.264-.557-.398-.875-.398zM126.215 15.143c.242.242.56.361.878.361.318 0 .637-.119.879-.361l6.757-6.757c.325-.326.448-.796.304-1.266a1.229 1.229 0 00-.322-.506l-.148-.148a1.238 1.238 0 00-1.754.004l-6.739 6.739a1.233 1.233 0 00-.322.51c-.141.47-.018.94.308 1.261l.159.163zM127.968 16.87a1.239 1.239 0 00-1.753 0l-.167.164a1.24 1.24 0 000 1.753l6.757 6.757c.243.242.561.362.879.362.318 0 .636-.12.878-.362l.145-.145c.145-.144.264-.31.322-.506a1.24 1.24 0 00-.304-1.265l-6.757-6.757zM112.693 6.104h-12.01c-.589 0-1.066.478-1.066 1.067v17.668c0 .59.477 1.067 1.066 1.067h12.007c.589 0 1.066-.478 1.066-1.067v-.44c0-.59-.477-1.068-1.066-1.068h-10.499V8.682h10.499c.589 0 1.066-.477 1.066-1.066v-.441a1.061 1.061 0 00-1.063-1.07z" fill="#2AAC7E"/><defs><radialGradient id="paint2_radial" cx="0" cy="0" r="1" gradientUnits="userSpaceOnUse" gradientTransform="matrix(10.7567 0 0 11.1736 17.871 12.502)"><stop stop-color="#00AEA2"/><stop offset=".559" stop-color="#1C60AC"/><stop offset="1" stop-color="#214289"/></radialGradient><radialGradient id="paint3_radial" cx="0" cy="0" r="1" gradientUnits="userSpaceOnUse" gradientTransform="matrix(10.71 0 0 11.1251 18.885 16.535)"><stop stop-color="#00AEA2"/><stop offset=".559" stop-color="#1C60AC"/><stop offset="1" stop-color="#214289"/></radialGradient><linearGradient id="paint0_linear" x1="32.664" y1="26.512" x2="21.395" y2="19.404" gradientUnits="userSpaceOnUse"><stop stop-color="#00AEEF"/><stop offset="1" stop-color="#00AEEF" stop-opacity="0"/></linearGradient><linearGradient id="paint1_linear" x1="2.276" y1="26.502" x2="5.159" y2="24.291" gradientUnits="userSpaceOnUse"><stop stop-color="#00B4B0"/><stop offset=".439" stop-color="#4DBFA2" stop-opacity=".561"/><stop offset="1" stop-color="#9CD08C" stop-opacity="0"/></linearGradient></defs></svg>