<svg width="20" height="21" fill="none" xmlns="http://www.w3.org/2000/svg"><path d="M18.15 2.35c.222.222.242.57.06.814l-.06.07-3.362 3.362a8.322 8.322 0 013.296 4.791.625.625 0 11-1.213.304 7.075 7.075 0 00-2.983-4.195L12.38 9.004a3.333 3.333 0 01-4.714 4.714L2.733 18.65a.625.625 0 01-.944-.814l.06-.07 5.095-5.095-.001-.002 5.79-5.788V6.88l.944-.942 3.589-3.588a.625.625 0 01.884 0zM10 5.084c.833 0 1.642.123 2.407.354l-1.031 1.03a7.086 7.086 0 00-8.25 5.227.625.625 0 01-1.212-.303 8.336 8.336 0 018.085-6.308zm-.163 2.924L6.67 11.175a3.336 3.336 0 013.168-3.167z" fill="#AEAEB2"/></svg>