<svg width="65" height="64" fill="none" xmlns="http://www.w3.org/2000/svg"><path d="M14.9 4.8A4.8 4.8 0 0119.7 0h25.6a4.8 4.8 0 014.8 4.8v54.4a4.8 4.8 0 01-4.8 4.8H19.7a4.8 4.8 0 01-4.8-4.8V4.8z" fill="url(#paint0_linear)"/><path d="M14.9 8h35.2v46.4H14.9V8z" fill="url(#paint1_linear)"/><path d="M27.7 4a.8.8 0 01.8-.8h8a.8.8 0 010 1.6h-8a.8.8 0 01-.8-.8z" fill="url(#paint2_linear)"/><path d="M24.5 22.4a1.6 1.6 0 011.6-1.6h12.8a1.6 1.6 0 011.6 1.6v7.2a1.6 1.6 0 01-1.6 1.6H26.1a1.6 1.6 0 01-1.6-1.6v-7.2z" fill="url(#paint3_linear)"/><path fill-rule="evenodd" clip-rule="evenodd" d="M26.1 18.8c0-3.314 2.865-6 6.4-6s6.4 2.686 6.4 6v2h-2.844v-2c0-1.841-1.592-3.334-3.556-3.334s-3.555 1.493-3.555 3.334v2H26.1v-2z" fill="url(#paint4_linear)"/><path d="M4.1 42.4a6.4 6.4 0 016.4-6.4h44a6.4 6.4 0 010 12.8h-44a6.4 6.4 0 01-6.4-6.4z" fill="url(#paint5_linear)"/><path d="M12.967 44.63l.733-1.25-2.24-.98 2.24-.962-.733-1.267-1.995 1.44.27-2.41H9.758l.27 2.41-2.005-1.44-.724 1.267 2.24.962-2.24.98.724 1.25 1.996-1.415-.261 2.385h1.482l-.261-2.385 1.987 1.414zM21.767 44.63l.733-1.25-2.24-.98 2.24-.962-.733-1.267-1.995 1.44.27-2.41h-1.483l.27 2.41-2.005-1.44-.724 1.267 2.24.962-2.24.98.724 1.25 1.996-1.415-.261 2.385h1.482l-.26-2.385 1.986 1.414zM30.567 44.63l.733-1.25-2.24-.98 2.24-.962-.733-1.267-1.995 1.44.27-2.41h-1.483l.27 2.41-2.005-1.44-.724 1.267 2.24.962-2.24.98.724 1.25 1.996-1.415-.26 2.385h1.481l-.26-2.385 1.986 1.414zM39.368 44.63l.732-1.25-2.24-.98 2.24-.962-.732-1.267-1.996 1.44.27-2.41h-1.483l.27 2.41-2.005-1.44-.724 1.267 2.24.962-2.24.98.724 1.25 1.996-1.415-.26 2.385h1.481l-.26-2.385 1.987 1.414zM48.167 44.63l.733-1.25-2.24-.98 2.24-.962-.733-1.267-1.995 1.44.27-2.41h-1.483l.27 2.41-2.005-1.44-.724 1.267 2.24.962-2.24.98.724 1.25 1.996-1.415-.261 2.385h1.482l-.261-2.385 1.987 1.414zM56.967 44.63l.733-1.25-2.24-.98 2.24-.962-.733-1.267-1.995 1.44.27-2.41h-1.483l.27 2.41-2.005-1.44-.724 1.267 2.24.962-2.24.98.724 1.25 1.996-1.415-.261 2.385h1.482l-.26-2.385 1.986 1.414z" fill="#fff"/><path d="M35.3 59.2a2.8 2.8 0 11-5.6 0 2.8 2.8 0 015.6 0z" fill="url(#paint6_linear)"/><defs><linearGradient id="paint0_linear" x1="32.5" y1="-.8" x2="32.5" y2="64" gradientUnits="userSpaceOnUse"><stop stop-color="#4560E6"/><stop offset="1" stop-color="#262680"/></linearGradient><linearGradient id="paint1_linear" x1="32.5" y1="8" x2="32.5" y2="54.4" gradientUnits="userSpaceOnUse"><stop stop-color="#EDF5FF"/><stop offset="1" stop-color="#D8ECFF"/></linearGradient><linearGradient id="paint2_linear" x1="32.5" y1="3.2" x2="32.5" y2="4.8" gradientUnits="userSpaceOnUse"><stop stop-color="#EDF5FF"/><stop offset="1" stop-color="#D8ECFF"/></linearGradient><linearGradient id="paint3_linear" x1="32.5" y1="20.67" x2="32.5" y2="31.2" gradientUnits="userSpaceOnUse"><stop stop-color="#4560E6"/><stop offset="1" stop-color="#262680"/></linearGradient><linearGradient id="paint4_linear" x1="32.5" y1="12.8" x2="32.5" y2="20.8" gradientUnits="userSpaceOnUse"><stop stop-color="#B5DBFF"/><stop offset="1" stop-color="#76E2F8"/></linearGradient><linearGradient id="paint5_linear" x1="32.5" y1="36" x2="32.5" y2="48.8" gradientUnits="userSpaceOnUse"><stop stop-color="#00E4E4"/><stop offset="1" stop-color="#00B373"/></linearGradient><linearGradient id="paint6_linear" x1="32.5" y1="56.4" x2="32.5" y2="62" gradientUnits="userSpaceOnUse"><stop stop-color="#B5DBFF"/><stop offset="1" stop-color="#76E2F8"/></linearGradient></defs></svg>