<svg width="72" height="72" fill="none" xmlns="http://www.w3.org/2000/svg"><path d="M6 9a6 6 0 00-6 6v1.5h72V15a6 6 0 00-6-6H6z" fill="#AEAEB2"/><path fill-rule="evenodd" clip-rule="evenodd" d="M0 21h72v36a6 6 0 01-6 6H6a6 6 0 01-6-6V21zm26.883 16.5a7.5 7.5 0 11-15 0 7.5 7.5 0 0115 0zm-7.5 10.5C10.049 48 6.642 51.556 6 55.506 5.867 56.324 6.554 57 7.383 57h24c.828 0 1.515-.676 1.382-1.494C32.123 51.556 28.716 48 19.383 48zM39 32.25A2.25 2.25 0 0141.25 30h19.5a2.25 2.25 0 010 4.5h-19.5A2.25 2.25 0 0139 32.25zm0 9A2.25 2.25 0 0141.25 39h19.5a2.25 2.25 0 010 4.5h-19.5A2.25 2.25 0 0139 41.25zM41.25 48a2.25 2.25 0 000 4.5h19.5a2.25 2.25 0 000-4.5h-19.5z" fill="#AEAEB2"/></svg>