<svg width="80" height="80" fill="none" xmlns="http://www.w3.org/2000/svg"><path d="M5 36.636c0-2.081.971-4.043 2.626-5.303L33.94 11.285a10 10 0 0112.12 0l26.314 20.048A6.667 6.667 0 0175 36.636v30.031a6.667 6.667 0 01-6.667 6.667H11.667A6.667 6.667 0 015 66.667V36.635z" fill="url(#paint0_linear)"/><path d="M11.667 21.667A6.667 6.667 0 0118.333 15h43.334a6.667 6.667 0 016.666 6.667v36.666A6.667 6.667 0 0161.667 65H18.333a6.667 6.667 0 01-6.666-6.667V21.667z" fill="url(#paint1_linear)"/><path d="M41.37 53.334v-2.229C46.89 50.64 50 47.91 50 43.524c0-3.748-2.25-6.045-6.749-7.013l-1.88-.362v-6.442c1.88.259 3.216 1.606 3.269 3.246h4.886c-.07-3.972-3.234-6.804-8.155-7.236v-2.383h-2.478V25.7c-5.273.414-8.366 3.143-8.366 7.374 0 3.593 2.267 5.994 6.503 6.96l1.863.433v6.735c-2.232-.242-3.744-1.554-3.867-3.35H30c.018 4.231 3.374 6.96 8.893 7.27v2.212h2.478zm3.656-9.258c0 1.83-1.353 3.005-3.655 3.143V40.9c2.495.483 3.655 1.502 3.655 3.177zm-9.42-11.433c0-1.641 1.371-2.85 3.287-2.954v5.959c-2.144-.45-3.287-1.486-3.287-3.005z" fill="#fff"/><path d="M61.667 33.334c8.284 0 15-6.716 15-15 0-8.285-6.716-15-15-15-8.285 0-15 6.715-15 15 0 8.284 6.715 15 15 15z" fill="url(#paint2_linear)"/><path d="M51.667 15.994v.063h2.755v-.063c0-1.073.739-1.839 1.756-1.839.984 0 1.623.658 1.623 1.488 0 .811-.36 1.442-1.345 2.479l-4.617 4.67V25h9.022v-2.542h-5.11v-.063l2.83-2.867c.951-1 2.132-2.29 2.132-3.993 0-2.281-1.747-3.868-4.437-3.868-2.764 0-4.61 1.758-4.61 4.327z" fill="url(#paint3_linear)"/><path d="M67.344 25h2.846v-2.11h1.477v-2.578H70.19v-8.32h-4.182c-2.24 3.678-3.47 5.913-4.511 8.131v2.768h5.847V25zm-3.297-4.66c.968-2.164 1.87-3.733 3.322-6.113h.057v6.203h-3.379v-.09z" fill="url(#paint4_linear)"/><path d="M5 36.205a1.667 1.667 0 012.494-1.447l25.89 14.795a13.334 13.334 0 0013.231 0l25.891-14.795A1.667 1.667 0 0175 36.205v30.462a6.667 6.667 0 01-6.667 6.666H11.667A6.667 6.667 0 015 66.667V36.205z" fill="url(#paint5_linear)"/><defs><linearGradient id="paint0_linear" x1="40" y1="9.239" x2="40" y2="73.334" gradientUnits="userSpaceOnUse"><stop stop-color="#B5DBFF"/><stop offset="1" stop-color="#76E2F8"/></linearGradient><linearGradient id="paint1_linear" x1="40" y1="15" x2="40" y2="65" gradientUnits="userSpaceOnUse"><stop stop-color="#00E4E4"/><stop offset="1" stop-color="#00B373"/></linearGradient><linearGradient id="paint2_linear" x1="61.667" y1="3.333" x2="61.667" y2="33.334" gradientUnits="userSpaceOnUse"><stop stop-color="#FC0"/><stop offset="1" stop-color="#FFF5CC"/></linearGradient><linearGradient id="paint3_linear" x1="61.667" y1="11.5" x2="61.667" y2="25" gradientUnits="userSpaceOnUse"><stop stop-color="#4560E6"/><stop offset="1" stop-color="#262680"/></linearGradient><linearGradient id="paint4_linear" x1="61.667" y1="11.5" x2="61.667" y2="25" gradientUnits="userSpaceOnUse"><stop stop-color="#4560E6"/><stop offset="1" stop-color="#262680"/></linearGradient><linearGradient id="paint5_linear" x1="40" y1="34.051" x2="40" y2="73.333" gradientUnits="userSpaceOnUse"><stop stop-color="#4560E6"/><stop offset="1" stop-color="#262680"/></linearGradient></defs></svg>