<svg width="72" height="72" fill="none" xmlns="http://www.w3.org/2000/svg"><path fill-rule="evenodd" clip-rule="evenodd" d="M12.03 63.51C13.18 56.926 19.283 51 36 51s22.82 5.926 23.97 12.51c.238 1.363-.992 2.49-2.476 2.49H14.506c-1.484 0-2.714-1.127-2.476-2.49z" fill="#AEAEB2"/><path d="M48 24c0 9-5.373 18-12 18s-12-9-12-18c0-6.627 5.373-12 12-12s12 5.373 12 12z" fill="#AEAEB2"/><path fill-rule="evenodd" clip-rule="evenodd" d="M23.25 10.5a3.75 3.75 0 00-3.75 3.75v1.5a2.25 2.25 0 01-4.5 0v-1.5A8.25 8.25 0 0123.25 6h1.5a2.25 2.25 0 010 4.5h-1.5zM52.5 14.25a3.75 3.75 0 00-3.75-3.75h-1.5a2.25 2.25 0 010-4.5h1.5A8.25 8.25 0 0157 14.25v1.5a2.25 2.25 0 01-4.5 0v-1.5zM48.75 43.5a3.75 3.75 0 003.75-3.75v-1.5a2.25 2.25 0 014.5 0v1.5A8.25 8.25 0 0148.75 48h-1.5a2.25 2.25 0 010-4.5h1.5zM19.5 39.75a3.75 3.75 0 003.75 3.75h1.5a2.25 2.25 0 010 4.5h-1.5A8.25 8.25 0 0115 39.75v-1.5a2.25 2.25 0 014.5 0v1.5z" fill="#AEAEB2"/></svg>