<svg width="64" height="64" fill="none" xmlns="http://www.w3.org/2000/svg"><path d="M30.599 36.581l.223-.19a2.002 2.002 0 012.33-.018l.25.208 18.473 18.135A8.627 8.627 0 0147.333 56H16.667c-1.666 0-3.221-.47-4.542-1.284L30.6 36.581l.223-.19-.223.19zM47.333 8A8.667 8.667 0 0156 16.667v30.666a8.627 8.627 0 01-1.294 4.558L36.203 33.727l-.343-.312a6.001 6.001 0 00-7.702-.015l-.361.327L9.294 51.89A8.626 8.626 0 018 47.333V16.667A8.667 8.667 0 0116.667 8h30.666zm-5.327 8a6.006 6.006 0 100 12.011 6.006 6.006 0 000-12.011zm0 4a2.006 2.006 0 110 4.011 2.006 2.006 0 010-4.011z" fill="#8E8E93"/></svg>