<svg width="81" height="80" fill="none" xmlns="http://www.w3.org/2000/svg"><path d="M36.864 9.274a7.5 7.5 0 019.919 2.468l.276.459 25.863 46.694a7.5 7.5 0 01-6.047 11.117l-.514.017H14.642a7.5 7.5 0 01-6.804-10.655l.243-.478 25.856-46.694a7.5 7.5 0 012.927-2.928zm3.64 44.066a3.329 3.329 0 100 6.657 3.329 3.329 0 000-6.657zm-.007-26.68a3.334 3.334 0 00-3.31 2.946l-.022.389.006 16.67.022.388a3.334 3.334 0 006.622-.002l.022-.389-.006-16.67-.022-.388a3.334 3.334 0 00-3.312-2.944z" fill="#fff"/></svg>