<svg width="25" height="24" viewBox="0 0 25 24" fill="none" xmlns="http://www.w3.org/2000/svg">
<path d="M22.4765 16.3137C22.3979 16.3182 22.3674 16.387 22.3238 16.4329C21.4768 17.3267 20.4772 18.0418 19.3814 18.5506C16.6922 19.7883 13.9595 19.88 11.1917 18.8807C10.9516 18.789 10.6897 18.7753 10.4408 18.844C10.0741 18.9403 9.71177 19.0549 9.34946 19.1694C8.29113 19.5096 7.21568 19.6658 6.11476 19.4469C6.10311 19.4447 6.06045 19.4352 6.05153 19.4304C5.98925 19.3968 5.95583 19.3562 6.0361 19.284C6.09725 19.2428 6.15832 19.1969 6.21946 19.1602C6.79134 18.7706 7.32834 18.3443 7.68189 17.7163C7.97438 17.1938 7.92632 16.8912 7.55967 16.5016C5.49476 14.3288 4.58243 11.7251 5.03643 8.65847C5.29388 6.92122 6.05353 5.42688 7.14923 4.12509C7.81279 3.33662 8.60298 2.69943 9.46734 2.16771C9.51539 2.13565 9.59397 2.12645 9.60265 2.04393C9.58955 1.99812 9.5546 2.01187 9.52841 2.01187C8.05722 2.01187 6.58604 1.97981 5.11927 2.02107C3.71799 2.06233 2.5 3.20364 2.5 4.84015C2.50876 9.62572 2.5 14.4067 2.5 19.1878C2.5 20.6683 3.57826 21.9106 4.98829 21.9702C6.18009 22.016 18.2813 21.9977 19.8528 21.9885H19.8747C21.3328 21.9748 22.5027 20.728 22.4939 19.1969V16.5154C22.4939 16.4466 22.5158 16.3779 22.4765 16.3137Z" fill="white"/>
<path d="M8.18834 7.79671C8.02241 7.83797 7.89152 7.98005 7.85222 8.15428C7.79549 8.41093 7.94824 8.67223 8.1971 8.7318C8.30188 8.75475 8.411 8.7685 8.52011 8.7685C8.99162 8.77306 9.46739 8.7685 9.9389 8.77306C9.99129 8.77761 10.0524 8.741 10.0961 8.81887C10.0568 8.86932 10.0175 8.92433 9.97819 8.97934C9.30154 9.87773 8.62489 10.7808 7.95258 11.6792C7.78666 11.9038 7.69939 12.1514 7.82161 12.4264C7.94383 12.7015 8.19268 12.7565 8.44587 12.7702C8.65101 12.784 8.85189 12.7748 9.05703 12.7748C9.76421 12.7748 10.4671 12.7793 11.1743 12.7702C11.5497 12.7657 11.7505 12.5227 11.7112 12.1606C11.6763 11.8718 11.4886 11.7205 11.1437 11.7159C10.5282 11.7114 9.90828 11.7159 9.24907 11.7159C9.3189 11.6151 9.36261 11.5555 9.41058 11.4959C9.98245 10.7396 10.5543 9.97864 11.1262 9.21314C11.292 8.98854 11.458 8.76394 11.5627 8.50265C11.6806 8.20009 11.554 7.91137 11.2572 7.80591C11.1218 7.76921 10.9865 7.7509 10.8468 7.75545C10.0697 7.7509 9.28836 7.7509 8.51127 7.75545C8.40224 7.75545 8.29304 7.76921 8.18834 7.79671Z" fill="white"/>
<path d="M19.3638 12.8986C20.4072 12.7886 21.0838 11.968 21.0489 10.8083C21.0139 9.66236 20.202 8.87854 19.0888 8.91516C18.0411 8.94722 17.3034 9.82731 17.3383 11.0054C17.3209 12.1514 18.2245 13.0178 19.3638 12.8986ZM18.434 10.8954C18.434 10.3224 18.7657 9.94653 19.2372 9.97404C19.4423 9.97859 19.6345 10.0886 19.7567 10.2628C20.0055 10.6112 20.0055 11.198 19.7523 11.5463C19.713 11.5921 19.6738 11.638 19.6257 11.6747C19.3114 11.9313 18.8617 11.8672 18.6217 11.5371C18.4908 11.3492 18.4253 11.1246 18.434 10.8954Z" fill="white"/>
<path d="M12.8637 12.8161C13.3483 12.9811 13.7979 12.9215 14.1951 12.5823C14.2999 12.4952 14.3304 12.5135 14.4047 12.6098C14.5488 12.8069 14.7976 12.8756 15.0158 12.7886C15.2297 12.7198 15.3782 12.509 15.3782 12.2706C15.3869 11.3538 15.3913 10.437 15.3782 9.52025C15.3738 9.15356 15.0507 8.91976 14.7059 8.99308C14.5269 9.02978 14.4177 9.16267 14.3129 9.30476C13.7673 8.8051 13.1648 8.77303 12.5711 9.14428C11.8552 9.58438 11.5889 10.2994 11.6806 11.1383C11.7679 11.913 12.0866 12.5502 12.8637 12.8161ZM13.5796 9.97401C13.7848 9.97857 13.9769 10.084 14.0991 10.2628C14.3435 10.6112 14.3435 11.1842 14.0991 11.5326C14.0555 11.5921 14.0074 11.6426 13.955 11.6839C13.6364 11.9314 13.1867 11.8626 12.951 11.5326C12.8374 11.3721 12.7764 11.1796 12.7676 10.9779C12.7633 10.3316 13.0995 9.94195 13.5796 9.97401Z" fill="white"/>
<path d="M15.8583 12.2201C15.8583 12.5089 16.0242 12.7519 16.2425 12.8114C16.2949 12.8252 16.3516 12.8297 16.404 12.8297C16.7139 12.8205 16.9584 12.5501 16.954 12.2247C16.9583 11.5142 16.954 10.8037 16.954 10.0932C16.954 9.37814 16.9583 8.65845 16.954 7.94339C16.954 7.57671 16.7313 7.34747 16.3996 7.35211C16.0765 7.35211 15.8626 7.58127 15.8582 7.93428C15.8539 8.14968 15.8582 8.36062 15.8582 8.57602L15.8583 12.2201Z" fill="white"/>
</svg>
