<svg width="64" height="64" viewBox="0 0 64 64" fill="none" xmlns="http://www.w3.org/2000/svg">
<path d="M32 3.13687C33.4253 2.95139 34.8733 2.84401 36.3474 2.84401C41.6222 2.84401 46.6073 4.08379 51.0328 6.277C45.7125 2.33313 39.1296 0 32 0C24.8705 0 18.2843 2.33313 12.9673 6.277C17.3927 4.08379 22.3779 2.84401 27.6527 2.84401C29.1267 2.84401 30.5748 2.94814 32 3.13687Z" fill="#12253C"/>
<path d="M51.459 6.49533C51.3158 6.42374 51.1759 6.3489 51.0327 6.27731C51.1466 6.36192 51.254 6.44652 51.3679 6.53113C51.3972 6.51811 51.4265 6.50835 51.459 6.49533Z" fill="#E7E643"/>
<path d="M32 3.13676C37.2943 3.83312 42.1948 5.77252 46.3958 8.66208C48.013 7.87787 49.6758 7.175 51.3647 6.5307C51.254 6.4461 51.1434 6.36149 51.0295 6.27689C46.604 4.08368 41.6189 2.8439 36.3441 2.8439C34.8733 2.8439 33.422 2.94803 32 3.13676Z" fill="#214389"/>
<path d="M56.8931 20.4188C58.2012 19.6476 59.5354 18.9252 60.8988 18.2451C58.6926 13.6179 55.406 9.60565 51.3678 6.53061C49.6757 7.1749 48.0162 7.88103 46.3989 8.66199C50.7723 11.672 54.3843 15.7069 56.8931 20.4188Z" fill="#1D61AE"/>
<path d="M60.7491 35.3877C61.7969 34.2911 62.8739 33.2173 63.9966 32.1955C63.9966 32.1304 63.9998 32.0686 63.9998 32.0035C63.9998 27.0802 62.8837 22.4172 60.8988 18.2488C59.5353 18.9289 58.2012 19.6545 56.8931 20.4225C59.2783 24.8967 60.658 29.9828 60.7491 35.3877Z" fill="#0087B1"/>
<path d="M55.8096 53.3758C60.8598 47.7528 63.9479 40.3337 63.9967 32.1921C62.8741 33.2139 61.8002 34.2877 60.7492 35.3843C60.7524 35.5731 60.7622 35.7618 60.7622 35.9538C60.7622 42.3479 58.9464 48.3158 55.8096 53.3758Z" fill="#00AEA2"/>
<path d="M12.9673 6.27731C12.8241 6.3489 12.6842 6.42374 12.541 6.49533C12.5703 6.50835 12.6028 6.51811 12.6321 6.53113C12.7428 6.44652 12.8534 6.36192 12.9673 6.27731Z" fill="#E7E643"/>
<path d="M17.601 8.66208C21.802 5.77252 26.7025 3.82987 31.9968 3.13676C30.5716 2.95129 29.1235 2.8439 27.6495 2.8439C22.3747 2.8439 17.3895 4.08368 12.9641 6.27689C12.8502 6.36149 12.7428 6.4461 12.6289 6.5307C14.3242 7.175 15.9838 7.88112 17.601 8.66208Z" fill="#214389"/>
<path d="M46.3955 8.66207C42.1946 5.7725 37.2941 3.82985 31.9998 3.13675C26.7055 3.83311 21.8049 5.7725 17.604 8.66207C22.8527 11.2035 27.6915 14.4607 31.9998 18.2972C36.3114 14.464 41.1468 11.2035 46.3955 8.66207Z" fill="#1D61AE"/>
<path d="M43.1027 31.2843C47.18 27.0736 51.8137 23.4128 56.8932 20.4224C54.3844 15.7106 50.7692 11.6756 46.3958 8.66562C41.1438 11.207 36.3083 14.4643 32 18.3008C36.2628 22.0949 40.0016 26.4651 43.1027 31.2843Z" fill="#0087B1"/>
<path d="M60.7491 35.3875C60.658 29.9858 59.2783 24.8965 56.8931 20.4223C51.8135 23.416 47.1798 27.0767 43.1025 31.2842C46.5323 36.6143 49.181 42.491 50.8796 48.7648C53.5935 43.8837 56.9191 39.3932 60.7491 35.3875Z" fill="#00AEA2"/>
<path d="M52.4678 56.597C53.6588 55.6045 54.7749 54.5274 55.8097 53.3755C58.9466 48.3155 60.7623 42.3476 60.7623 35.9567C60.7623 35.7647 60.7526 35.576 60.7493 35.3873C56.9193 39.3962 53.5937 43.8835 50.8799 48.7645C51.5697 51.3124 52.1001 53.9287 52.4678 56.597Z" fill="#58BD83"/>
<path d="M17.601 8.66199C15.9837 7.87777 14.3209 7.1749 12.6321 6.53061C8.59386 9.60565 5.3073 13.6179 3.10107 18.2451C4.46451 18.9252 5.79866 19.6508 7.10677 20.4188C9.61562 15.7069 13.2276 11.672 17.601 8.66199Z" fill="#1D61AE"/>
<path d="M7.10352 20.4191C12.183 23.4128 16.8168 27.0735 20.894 31.281C23.9951 26.4618 27.734 22.0917 31.9967 18.2975C27.6852 14.461 22.8497 11.2037 17.601 8.66232C13.2276 11.6723 9.61562 15.7073 7.10352 20.4191Z" fill="#0087B1"/>
<path d="M0.00325471 32.192C1.12589 33.2137 2.19972 34.2876 3.25076 35.3842C3.34188 29.9825 4.72158 24.8932 7.10677 20.419C5.79866 19.6478 4.46451 18.9254 3.10108 18.2453C1.11287 22.4137 0 27.0767 0 32C0 32.0651 0.00325471 32.1302 0.00325471 32.192Z" fill="#0087B1"/>
<path d="M20.8941 31.2839C16.8201 27.0732 12.1831 23.4124 7.10357 20.4187C4.72163 24.8963 3.33867 29.9823 3.24756 35.3839C7.07754 39.3929 10.4031 43.8802 13.117 48.7612C14.8188 42.4907 17.4644 36.614 20.8941 31.2839Z" fill="#00AEA2"/>
<path d="M26.0713 63.4434C27.9944 63.8046 29.9729 63.9998 32.0001 63.9998C34.0274 63.9998 36.0058 63.8014 37.9289 63.4434C36.7184 57.5374 34.6912 51.9307 32.0001 46.7275C29.309 51.934 27.2818 57.5374 26.0713 63.4434Z" fill="#ADC680"/>
<path d="M3.25093 35.3872C2.20313 34.2906 1.12605 33.2168 0.00341797 32.195C0.0522282 40.3366 3.13704 47.7557 8.18727 53.3787C5.0504 48.3187 3.23466 42.3508 3.23466 35.9599C3.23466 35.7647 3.24767 35.5759 3.25093 35.3872Z" fill="#00AEA2"/>
<path d="M11.5323 56.597C11.9 53.9287 12.4304 51.3157 13.1202 48.7645C10.4064 43.8835 7.08079 39.3962 3.25081 35.3873C3.24756 35.576 3.23779 35.7647 3.23779 35.9567C3.23779 42.3476 5.05353 48.3155 8.19041 53.3755C9.22518 54.5274 10.3413 55.6045 11.5323 56.597Z" fill="#58BD83"/>
<path d="M43.1029 31.2839C40.0018 26.4647 36.2629 22.0946 32.0002 18.3004C27.7342 22.0946 23.9985 26.4647 20.8975 31.2839C25.3099 35.8428 29.0618 41.0395 32.0002 46.7275C34.9418 41.0395 38.6904 35.8395 43.1029 31.2839Z" fill="#00AEA2"/>
<path d="M37.9288 63.4434C40.6329 62.9358 43.2198 62.093 45.6408 60.9509C46.975 56.6816 48.7419 52.6043 50.8798 48.7646C49.1812 42.4908 46.5324 36.6141 43.1027 31.284C38.6903 35.8429 34.9384 41.0395 32 46.7276C34.6911 51.934 36.7151 57.5374 37.9288 63.4434Z" fill="#58BD83"/>
<path d="M50.8801 48.7645C48.7422 52.6075 46.972 56.6815 45.6411 60.9508C48.1044 59.7858 50.3985 58.3215 52.468 56.5969C52.1003 53.9286 51.5699 51.3124 50.8801 48.7645Z" fill="#ADC680"/>
<path d="M18.3591 60.9509C20.7801 62.093 23.3638 62.9358 26.0711 63.4434C27.2816 57.5374 29.3089 51.9307 31.9999 46.7276C29.0583 41.0395 25.3097 35.8429 20.8972 31.284C17.4675 36.6141 14.8187 42.4908 13.1201 48.7646C15.2548 52.6076 17.0249 56.6816 18.3591 60.9509Z" fill="#58BD83"/>
<path d="M11.5322 56.5968C13.6018 58.3215 15.8959 59.789 18.3592 60.9507C17.025 56.6814 15.2581 52.6042 13.1202 48.7612C12.4271 51.3123 11.8967 53.9285 11.5322 56.5968Z" fill="#ADC680"/>
<path d="M60.8989 18.2453C58.6927 13.6181 55.4061 9.60586 51.3679 6.53081C51.3972 6.5178 51.4297 6.50803 51.459 6.49502C51.3159 6.42343 51.1759 6.34859 51.0327 6.277C45.7124 2.33313 39.1296 0 32 0C24.8705 0 18.2843 2.33313 12.9673 6.277C12.8241 6.34859 12.6842 6.42343 12.541 6.49502C12.5703 6.50803 12.6028 6.5178 12.6321 6.53081C8.59386 9.60586 5.3073 13.6181 3.10108 18.2453C1.11287 22.4137 0 27.0767 0 32C0 32.0651 0.00325417 32.1269 0.00650818 32.192C0.0553184 40.3335 3.14013 47.7527 8.19036 53.3756C9.22514 54.5276 10.3413 55.6046 11.5322 56.5971C13.6018 58.3217 15.8959 59.7893 18.3592 60.951C20.7802 62.0932 23.3638 62.9359 26.0712 63.4436C27.9943 63.8048 29.9728 64 32 64C34.0273 64 36.0057 63.8015 37.9288 63.4436C40.6329 62.9359 43.2199 62.0932 45.6408 60.951C48.1041 59.7861 50.3982 58.3217 52.4678 56.5971C53.6587 55.6046 54.7749 54.5276 55.8096 53.3756C60.8599 47.7527 63.9479 40.3335 63.9968 32.192C63.9968 32.1269 64 32.0651 64 32C64 27.0767 62.8839 22.4137 60.8989 18.2453Z" fill="url(#paint0_linear)"/>
<path d="M60.8989 18.2453C58.6927 13.6181 55.4061 9.60586 51.3679 6.53081C51.3972 6.5178 51.4297 6.50803 51.459 6.49502C51.3159 6.42343 51.1759 6.34859 51.0327 6.277C45.7124 2.33313 39.1296 0 32 0C24.8705 0 18.2843 2.33313 12.9673 6.277C12.8241 6.34859 12.6842 6.42343 12.541 6.49502C12.5703 6.50803 12.6028 6.5178 12.6321 6.53081C8.59386 9.60586 5.3073 13.6181 3.10108 18.2453C1.11287 22.4137 0 27.0767 0 32C0 32.0651 0.00325417 32.1269 0.00650818 32.192C0.0553184 40.3335 3.14013 47.7527 8.19036 53.3756C9.22514 54.5276 10.3413 55.6046 11.5322 56.5971C13.6018 58.3217 15.8959 59.7893 18.3592 60.951C20.7802 62.0932 23.3638 62.9359 26.0712 63.4436C27.9943 63.8048 29.9728 64 32 64C34.0273 64 36.0057 63.8015 37.9288 63.4436C40.6329 62.9359 43.2199 62.0932 45.6408 60.951C48.1041 59.7861 50.3982 58.3217 52.4678 56.5971C53.6587 55.6046 54.7749 54.5276 55.8096 53.3756C60.8599 47.7527 63.9479 40.3335 63.9968 32.192C63.9968 32.1269 64 32.0651 64 32C64 27.0767 62.8839 22.4137 60.8989 18.2453Z" fill="url(#paint1_linear)"/>
<path d="M43.7044 16.9861C39.1357 22.2088 34.7363 29.9664 31.9313 35.3746C29.1264 29.9664 24.727 22.2088 20.1583 16.9861C19.6051 16.3516 18.6289 16.4297 18.1799 17.1521C13.5982 24.5289 9.60879 36.8877 8.69767 41.0333C8.57727 41.5832 8.6814 42.156 8.99378 42.6148C10.0481 44.1669 11.1512 45.9729 12.0981 47.6585C12.4105 48.2149 13.211 48.1238 13.3965 47.5088C15.1016 41.8371 17.8805 35.2509 20.8482 31.0305C23.357 32.9926 27.6523 39.8033 30.1189 43.9066L31.5604 46.3634C31.7556 46.6953 32.234 46.6855 32.4194 46.3504L33.7503 43.9066C36.2136 39.8033 40.5122 32.9926 43.021 31.0305C45.9887 35.2509 48.7676 41.8371 50.4727 47.5088C50.6582 48.1238 51.4587 48.2149 51.7711 47.6585C52.7148 45.9729 53.8211 44.1669 54.8754 42.6148C55.1878 42.156 55.2952 41.58 55.1715 41.0333C54.2604 36.8877 50.271 24.5289 45.6861 17.1521C45.237 16.4329 44.2608 16.3516 43.7044 16.9861Z" fill="url(#paint2_radial)"/>
<path opacity="0.57" d="M54.8724 42.6146C53.8181 44.1668 52.715 45.9728 51.7681 47.6584C51.4557 48.2148 50.6552 48.1237 50.4697 47.5087C48.7646 41.8369 45.9857 35.2508 43.0181 31.0303C40.5125 32.9925 36.2139 39.8032 33.7474 43.9065L32.4165 46.3502C32.2342 46.6854 31.7526 46.6952 31.5574 46.3633L30.1159 43.9065C27.6526 39.8032 23.354 32.9925 20.8452 31.0303C17.8775 35.2508 15.0986 41.8369 13.3935 47.5087C13.208 48.1237 12.4075 48.2148 12.0951 47.6584C11.1515 45.9728 10.0451 44.1668 8.99079 42.6146C8.80206 42.338 8.69142 42.0191 8.65563 41.6905C8.60357 42.1688 8.72071 42.6504 8.99079 43.0474C10.0451 44.5996 11.1482 46.4056 12.0951 48.0911C12.4075 48.6476 13.208 48.5565 13.3935 47.9415C15.0856 42.312 17.8352 35.7877 20.7768 31.564C20.8159 31.5087 20.8907 31.4957 20.9428 31.538C23.4614 33.5945 27.6851 40.2848 30.1159 44.336L31.4565 46.6203C31.6941 47.0271 32.2863 47.0173 32.5141 46.6041L33.7506 44.336C36.1846 40.2848 40.4051 33.5945 42.9237 31.5347C42.9757 31.4924 43.0506 31.5054 43.0896 31.5607C46.0313 35.7845 48.7777 42.312 50.473 47.9382C50.6585 48.5532 51.459 48.6443 51.7714 48.0879C52.715 46.4023 53.8214 44.5963 54.8757 43.0442C55.1458 42.6472 55.2597 42.1656 55.2109 41.6872C55.1718 42.0191 55.0579 42.338 54.8724 42.6146Z" fill="#CFDD2C"/>
<path opacity="0.47" d="M8.69802 41.6353C9.60915 37.4897 13.5986 25.1309 18.1835 17.7541C18.6293 17.0349 19.6055 16.9568 20.1619 17.5881C24.7306 22.8108 29.13 30.5684 31.935 35.9766C34.7399 30.5684 39.1393 22.8108 43.708 17.5881C44.2612 16.9536 45.2374 17.0317 45.6864 17.7541C50.2713 25.1309 54.2608 37.4897 55.1719 41.6353C55.1816 41.6841 55.1882 41.7329 55.1947 41.7785C55.2305 41.5344 55.2239 41.2806 55.1719 41.0333C54.2608 36.8877 50.2713 24.5289 45.6864 17.1521C45.2406 16.4329 44.2644 16.3549 43.708 16.9861C39.1393 22.2088 34.7399 29.9664 31.935 35.3746C29.13 29.9664 24.7306 22.2088 20.1619 16.9861C19.6087 16.3516 18.6325 16.4297 18.1835 17.1521C13.5986 24.5289 9.60915 36.8877 8.69802 41.0333C8.6427 41.2806 8.63619 41.5344 8.67524 41.7785C8.6785 41.7297 8.685 41.6841 8.69802 41.6353Z" fill="#152E68"/>
<path d="M30.1157 43.9068C30.7568 44.9741 31.2709 45.8527 31.5996 46.4189C31.7493 46.6759 32.117 46.6759 32.2666 46.4189C32.5953 45.8527 33.1094 44.9708 33.7505 43.9068L34.8959 41.8047C34.961 41.6843 34.9675 41.5411 34.9089 41.4174C34.5998 40.7504 33.5227 38.44 31.9347 35.378C30.3468 38.44 29.2664 40.7504 28.9606 41.4174C28.902 41.5411 28.9085 41.6843 28.9736 41.8047L30.1157 43.9068Z" fill="url(#paint3_radial)"/>
<defs>
<linearGradient id="paint0_linear" x1="65.3278" y1="53.0249" x2="42.7908" y2="38.8077" gradientUnits="userSpaceOnUse">
<stop stop-color="#00AEEF"/>
<stop offset="1" stop-color="#00AEEF" stop-opacity="0"/>
</linearGradient>
<linearGradient id="paint1_linear" x1="4.55165" y1="53.0048" x2="10.3175" y2="48.5817" gradientUnits="userSpaceOnUse">
<stop stop-color="#00B4B0"/>
<stop offset="0.4394" stop-color="#4DBFA2" stop-opacity="0.5606"/>
<stop offset="1" stop-color="#9CD08C" stop-opacity="0"/>
</linearGradient>
<radialGradient id="paint2_radial" cx="0" cy="0" r="1" gradientUnits="userSpaceOnUse" gradientTransform="translate(35.7419 25.0042) scale(21.5134 22.3473)">
<stop stop-color="#00AEA2"/>
<stop offset="0.5587" stop-color="#1C60AC"/>
<stop offset="1" stop-color="#214289"/>
</radialGradient>
<radialGradient id="paint3_radial" cx="0" cy="0" r="1" gradientUnits="userSpaceOnUse" gradientTransform="translate(37.7705 33.0701) scale(21.42 22.2502)">
<stop stop-color="#00AEA2"/>
<stop offset="0.5587" stop-color="#1C60AC"/>
<stop offset="1" stop-color="#214289"/>
</radialGradient>
</defs>
</svg>
