<svg width="45" height="45" viewBox="0 0 45 45" fill="none"
    xmlns="http://www.w3.org/2000/svg">
    <path d="M22.499 2.20496C23.498 2.0736 24.5206 1.99854 25.5571 1.99854C29.2626 1.99854 32.7663 2.87114 35.8808 4.41462C32.1378 1.64199 27.5084 0 22.499 0C17.4849 0 12.8602 1.64199 9.11719 4.41462C12.2269 2.87114 15.7307 1.99854 19.4408 1.99854C20.4774 1.99854 21.4952 2.0736 22.499 2.20496Z" fill="#12253C"/>
    <path d="M36.1678 4.56497C36.0693 4.51337 35.9708 4.46176 35.8676 4.41016C35.9473 4.46645 36.0224 4.52744 36.1021 4.58843C36.1256 4.58374 36.149 4.57436 36.1678 4.56497Z" fill="#E7E643"/>
    <path d="M22.4954 2.20525C26.2149 2.69316 29.6623 4.05836 32.6126 6.08974C33.7477 5.54085 34.9156 5.04356 36.107 4.58849C36.0273 4.5275 35.9522 4.46651 35.8725 4.41022C32.7627 2.86674 29.259 1.99414 25.5488 1.99414C24.5122 1.99883 23.4944 2.07389 22.4954 2.20525Z" fill="#214389"/>
    <path d="M39.9913 14.3556C40.9107 13.8161 41.8487 13.3047 42.8056 12.8262C41.2531 9.57505 38.9454 6.75551 36.1077 4.59277C34.921 5.04784 33.7531 5.54044 32.6133 6.09402C35.6902 8.20516 38.2277 11.0435 39.9913 14.3556Z" fill="#1D61AE"/>
    <path d="M42.7028 24.8784C43.4392 24.1043 44.1943 23.3537 44.9823 22.6312C44.9823 22.5843 44.987 22.5421 44.987 22.4952C44.987 19.0329 44.2037 15.7536 42.806 12.8262C41.8491 13.3047 40.911 13.8114 39.9917 14.3556C41.6662 17.5035 42.6371 21.0784 42.7028 24.8784Z" fill="#0087B1"/>
    <path d="M39.2301 37.5219C42.7808 33.5717 44.9477 28.3549 44.9853 22.6313C44.1973 23.3491 43.4421 24.1044 42.7057 24.8785C42.7057 25.0146 42.7151 25.1459 42.7151 25.2773C42.7104 29.7717 41.4346 33.9658 39.2301 37.5219Z" fill="#00AEA2"/>
    <path d="M9.11666 4.41455C9.01814 4.46616 8.91962 4.51776 8.81641 4.56937C8.83986 4.57875 8.85863 4.58813 8.88209 4.59282C8.96184 4.53184 9.04159 4.47085 9.11666 4.41455Z" fill="#E7E643"/>
    <path d="M12.3772 6.08944C15.3322 4.05806 18.7749 2.69286 22.4991 2.20496C21.5001 2.0736 20.4776 1.99854 19.441 1.99854C15.7355 1.99854 12.2318 2.87114 9.11733 4.41461C9.0376 4.47091 8.96255 4.5319 8.88281 4.59288C10.0742 5.04326 11.2421 5.54055 12.3772 6.08944Z" fill="#214389"/>
    <path d="M32.6103 6.08957C29.6553 4.05819 26.2126 2.69298 22.493 2.20508C18.7688 2.69298 15.3261 4.05819 12.3711 6.08957C16.0625 7.87699 19.4583 10.1664 22.4884 12.864C25.5231 10.1664 28.9189 7.87699 32.6103 6.08957Z" fill="#1D61AE"/>
    <path d="M30.2995 21.9932C33.1653 19.033 36.4205 16.4621 39.9946 14.3556C38.231 11.0435 35.6888 8.20518 32.6165 6.08936C28.9252 7.87678 25.5293 10.1662 22.4993 12.8638C25.4918 15.5332 28.1184 18.606 30.2995 21.9932Z" fill="#0087B1"/>
    <path d="M42.6992 24.8783C42.6335 21.0783 41.6626 17.5034 39.9881 14.3555C36.4187 16.4572 33.1588 19.0328 30.293 21.9931C32.7039 25.7415 34.566 29.87 35.7573 34.2799C37.671 30.8505 40.0069 27.6931 42.6992 24.8783Z" fill="#00AEA2"/>
    <path d="M36.8823 39.7877C37.7172 39.0887 38.5052 38.3334 39.2322 37.5218C41.4367 33.9657 42.7125 29.7716 42.7125 25.2772C42.7125 25.1411 42.7031 25.0098 42.7031 24.8784C40.0108 27.698 37.675 30.8506 35.766 34.2847C36.2491 36.0721 36.6243 37.9112 36.8823 39.7877Z" fill="#58BD83"/>
    <path d="M12.372 6.08963C11.2369 5.54074 10.069 5.04345 8.87762 4.58838C6.03991 6.75581 3.73222 9.57535 2.17969 12.8265C3.13654 13.305 4.07462 13.8117 4.99395 14.3559C6.75755 11.0438 9.29976 8.20546 12.372 6.08963Z" fill="#1D61AE"/>
    <path d="M4.99609 14.3556C8.56551 16.4574 11.8254 19.033 14.6912 21.9932C16.8723 18.606 19.4989 15.5332 22.4961 12.8638C19.4661 10.1662 16.0655 7.87678 12.3741 6.08936C9.30191 8.20518 6.7597 11.0435 4.99609 14.3556Z" fill="#0087B1"/>
    <path d="M0.00469072 22.6312C0.792683 23.349 1.54784 24.1043 2.28424 24.8784C2.34991 21.0784 3.32083 17.5035 4.99531 14.3556C4.07599 13.8161 3.1379 13.3047 2.18105 12.8262C0.783302 15.7536 0 19.0329 0 22.4952C0 22.5421 0.00469072 22.5843 0.00469072 22.6312Z" fill="#0087B1"/>
    <path d="M14.6909 21.9931C11.825 19.0328 8.56516 16.4572 4.99574 14.3555C3.32125 17.5034 2.35033 21.0783 2.28467 24.8783C4.97698 27.6978 7.31281 30.8505 9.22182 34.2846C10.4179 29.87 12.28 25.7368 14.6909 21.9931Z" fill="#00AEA2"/>
    <path d="M18.3243 44.6011C19.6752 44.8544 21.0682 44.9952 22.4941 44.9952C23.92 44.9952 25.3084 44.8544 26.6639 44.6011C25.8103 40.4492 24.3891 36.5084 22.4941 32.8491C20.5992 36.5084 19.178 40.4492 18.3243 44.6011Z" fill="#ADC680"/>
    <path d="M2.28431 24.8785C1.54791 24.1044 0.792753 23.3538 0.00476074 22.6313C0.0375938 28.3549 2.20926 33.5717 5.75992 37.5219C3.55542 33.9658 2.27962 29.7717 2.27962 25.2773C2.27493 25.1413 2.28431 25.0099 2.28431 24.8785Z" fill="#00AEA2"/>
    <path d="M8.10364 39.788C8.36162 37.9114 8.73685 36.0724 9.21997 34.2803C7.31096 30.8509 4.97513 27.6936 2.28282 24.874C2.28282 25.0101 2.27344 25.1414 2.27344 25.2728C2.27344 29.7672 3.54923 33.9613 5.75374 37.5174C6.48545 38.3337 7.26875 39.089 8.10364 39.788Z" fill="#58BD83"/>
    <path d="M30.3017 21.9933C28.1206 18.6061 25.494 15.5332 22.4968 12.8638C19.4996 15.5332 16.8729 18.6014 14.6919 21.9933C17.7923 25.1975 20.4283 28.8521 22.4968 32.8492C24.5606 28.8521 27.1966 25.1975 30.3017 21.9933Z" fill="#00AEA2"/>
    <path d="M26.6625 44.6011C28.5622 44.2445 30.3821 43.6534 32.0847 42.8465C33.0228 39.844 34.2657 36.9775 35.7667 34.28C34.5706 29.87 32.7132 25.7369 30.3023 21.9932C27.1973 25.1974 24.5612 28.852 22.4974 32.8491C24.3877 36.5084 25.8089 40.4492 26.6625 44.6011Z" fill="#58BD83"/>
    <path d="M35.7684 34.2803C34.2675 36.9825 33.0245 39.8443 32.0864 42.8468C33.8172 42.0305 35.4307 40.9984 36.8847 39.7833C36.6268 37.9114 36.2515 36.0724 35.7684 34.2803Z" fill="#ADC680"/>
    <path d="M12.9088 42.8512C14.6114 43.6534 16.4266 44.2492 18.3309 44.6058C19.1846 40.4539 20.6058 36.5131 22.5007 32.8538C20.4276 28.852 17.7915 25.1974 14.6912 21.9932C12.2803 25.7416 10.4182 29.87 9.22681 34.28C10.7277 36.9822 11.9707 39.8487 12.9088 42.8512Z" fill="#58BD83"/>
    <path d="M8.10596 39.7877C9.55999 41.0028 11.1735 42.0302 12.9043 42.8512C11.9662 39.8487 10.7232 36.9822 9.22228 34.2847C8.73916 36.0721 8.36393 37.9111 8.10596 39.7877Z" fill="#ADC680"/>
    <path d="M42.8049 12.8263C41.2523 9.57517 38.9447 6.75563 36.1069 4.59289C36.1304 4.58351 36.1492 4.57412 36.1726 4.56943C36.0741 4.51783 35.9756 4.46622 35.8724 4.41462C32.1341 1.64199 27.5047 0 22.4953 0C17.4812 0 12.8565 1.64199 9.11351 4.41462C9.01501 4.46622 8.91651 4.51783 8.81332 4.56943C8.83677 4.57882 8.85554 4.5882 8.87899 4.59289C6.04128 6.75563 3.73358 9.57517 2.18105 12.8263C0.783302 15.7538 0 19.033 0 22.4953C0 22.5422 0.00469072 22.5844 0.00469072 22.6314C0.0375237 28.3549 2.20919 33.5717 5.75985 37.5219C6.48687 38.3335 7.27017 39.0888 8.10976 39.7878C9.56379 41.0029 11.1773 42.0303 12.9081 42.8513C14.6107 43.6536 16.4259 44.2494 18.3302 44.6059C19.6811 44.8593 21.0741 45 22.5 45C23.9259 45 25.3143 44.8593 26.6698 44.6059C28.5694 44.2494 30.3893 43.6583 32.0919 42.8513C33.8227 42.035 35.4362 41.0029 36.8902 39.7878C37.7251 39.0888 38.5131 38.3335 39.2402 37.5219C42.7908 33.5717 44.9578 28.3549 44.9953 22.6314C44.9953 22.5844 45 22.5422 45 22.4953C44.9859 19.033 44.2026 15.7584 42.8049 12.8263Z" fill="url(#paint0_linear)"/>
    <path d="M42.8049 12.8263C41.2523 9.57517 38.9447 6.75563 36.1069 4.59289C36.1304 4.58351 36.1492 4.57412 36.1726 4.56943C36.0741 4.51783 35.9756 4.46622 35.8724 4.41462C32.1341 1.64199 27.5047 0 22.4953 0C17.4812 0 12.8565 1.64199 9.11351 4.41462C9.01501 4.46622 8.91651 4.51783 8.81332 4.56943C8.83677 4.57882 8.85554 4.5882 8.87899 4.59289C6.04128 6.75563 3.73358 9.57517 2.18105 12.8263C0.783302 15.7538 0 19.033 0 22.4953C0 22.5422 0.00469072 22.5844 0.00469072 22.6314C0.0375237 28.3549 2.20919 33.5717 5.75985 37.5219C6.48687 38.3335 7.27017 39.0888 8.10976 39.7878C9.56379 41.0029 11.1773 42.0303 12.9081 42.8513C14.6107 43.6536 16.4259 44.2494 18.3302 44.6059C19.6811 44.8593 21.0741 45 22.5 45C23.9259 45 25.3143 44.8593 26.6698 44.6059C28.5694 44.2494 30.3893 43.6583 32.0919 42.8513C33.8227 42.035 35.4362 41.0029 36.8902 39.7878C37.7251 39.0888 38.5131 38.3335 39.2402 37.5219C42.7908 33.5717 44.9578 28.3549 44.9953 22.6314C44.9953 22.5844 45 22.5422 45 22.4953C44.9859 19.033 44.2026 15.7584 42.8049 12.8263Z" fill="url(#paint1_linear)"/>
    <path d="M30.7257 11.9396C27.5128 15.613 24.4218 21.0644 22.4518 24.8692C20.4818 21.0691 17.3861 15.613 14.1779 11.9443C13.7886 11.4986 13.1038 11.5549 12.7895 12.0616C9.5625 17.2456 6.75762 25.9341 6.11973 28.8475C6.0353 29.2322 6.11035 29.6356 6.3308 29.9593C7.07188 31.0524 7.8458 32.3191 8.51185 33.506C8.7323 33.8954 9.29515 33.8344 9.42179 33.4028C10.6225 29.4151 12.5738 24.7847 14.661 21.8197C16.4246 23.199 19.4452 27.9889 21.176 30.8695L22.1891 32.5959C22.3252 32.8305 22.6629 32.8211 22.7942 32.5865L23.7323 30.8695C25.4631 27.9843 28.4837 23.199 30.2473 21.8197C32.3345 24.7847 34.2858 29.4151 35.4865 33.4028C35.6179 33.8344 36.1807 33.9001 36.3965 33.506C37.0625 32.3191 37.8364 31.0524 38.5775 29.9593C38.798 29.6356 38.873 29.2322 38.7886 28.8475C38.146 25.9341 35.3458 17.2456 32.1235 12.0569C31.7998 11.5502 31.115 11.494 30.7257 11.9396Z" fill="url(#paint2_radial)"/>
    <path opacity="0.57" d="M38.5712 29.9592C37.8301 31.0523 37.0562 32.319 36.3902 33.5059C36.1697 33.8953 35.6069 33.8343 35.4802 33.4027C34.2795 29.415 32.3283 24.7846 30.241 21.8196C28.4774 23.1989 25.4568 27.9888 23.726 30.8694L22.7879 32.5864C22.6613 32.821 22.3189 32.8304 22.1828 32.5958L21.1697 30.8694C19.4389 27.9795 16.4183 23.1942 14.6594 21.8149C12.5722 24.7799 10.6209 29.4103 9.42018 33.398C9.28885 33.8296 8.726 33.8953 8.51024 33.5012C7.8442 32.3143 7.07028 31.0476 6.32919 29.9545C6.19786 29.7622 6.11812 29.537 6.09467 29.3071C6.05714 29.6449 6.14157 29.9827 6.32919 30.2595C7.07028 31.3479 7.8442 32.6193 8.51024 33.8062C8.73069 34.1956 9.29354 34.1346 9.42018 33.703C10.6116 29.7481 12.544 25.1599 14.6078 22.1903C14.6359 22.1527 14.6875 22.1433 14.7251 22.1715C16.498 23.6164 19.4624 28.3219 21.1744 31.1696L22.1172 32.7741C22.286 33.0602 22.6988 33.0556 22.8583 32.76L23.726 31.1649C25.438 28.3172 28.4024 23.6118 30.1753 22.1668C30.2129 22.1386 30.2645 22.1433 30.2926 22.1856C32.3611 25.1552 34.2935 29.7434 35.4802 33.6983C35.6116 34.1299 36.1744 34.1956 36.3902 33.8015C37.0562 32.6146 37.8301 31.3479 38.5712 30.2548C38.7588 29.9733 38.8433 29.6355 38.8057 29.3024C38.7823 29.5417 38.7025 29.7622 38.5712 29.9592Z" fill="#CFDD2C"/>
    <path opacity="0.47" d="M6.11903 29.2697C6.75693 26.3563 9.56181 17.6678 12.7841 12.4791C13.0984 11.9725 13.7832 11.9162 14.1725 12.3619C17.3854 16.0352 20.4764 21.4867 22.4464 25.2867C24.4164 21.4867 27.5121 16.0305 30.7203 12.3619C31.1096 11.9162 31.7945 11.9725 32.1087 12.4791C35.3357 17.6678 38.1406 26.3563 38.7832 29.2697C38.7926 29.3025 38.7973 29.3354 38.802 29.3729C38.8254 29.1993 38.8254 29.0211 38.7832 28.8475C38.1406 25.9341 35.3404 17.2456 32.1181 12.0569C31.8038 11.5502 31.119 11.494 30.7297 11.9396C27.5121 15.613 24.4211 21.0644 22.4511 24.8692C20.4811 21.0691 17.3854 15.613 14.1772 11.9443C13.7879 11.4986 13.1031 11.5549 12.7888 12.0616C9.56181 17.2456 6.75693 25.9341 6.11903 28.8475C6.08151 29.0211 6.07682 29.1993 6.10027 29.3729C6.10496 29.3354 6.10965 29.3025 6.11903 29.2697Z" fill="#152E68"/>
    <path d="M21.1743 30.8648C21.6247 31.6154 21.986 32.2347 22.2158 32.6287C22.3191 32.8117 22.5818 32.8117 22.685 32.6287C22.9149 32.23 23.2761 31.6107 23.7265 30.8648L24.5334 29.387C24.5803 29.3025 24.585 29.204 24.5428 29.1149C24.327 28.6457 23.567 27.0225 22.4504 24.8691C21.3339 27.0225 20.5738 28.6457 20.358 29.1149C20.3158 29.204 20.3205 29.3025 20.3674 29.387L21.1743 30.8648Z" fill="url(#paint3_radial)"/>
    <defs>
        <linearGradient id="paint0_linear" x1="45.9186" y1="37.2767" x2="30.0764" y2="27.2849" gradientUnits="userSpaceOnUse">
            <stop stop-color="#00AEEF"/>
            <stop offset="1" stop-color="#00AEEF" stop-opacity="0"/>
        </linearGradient>
        <linearGradient id="paint1_linear" x1="3.20162" y1="37.2626" x2="7.25483" y2="34.1539" gradientUnits="userSpaceOnUse">
            <stop stop-color="#00B4B0"/>
            <stop offset="0.4394" stop-color="#4DBFA2" stop-opacity="0.5606"/>
            <stop offset="1" stop-color="#9CD08C" stop-opacity="0"/>
        </linearGradient>
        <radialGradient id="paint2_radial" cx="0" cy="0" r="1" gradientUnits="userSpaceOnUse" gradientTransform="translate(25.1277 17.5781) scale(15.1209 15.7102)">
            <stop stop-color="#00AEA2"/>
            <stop offset="0.5587" stop-color="#1C60AC"/>
            <stop offset="1" stop-color="#214289"/>
        </radialGradient>
        <radialGradient id="paint3_radial" cx="0" cy="0" r="1" gradientUnits="userSpaceOnUse" gradientTransform="translate(26.5528 23.2484) scale(15.0583 15.642)">
            <stop stop-color="#00AEA2"/>
            <stop offset="0.5587" stop-color="#1C60AC"/>
            <stop offset="1" stop-color="#214289"/>
        </radialGradient>
    </defs>
</svg>
