<svg width="25" height="25" viewBox="0 0 25 25" fill="none"
    xmlns="http://www.w3.org/2000/svg">
    <path d="M12.4993 1.22498C13.0544 1.152 13.6224 1.1103 14.1983 1.1103C16.2569 1.1103 18.2034 1.59508 19.9337 2.45256C17.8542 0.912219 15.2823 0 12.4993 0C9.71374 0 7.14443 0.912219 5.065 2.45256C6.79264 1.59508 8.73917 1.1103 10.8004 1.1103C11.3762 1.1103 11.9417 1.152 12.4993 1.22498Z" fill="#12253C"/>
    <path d="M20.093 2.53572C20.0383 2.50705 19.9835 2.47838 19.9262 2.44971C19.9705 2.48098 20.0122 2.51487 20.0565 2.54875C20.0696 2.54614 20.0826 2.54093 20.093 2.53572Z" fill="#E7E643"/>
    <path d="M12.4972 1.22471C14.5636 1.49577 16.4789 2.25421 18.1179 3.38276C18.7485 3.07781 19.3973 2.80154 20.0592 2.54873C20.0149 2.51484 19.9732 2.48096 19.9289 2.44969C18.2013 1.5922 16.2548 1.10742 14.1936 1.10742C13.6177 1.11003 13.0522 1.15173 12.4972 1.22471Z" fill="#214389"/>
    <path d="M22.2171 7.97555C22.7278 7.67582 23.249 7.39173 23.7806 7.12588C22.918 5.31969 21.636 3.75328 20.0595 2.55176C19.4002 2.80457 18.7514 3.07824 18.1182 3.38579C19.8276 4.55864 21.2373 6.13547 22.2171 7.97555Z" fill="#1D61AE"/>
    <path d="M23.7239 13.8212C24.133 13.3911 24.5525 12.9741 24.9903 12.5727C24.9903 12.5467 24.9929 12.5232 24.9929 12.4972C24.9929 10.5737 24.5577 8.75184 23.7812 7.12549C23.2496 7.39133 22.7284 7.67282 22.2177 7.97515C23.148 9.72401 23.6874 11.71 23.7239 13.8212Z" fill="#0087B1"/>
    <path d="M21.7943 20.8453C23.7669 18.6507 24.9708 15.7525 24.9916 12.5728C24.5539 12.9715 24.1343 13.3911 23.7252 13.8212C23.7252 13.8968 23.7304 13.9697 23.7304 14.0427C23.7278 16.5396 23.019 18.8697 21.7943 20.8453Z" fill="#00AEA2"/>
    <path d="M5.06476 2.45264C5.01002 2.48131 4.95529 2.50998 4.89795 2.53865C4.91098 2.54386 4.92141 2.54907 4.93444 2.55168C4.97875 2.5178 5.02305 2.48391 5.06476 2.45264Z" fill="#E7E643"/>
    <path d="M6.87589 3.38308C8.51754 2.25453 10.4302 1.49609 12.4992 1.22503C11.9442 1.15205 11.3761 1.11035 10.8002 1.11035C8.74164 1.11035 6.79511 1.59513 5.06486 2.45262C5.02056 2.48389 4.97887 2.51777 4.93457 2.55166C5.59644 2.80187 6.24529 3.07814 6.87589 3.38308Z" fill="#214389"/>
    <path d="M18.1169 3.38363C16.4752 2.25509 14.5626 1.49665 12.4962 1.22559C10.4272 1.49665 8.51451 2.25509 6.87286 3.38363C8.92362 4.37665 10.8102 5.64854 12.4936 7.14719C14.1795 5.64854 16.0661 4.37665 18.1169 3.38363Z" fill="#1D61AE"/>
    <path d="M16.833 12.2188C18.4252 10.5742 20.2336 9.14592 22.2192 7.97567C21.2394 6.1356 19.8271 4.55876 18.1203 3.3833C16.0695 4.37632 14.1829 5.64821 12.4996 7.14686C14.1621 8.62986 15.6213 10.337 16.833 12.2188Z" fill="#0087B1"/>
    <path d="M23.7219 13.8216C23.6854 11.7105 23.146 9.72444 22.2158 7.97559C20.2328 9.14323 18.4217 10.5741 16.8296 12.2187C18.169 14.3012 19.2035 16.5947 19.8653 19.0447C20.9285 17.1395 22.2262 15.3854 23.7219 13.8216Z" fill="#00AEA2"/>
    <path d="M20.4903 22.1047C20.9541 21.7164 21.3919 21.2968 21.7958 20.8459C23.0205 18.8703 23.7293 16.5402 23.7293 14.0433C23.7293 13.9677 23.7241 13.8948 23.7241 13.8218C22.2284 15.3882 20.9307 17.1396 19.8701 19.0475C20.1385 20.0405 20.347 21.0622 20.4903 22.1047Z" fill="#58BD83"/>
    <path d="M6.87358 3.38286C6.24297 3.07791 5.59413 2.80164 4.93226 2.54883C3.35575 3.75296 2.0737 5.31937 1.21118 7.12556C1.74276 7.3914 2.26392 7.67289 2.77466 7.97522C3.75444 6.13515 5.16678 4.55831 6.87358 3.38286Z" fill="#1D61AE"/>
    <path d="M2.77545 7.97567C4.75846 9.14331 6.56949 10.5742 8.16163 12.2188C9.37332 10.337 10.8326 8.62986 12.4977 7.14686C10.8143 5.64821 8.92513 4.37632 6.87437 3.3833C5.16757 4.55876 3.75523 6.1356 2.77545 7.97567Z" fill="#0087B1"/>
    <path d="M0.00260595 12.5727C0.44038 12.9715 0.859912 13.3911 1.26902 13.8212C1.3055 11.71 1.8449 9.72401 2.77517 7.97515C2.26444 7.67543 1.74328 7.39133 1.21169 7.12549C0.435168 8.75184 0 10.5737 0 12.4972C0 12.5232 0.00260595 12.5467 0.00260595 12.5727Z" fill="#0087B1"/>
    <path d="M8.16155 12.2187C6.56941 10.5741 4.75838 9.14323 2.77538 7.97559C1.84511 9.72444 1.30571 11.7105 1.26923 13.8216C2.76495 15.388 4.06264 17.1395 5.1232 19.0473C5.78767 16.5947 6.82217 14.2986 8.16155 12.2187Z" fill="#00AEA2"/>
    <path d="M10.1801 24.7784C10.9306 24.9191 11.7045 24.9973 12.4967 24.9973C13.2888 24.9973 14.0601 24.9191 14.8132 24.7784C14.339 22.4718 13.5494 20.2825 12.4967 18.2495C11.4439 20.2825 10.6544 22.4718 10.1801 24.7784Z" fill="#ADC680"/>
    <path d="M1.26935 13.8212C0.860236 13.3911 0.440703 12.9741 0.00292969 12.5728C0.0211703 15.7525 1.22765 18.6507 3.20024 20.8453C1.97552 18.8697 1.26674 16.5396 1.26674 14.0427C1.26413 13.9671 1.26935 13.8942 1.26935 13.8212Z" fill="#00AEA2"/>
    <path d="M4.502 22.1044C4.64532 21.0619 4.85379 20.0402 5.12218 19.0446C4.06162 17.1393 2.76394 15.3853 1.26821 13.8188C1.26821 13.8944 1.263 13.9674 1.263 14.0404C1.263 16.5373 1.97178 18.8673 3.1965 20.8429C3.603 21.2964 4.03817 21.7161 4.502 22.1044Z" fill="#58BD83"/>
    <path d="M16.8345 12.2179C15.6228 10.3362 14.1636 8.629 12.4985 7.146C10.8334 8.629 9.37411 10.3335 8.16241 12.2179C9.88484 13.9981 11.3493 16.0284 12.4985 18.249C13.645 16.0284 15.1095 13.9981 16.8345 12.2179Z" fill="#00AEA2"/>
    <path d="M14.8125 24.7777C15.8678 24.5796 16.8789 24.2512 17.8248 23.803C18.3459 22.1349 19.0365 20.5424 19.8703 19.0438C19.2058 16.5938 18.174 14.2976 16.8346 12.2178C15.1095 13.9979 13.6451 16.0282 12.4985 18.2488C13.5487 20.2818 14.3382 22.4711 14.8125 24.7777Z" fill="#58BD83"/>
    <path d="M19.8711 19.0435C19.0373 20.5447 18.3467 22.1346 17.8256 23.8026C18.7871 23.3491 19.6835 22.7757 20.4913 22.1007C20.348 21.0608 20.1395 20.0391 19.8711 19.0435Z" fill="#ADC680"/>
    <path d="M7.17146 23.8056C8.11737 24.2512 9.12581 24.5822 10.1838 24.7803C10.658 22.4737 11.4476 20.2844 12.5003 18.2514C11.3486 16.0282 9.8841 13.9979 8.16167 12.2178C6.82229 14.3002 5.78779 16.5938 5.12592 19.0438C5.95977 20.545 6.65031 22.1375 7.17146 23.8056Z" fill="#58BD83"/>
    <path d="M4.50323 22.1036C5.31103 22.7787 6.20743 23.3495 7.16896 23.8056C6.6478 22.1375 5.95727 20.545 5.12341 19.0464C4.85502 20.0394 4.64655 21.0611 4.50323 22.1036Z" fill="#ADC680"/>
    <path d="M23.7805 7.12573C22.918 5.31954 21.6359 3.75313 20.0594 2.55161C20.0724 2.54639 20.0829 2.54118 20.0959 2.53857C20.0412 2.5099 19.9864 2.48123 19.9291 2.45256C17.8523 0.912219 15.2804 0 12.4974 0C9.7118 0 7.14248 0.912219 5.06306 2.45256C5.00834 2.48123 4.95362 2.5099 4.89629 2.53857C4.90932 2.54379 4.91974 2.549 4.93277 2.55161C3.35626 3.75313 2.07421 5.31954 1.21169 7.12573C0.435168 8.75208 0 10.5739 0 12.4974C0 12.5235 0.00260595 12.5469 0.00260595 12.573C0.0208465 15.7527 1.22733 18.651 3.19992 20.8455C3.60381 21.2964 4.03898 21.716 4.50542 22.1044C5.31322 22.7794 6.20961 23.3502 7.17115 23.8063C8.11705 24.252 9.12549 24.583 10.1834 24.7811C10.9339 24.9218 11.7078 25 12.5 25C13.2922 25 14.0635 24.9218 14.8165 24.7811C15.8719 24.583 16.8829 24.2546 17.8288 23.8063C18.7904 23.3528 19.6868 22.7794 20.4946 22.1044C20.9584 21.716 21.3962 21.2964 21.8001 20.8455C23.7727 18.651 24.9765 15.7527 24.9974 12.573C24.9974 12.5469 25 12.5235 25 12.4974C24.9922 10.5739 24.557 8.75469 23.7805 7.12573Z" fill="url(#paint0_linear)"/>
    <path d="M23.7805 7.12573C22.918 5.31954 21.6359 3.75313 20.0594 2.55161C20.0724 2.54639 20.0829 2.54118 20.0959 2.53857C20.0412 2.5099 19.9864 2.48123 19.9291 2.45256C17.8523 0.912219 15.2804 0 12.4974 0C9.7118 0 7.14248 0.912219 5.06306 2.45256C5.00834 2.48123 4.95362 2.5099 4.89629 2.53857C4.90932 2.54379 4.91974 2.549 4.93277 2.55161C3.35626 3.75313 2.07421 5.31954 1.21169 7.12573C0.435168 8.75208 0 10.5739 0 12.4974C0 12.5235 0.00260595 12.5469 0.00260595 12.573C0.0208465 15.7527 1.22733 18.651 3.19992 20.8455C3.60381 21.2964 4.03898 21.716 4.50542 22.1044C5.31322 22.7794 6.20961 23.3502 7.17115 23.8063C8.11705 24.252 9.12549 24.583 10.1834 24.7811C10.9339 24.9218 11.7078 25 12.5 25C13.2922 25 14.0635 24.9218 14.8165 24.7811C15.8719 24.583 16.8829 24.2546 17.8288 23.8063C18.7904 23.3528 19.6868 22.7794 20.4946 22.1044C20.9584 21.716 21.3962 21.2964 21.8001 20.8455C23.7727 18.651 24.9765 15.7527 24.9974 12.573C24.9974 12.5469 25 12.5235 25 12.4974C24.9922 10.5739 24.557 8.75469 23.7805 7.12573Z" fill="url(#paint1_linear)"/>
    <path d="M17.0698 6.63281C15.2848 8.67357 13.5676 11.7021 12.4732 13.8159C11.3788 11.7047 9.65893 8.67357 7.87657 6.63541C7.66029 6.38781 7.27984 6.41909 7.10525 6.70057C5.31247 9.58057 3.7542 14.4075 3.39981 16.0261C3.35291 16.2398 3.3946 16.4639 3.51707 16.6438C3.92879 17.251 4.35875 17.9547 4.72877 18.6141C4.85124 18.8305 5.16394 18.7966 5.23429 18.5568C5.90138 16.3414 6.98539 13.769 8.14497 12.1218C9.12475 12.888 10.8029 15.5491 11.7644 17.1494L12.3273 18.1085C12.4028 18.2388 12.5905 18.2336 12.6634 18.1033L13.1846 17.1494C14.1461 15.5465 15.8242 12.888 16.804 12.1218C17.9636 13.769 19.0476 16.3414 19.7147 18.5568C19.7877 18.7966 20.1004 18.8331 20.2202 18.6141C20.5902 17.9547 21.0202 17.251 21.4319 16.6438C21.5544 16.4639 21.5961 16.2398 21.5492 16.0261C21.1922 14.4075 19.6365 9.58057 17.8463 6.69796C17.6665 6.41648 17.2861 6.3852 17.0698 6.63281Z" fill="url(#paint2_radial)"/>
    <path opacity="0.57" d="M21.4284 16.6442C21.0167 17.2515 20.5867 17.9552 20.2167 18.6146C20.0943 18.831 19.7816 18.7971 19.7112 18.5573C19.0441 16.3419 17.9601 13.7694 16.8005 12.1222C15.8207 12.8885 14.1426 15.5496 13.1811 17.1499L12.6599 18.1038C12.5896 18.2341 12.3993 18.2393 12.3238 18.109L11.7609 17.1499C10.7994 15.5444 9.12125 12.8859 8.14407 12.1196C6.9845 13.7668 5.90048 16.3393 5.2334 18.5547C5.16044 18.7945 4.84774 18.8309 4.72788 18.612C4.35785 17.9526 3.9279 17.2489 3.51618 16.6416C3.44322 16.5348 3.39892 16.4097 3.38589 16.282C3.36505 16.4696 3.41195 16.6573 3.51618 16.811C3.9279 17.4157 4.35785 18.122 4.72788 18.7814C4.85035 18.9978 5.16304 18.9639 5.2334 18.7241C5.89527 16.5269 6.96886 13.9779 8.11541 12.3281C8.13104 12.3073 8.15971 12.3021 8.18056 12.3177C9.16555 13.1205 10.8124 15.7346 11.7635 17.3167L12.2873 18.208C12.3811 18.367 12.6104 18.3644 12.699 18.2002L13.1811 17.3141C14.1322 15.732 15.7791 13.1179 16.764 12.3151C16.7849 12.2995 16.8136 12.3021 16.8292 12.3255C17.9783 13.9753 19.0519 16.5243 19.7112 18.7215C19.7842 18.9613 20.0969 18.9978 20.2167 18.7788C20.5867 18.1194 21.0167 17.4157 21.4284 16.8084C21.5326 16.6521 21.5796 16.4644 21.5587 16.2793C21.5457 16.4123 21.5014 16.5348 21.4284 16.6442Z" fill="#CFDD2C"/>
    <path opacity="0.47" d="M3.39943 16.2606C3.75382 14.6421 5.31208 9.81514 7.10226 6.93253C7.27685 6.65105 7.6573 6.61977 7.87358 6.86738C9.65855 8.90814 11.3758 11.9367 12.4702 14.0478C13.5646 11.9367 15.2845 8.90553 17.0668 6.86738C17.2831 6.61977 17.6635 6.65105 17.8381 6.93253C19.6309 9.81514 21.1892 14.6421 21.5462 16.2606C21.5514 16.2789 21.554 16.2971 21.5566 16.318C21.5696 16.2215 21.5696 16.1225 21.5462 16.026C21.1892 14.4075 19.6335 9.58057 17.8433 6.69796C17.6688 6.41648 17.2883 6.3852 17.072 6.63281C15.2845 8.67357 13.5672 11.7021 12.4728 13.8159C11.3784 11.7047 9.65855 8.67357 7.87618 6.63541C7.6599 6.38781 7.27946 6.41909 7.10487 6.70057C5.31208 9.58057 3.75382 14.4075 3.39943 16.026C3.37858 16.1225 3.37598 16.2215 3.38901 16.318C3.39161 16.2971 3.39422 16.2789 3.39943 16.2606Z" fill="#152E68"/>
    <path d="M11.7637 17.1473C12.0139 17.5643 12.2146 17.9084 12.3423 18.1273C12.3997 18.2289 12.5456 18.2289 12.6029 18.1273C12.7307 17.9057 12.9313 17.5617 13.1816 17.1473L13.6298 16.3263C13.6559 16.2794 13.6585 16.2247 13.6351 16.1751C13.5152 15.9145 13.0929 15.0127 12.4726 13.8164C11.8523 15.0127 11.4301 15.9145 11.3102 16.1751C11.2868 16.2247 11.2894 16.2794 11.3154 16.3263L11.7637 17.1473Z" fill="url(#paint3_radial)"/>
    <defs>
        <linearGradient id="paint0_linear" x1="25.5103" y1="20.7093" x2="16.7091" y2="15.1583" gradientUnits="userSpaceOnUse">
            <stop stop-color="#00AEEF"/>
            <stop offset="1" stop-color="#00AEEF" stop-opacity="0"/>
        </linearGradient>
        <linearGradient id="paint1_linear" x1="1.77868" y1="20.7014" x2="4.03046" y2="18.9744" gradientUnits="userSpaceOnUse">
            <stop stop-color="#00B4B0"/>
            <stop offset="0.4394" stop-color="#4DBFA2" stop-opacity="0.5606"/>
            <stop offset="1" stop-color="#9CD08C" stop-opacity="0"/>
        </linearGradient>
        <radialGradient id="paint2_radial" cx="0" cy="0" r="1" gradientUnits="userSpaceOnUse" gradientTransform="translate(13.9598 9.76529) scale(8.40048 8.72791)">
            <stop stop-color="#00AEA2"/>
            <stop offset="0.5587" stop-color="#1C60AC"/>
            <stop offset="1" stop-color="#214289"/>
        </radialGradient>
        <radialGradient id="paint3_radial" cx="0" cy="0" r="1" gradientUnits="userSpaceOnUse" gradientTransform="translate(14.7518 12.916) scale(8.36573 8.68999)">
            <stop stop-color="#00AEA2"/>
            <stop offset="0.5587" stop-color="#1C60AC"/>
            <stop offset="1" stop-color="#214289"/>
        </radialGradient>
    </defs>
</svg>
