<svg width="124" height="26" viewBox="0 0 124 26" fill="none" xmlns="http://www.w3.org/2000/svg">
<path d="M33.2112 22.192C30.6662 19.647 29.4033 16.591 29.4033 13.0048C29.4033 9.41859 30.6758 6.36262 33.2112 3.81757C35.7563 1.27253 38.8123 0 42.3985 0C45.9847 0 49.0407 1.27253 51.5857 3.81757C54.1307 6.36262 55.3936 9.41859 55.3936 13.0048C55.3936 16.591 54.1211 19.647 51.5857 22.192C49.0407 24.7371 45.9847 25.9999 42.3985 25.9999C38.8123 26.0096 35.7467 24.7371 33.2112 22.192ZM35.6695 6.28549C33.8089 8.14607 32.8835 10.3826 32.8835 13.0048C32.8835 15.627 33.8089 17.8732 35.6695 19.7241C37.5301 21.5847 39.7667 22.5101 42.3888 22.5101C45.011 22.5101 47.2476 21.5847 49.1081 19.7241C50.9687 17.8635 51.8942 15.627 51.8942 13.0048C51.8942 10.3826 50.9687 8.13643 49.1081 6.28549C47.2476 4.42491 45.011 3.49944 42.3888 3.49944C39.7763 3.48979 37.5301 4.42491 35.6695 6.28549Z" fill="white"/>
<path d="M24.4671 0.443189C24.2358 0.346786 24.014 0.308228 23.7923 0.308228C23.3874 0.308228 23.0114 0.48175 22.6548 0.828802L12.7734 10.7101L2.90174 0.819164C2.55469 0.472112 2.17871 0.298584 1.76418 0.298584C1.55209 0.298584 1.34 0.346788 1.10864 0.433551C0.433814 0.70348 0 1.36866 0 2.09169V24.168C0 24.6404 0.163885 25.0453 0.501297 25.3827C0.838708 25.7201 1.23396 25.884 1.71598 25.884C2.17871 25.884 2.57397 25.7201 2.91138 25.3827C3.24879 25.0453 3.41267 24.65 3.41267 24.168V6.14062L7.10492 9.83286L11.2888 14.0168C12.1082 14.8362 13.4386 14.8362 14.258 14.0168L22.1438 6.13098V8.1458V12.9563V18.0657V24.1487C22.1438 24.6211 22.3077 25.026 22.6451 25.3634C22.9825 25.7008 23.3778 25.8647 23.8598 25.8647C24.3322 25.8647 24.7371 25.7008 25.0745 25.3634C25.4119 25.026 25.5758 24.6307 25.5758 24.1487V2.0724C25.5758 1.38794 25.142 0.713118 24.4671 0.443189Z" fill="white"/>
<path d="M75.7141 14.4507L62.1019 0.828923C61.7549 0.481872 61.3789 0.30835 60.9644 0.30835C60.7427 0.30835 60.5016 0.366187 60.251 0.47223C59.5472 0.76144 59.2002 1.28202 59.2002 2.04361V24.1874C59.2002 24.6598 59.3641 25.0647 59.7015 25.4021C60.0389 25.7395 60.4342 25.9034 60.9162 25.9034C61.3789 25.9034 61.7742 25.7395 62.1116 25.4021C62.449 25.0647 62.6129 24.6694 62.6129 24.1874V6.16002L75.7237 19.2901V14.4507H75.7141Z" fill="white"/>
<path d="M101.252 0.617859C100.645 0.0105185 99.5842 0.0105185 98.9672 0.617859L98.7551 0.829947C98.1285 1.45657 98.1285 2.47844 98.7551 3.1147L107.537 11.897C107.856 12.2152 108.26 12.3694 108.675 12.3694C109.09 12.3694 109.504 12.2152 109.813 11.897L109.996 11.7139C110.179 11.5307 110.343 11.309 110.42 11.0583C110.603 10.451 110.449 9.83401 110.025 9.40984L101.252 0.617859Z" fill="white"/>
<path d="M112.097 11.8961C112.416 12.2142 112.821 12.3685 113.235 12.3685C113.65 12.3685 114.064 12.2142 114.373 11.8961L123.155 3.11375C123.579 2.68957 123.733 2.08224 123.55 1.46526C123.473 1.21461 123.319 0.992876 123.126 0.80971L122.933 0.616903C122.634 0.318054 122.22 0.144531 121.796 0.144531C121.362 0.144531 120.957 0.308413 120.658 0.616903L111.895 9.37996C111.712 9.56312 111.548 9.78485 111.471 10.0451C111.288 10.6525 111.452 11.2695 111.866 11.684L112.097 11.8961Z" fill="white"/>
<path d="M114.373 14.1423C113.746 13.5157 112.725 13.5157 112.088 14.1423L111.876 14.3544C111.25 14.981 111.25 16.0029 111.876 16.6392L120.659 25.4215C120.977 25.7396 121.382 25.8939 121.796 25.8939C122.211 25.8939 122.625 25.7396 122.934 25.4215L123.126 25.2287C123.31 25.0455 123.474 24.8238 123.551 24.5732C123.734 23.9658 123.58 23.3488 123.155 22.9247L114.373 14.1423Z" fill="white"/>
<path d="M109.823 14.1423C109.196 13.5157 108.174 13.5157 107.538 14.1423L98.7749 22.9054C98.5918 23.0885 98.4279 23.3103 98.3507 23.5706C98.1676 24.1779 98.3315 24.7949 98.746 25.2094L98.9581 25.4215C99.2762 25.7396 99.6811 25.8939 100.096 25.8939C100.51 25.8939 100.925 25.7396 101.233 25.4215L110.016 16.6392C110.642 16.0126 110.642 14.9907 110.016 14.3544L109.823 14.1423Z" fill="white"/>
<path d="M80.5831 25.8936H77.797C77.6428 25.8936 77.5078 25.7683 77.5078 25.6044V0.587794C77.5078 0.433548 77.6331 0.298584 77.797 0.298584H80.5831C80.7373 0.298584 80.8723 0.423908 80.8723 0.587794V25.6044C80.8626 25.7683 80.7373 25.8936 80.5831 25.8936Z" fill="white"/>
<path d="M95.9015 0.424219V3.21027C95.9015 3.36452 95.7762 3.49948 95.6123 3.49948H77.797C77.6428 3.49948 77.5078 3.37416 77.5078 3.21027V0.424219C77.5078 0.269974 77.6331 0.13501 77.797 0.13501H95.622C95.7762 0.14465 95.9015 0.269974 95.9015 0.424219Z" fill="white"/>
<path d="M103.778 11.6166V14.4027C103.778 14.5569 103.653 14.6919 103.489 14.6919H83.5334C83.3791 14.6919 83.2441 14.5665 83.2441 14.4027V11.6166C83.2441 11.4624 83.3695 11.3274 83.5334 11.3274H103.498C103.653 11.337 103.778 11.4624 103.778 11.6166Z" fill="white"/>
<path d="M95.9015 22.828V25.6141C95.9015 25.7683 95.7762 25.9033 95.6123 25.9033H77.797C77.6428 25.9033 77.5078 25.778 77.5078 25.6141V22.828C77.5078 22.6738 77.6331 22.5388 77.797 22.5388H95.622C95.7762 22.5388 95.9015 22.6738 95.9015 22.828Z" fill="white"/>
</svg>
